<?xml version="1.0" standalone="no"?>
<!DOCTYPE svg PUBLIC "-//W3C//DTD SVG 1.1//EN" "http://www.w3.org/Graphics/SVG/1.1/DTD/svg11.dtd" >
<svg xmlns="http://www.w3.org/2000/svg">
<metadata></metadata>
<defs>
<font id="pf_din_text_cond_prothin" horiz-adv-x="1818" >
<font-face units-per-em="1000" ascent="750" descent="-250" />
<missing-glyph horiz-adv-x="197" />
<glyph unicode="fj" horiz-adv-x="388" d="M78 492v110q0 65 34.5 95t89.5 30q75 0 122 -45l-28 -31q-22 22 -46.5 28t-47.5 6q-80 0 -80 -79v-114h199v-577q0 -54 -27 -86t-83 -32h-17v40h14q40 2 55 22.5t15 61.5v536h-156v-457h-44v457h-57v35h57z" />
<glyph unicode="ffj" horiz-adv-x="589" d="M321 493h200v-578q0 -54 -27.5 -86t-84.5 -32h-16v40h14q40 2 55 23.5t15 63.5v533h-156v-457h-44v457h-155v-457h-44v457h-57v36h57v97q0 63 36 93t89 30q56 0 98 -26q17 23 43 33t58 10q76 0 121 -45q-3 -4 -14 -15t-14 -16q-23 22 -46.5 28.5t-47.5 6.5q-38 0 -59 -20 t-21 -60v-116zM202 671q-80 0 -80 -81v-97h155v117q0 10 1 20t4 20q-20 14 -41.5 17.5t-38.5 3.5z" />
<glyph unicode="ff" horiz-adv-x="426" d="M203 719q52 0 94 -24q14 21 37 31.5t52 10.5h36v-40h-30q-21 0 -35 -6.5t-22.5 -18t-11.5 -26t-3 -29.5v-125h99v-36h-99v-456h-44v456h-154v-456h-44v456h-57v36h57v101q0 59 30.5 92.5t94.5 33.5zM276 492v123q0 7 1 18t4 23q-20 14 -41 17.5t-38 3.5q-80 0 -80 -79 v-106h154z" />
<glyph unicode="fi" horiz-adv-x="388" d="M278 0v457h-155v-457h-45v457h-56v36h56v114q0 64 36 92t88 28q77 0 122 -45l-27 -31q-23 22 -47 28t-48 6q-79 0 -79 -79v-113h199v-493h-44z" />
<glyph unicode="fl" horiz-adv-x="412" d="M387 -3q-52 0 -80 23t-28 83v176.5v159.5v134v102q-21 8 -40 10.5t-38 2.5q-42 0 -60.5 -21t-18.5 -66v-108h105v-37h-105v-456h-44v456h-58v37h58v112q0 64 34.5 95t89.5 31q23 0 52 -5t68 -19v-595q0 -36 15.5 -56.5t54.5 -20.5h10v-38h-15v0z" />
<glyph unicode="ffi" horiz-adv-x="589" d="M477 0v457h-156v-457h-43v457h-155v-457h-45v457h-56v36h56v98q0 32 9.5 55t26.5 38t40 22t49 7q55 0 98 -25q18 23 43.5 33t57.5 10q76 0 122 -46l-28 -30q-22 21 -46 27.5t-49 6.5q-38 0 -59 -20t-21 -59v-117h200v-493h-44zM203 672q-42 0 -61 -21.5t-19 -60.5v-97 h155v117q0 10 1 20t3 19q-20 14 -41.5 18.5t-37.5 4.5z" />
<glyph unicode="ffl" horiz-adv-x="612" d="M203 712q25 0 50 -6t47 -19q17 25 43.5 35t58.5 10q23 0 53 -5t67 -20v-595q0 -36 15.5 -56.5t54.5 -20.5h10v-38h-15q-52 0 -80.5 23t-28.5 83v574q-21 8 -40.5 11t-36.5 3q-80 0 -80 -89v-109h107v-36h-107v-457h-43v457h-155v-457h-45v457h-56v36h56v98q0 32 10 55 t27 37.5t39.5 21.5t48.5 7zM203 670q-80 0 -80 -79v-98h155v114q0 25 4 41q-20 14 -42 18t-37 4z" />
<glyph unicode="ft" horiz-adv-x="432" d="M123 457v-457h-45v457h-56v36h56v117q0 60 31.5 87.5t78.5 27.5h36v-40h-29q-21 0 -35 -6.5t-22.5 -18t-11.5 -26t-3 -29.5v-112h155v134h44v-134h83v-36h-83v-339q0 -36 14.5 -57t56.5 -21h20v-40h-30q-49 0 -77 27.5t-28 79.5v350h-155z" />
<glyph unicode=" "  horiz-adv-x="197" />
<glyph unicode="&#x09;" horiz-adv-x="197" />
<glyph unicode="&#xa0;" horiz-adv-x="197" />
<glyph unicode="!" horiz-adv-x="206" d="M86 174q0 29 -0.5 70.5t-1 90t-1 100.5t-1 100.5t-1.5 90t-1 70.5h46q-1 -29 -1.5 -70.5t-1 -90t-1 -100.5t-1 -100.5t-1 -90t-0.5 -70.5h-34zM78 0v54h51v-54h-51z" />
<glyph unicode="&#x22;" horiz-adv-x="217" d="M135 519v177h35v-177h-35zM50 519v177h35v-177h-35z" />
<glyph unicode="#" horiz-adv-x="410" d="M6 254h82q1 8 6 36t10.5 59.5t10 59.5t5.5 36h-77v31h82q1 9 6.5 41.5t11.5 69.5t11.5 69.5t6.5 41.5h33l-36 -222h131q1 9 6.5 41.5t11.5 69.5t11.5 69.5t6.5 41.5h33l-36 -222h81v-31h-86l-32 -191h79v-31h-84q-1 -6 -3.5 -23t-6 -40t-7.5 -48.5t-7.5 -48t-6.5 -40 t-4 -23.5h-33l35 223h-130l-37 -223h-33l37 223h-78v31zM122 254h130q1 8 6 36t10 59.5t10 59.5t6 36h-131z" />
<glyph unicode="$" horiz-adv-x="410" d="M190 -7q-67 3 -109.5 32t-66.5 77l36 22q19 -35 53.5 -61t86.5 -29v305q-41 15 -72 30.5t-51.5 36.5t-30.5 48t-10 64q0 75 41.5 125t122.5 55v84h28v-84q63 -3 101.5 -29t56.5 -61l-37 -25q-18 32 -46.5 51.5t-74.5 22.5v-283q43 -12 75.5 -27.5t54 -38t32 -54 t10.5 -74.5q0 -83 -42 -133t-130 -54v-105h-28v105zM345 179q0 36 -9 60t-25.5 40.5t-40 27.5t-52.5 22v-295q65 4 96 43.5t31 101.5zM70 518q0 -28 8.5 -48.5t23.5 -36t37 -27t51 -22.5v273q-57 -4 -88.5 -43t-31.5 -96z" />
<glyph unicode="%" horiz-adv-x="600" d="M247 371q0 -47 -31.5 -72t-73.5 -25q-44 0 -75.5 25t-31.5 72v231q0 47 31.5 71.5t75.5 24.5q43 0 74 -24.5t31 -71.5v-231zM210 601q0 29 -19 47t-49 18q-32 0 -51 -18t-19 -47v-228q0 -29 19 -47t51 -18q30 0 49 18t19 47v228zM129 -17h-35l368 731h36zM562 92 q0 -47 -31.5 -71.5t-73.5 -24.5q-21 0 -40.5 6.5t-34.5 18.5t-23.5 30t-8.5 41v233q0 23 8.5 41t23.5 30t34.5 18t40.5 6q42 0 73.5 -24t31.5 -71v-233zM525 324q0 29 -19 46t-49 17q-32 0 -51 -17t-19 -46v-231q0 -29 19 -46t51 -17q30 0 49 17t19 46v231z" />
<glyph unicode="&#x26;" horiz-adv-x="539" d="M256 703q45 0 76.5 -12t57.5 -42l-33 -28q-21 23 -45 31.5t-55 8.5q-26 0 -44 -9.5t-30 -23.5t-17.5 -32t-5.5 -34q0 -23 8.5 -48.5t27.5 -57.5q45 -76 99.5 -153.5t104.5 -150.5q17 32 24.5 67.5t10.5 67.5l42 -2q-5 -42 -17 -86.5t-33 -83.5q20 -29 40.5 -58t40.5 -57 h-54q-14 20 -27.5 39.5t-27.5 39.5q-42 -49 -84.5 -67t-90.5 -18q-72 0 -118.5 43t-46.5 124q0 66 34 120.5t98 103.5q-35 55 -55 94t-20 82q0 28 9 54t26.5 45.5t43.5 31t61 11.5zM374 112q-40 60 -79.5 119t-80.5 119q-54 -42 -83 -88.5t-29 -97.5q0 -60 35.5 -95.5 t92.5 -35.5q38 0 76.5 20.5t67.5 58.5z" />
<glyph unicode="'" horiz-adv-x="165" d="M65 519v177h35v-177h-35z" />
<glyph unicode="(" horiz-adv-x="239" d="M203 -117q-30 39 -56 86.5t-45.5 101t-30.5 111.5t-11 118q0 57 10 114.5t28.5 111t44.5 102t57 89.5l21 -11q-27 -44 -48.5 -92.5t-36.5 -100t-23 -104.5t-8 -104q0 -112 32 -218t84 -191l-18 -13v0z" />
<glyph unicode=")" horiz-adv-x="239" d="M201 297q0 -59 -11 -117t-30.5 -111t-45.5 -100.5t-55 -86.5l-19 13q52 85 84 190.5t32 217.5q0 103 -31 208t-85 193q5 3 10 5.5t10 5.5q31 -41 57 -89.5t44.5 -102.5t29 -111t10.5 -115z" />
<glyph unicode="*" horiz-adv-x="336" d="M270 447q-1 -1 -6 -5t-11 -8t-11 -8t-6 -5l-67 108q-2 -2 -12 -18t-21.5 -35.5t-21.5 -36t-11 -18.5l-34 25l77 98q-3 0 -20.5 5.5t-38.5 11.5t-38.5 11.5t-19.5 6.5l12 40l114 -48q0 3 -1 21.5t-2 40.5t-2.5 41t-1.5 21h41l-8 -124l116 48l12 -40l-118 -35z" />
<glyph unicode="+" horiz-adv-x="410" d="M222 268v-176h-35v176h-166v37h166v174h35v-174h166v-37h-166z" />
<glyph unicode="," horiz-adv-x="155" d="M41 -97l23 97h-15v59h57v-57l-37 -99h-28z" />
<glyph unicode="-" horiz-adv-x="346" d="M52 249v40h248v-40h-248z" />
<glyph unicode="." horiz-adv-x="151" d="M49 0v61h56v-61h-56z" />
<glyph unicode="/" horiz-adv-x="399" d="M66 -33h-37l276 754h38z" />
<glyph unicode="0" horiz-adv-x="410" d="M362 147q0 -38 -13 -66.5t-34.5 -47.5t-50 -29t-59.5 -10t-59.5 10t-50 29t-34.5 47.5t-13 66.5v401q0 37 13 66t34.5 48t50 29t59.5 10t59.5 -10t50 -29t34.5 -48t13 -66v-401zM319 546q0 53 -31.5 84t-82.5 31t-82.5 -31t-31.5 -84v-396q0 -53 31.5 -84.5t82.5 -31.5 t82.5 31.5t31.5 84.5v396z" />
<glyph unicode="1" horiz-adv-x="410" d="M256 0h-43v648l-104 -72v49l103 71h44v-696z" />
<glyph unicode="2" horiz-adv-x="410" d="M209 660q-43 0 -73.5 -27.5t-41.5 -79.5l-44 8q12 63 53.5 101t107.5 38q78 0 119.5 -43.5t41.5 -112.5q0 -40 -14 -75t-35 -70l-227 -358h263v-41h-313v42l242 383q16 25 26.5 56.5t10.5 60.5q0 23 -6.5 44t-20.5 37.5t-36 26.5t-53 10z" />
<glyph unicode="3" horiz-adv-x="410" d="M90 130q8 -41 32 -68.5t76 -27.5q35 0 58 11t37 31t20 48.5t6 63.5q0 81 -24.5 118t-85.5 37h-35v39h28q57 0 85 31t28 102q0 30 -5.5 57t-18.5 46.5t-35.5 31t-55.5 11.5q-26 0 -44.5 -8.5t-31 -22t-19.5 -31t-11 -35.5l-43 9q11 56 47 92t103 36q46 0 76.5 -14.5 t48.5 -39t25.5 -58t7.5 -72.5q0 -20 -3 -43.5t-12.5 -45t-26.5 -38.5t-44 -26q32 -7 50 -25.5t27 -42.5t11 -51.5t2 -52.5q0 -42 -8 -78t-27 -63t-51 -42t-81 -15q-25 0 -49 6.5t-44.5 21.5t-35 39t-19.5 58z" />
<glyph unicode="4" horiz-adv-x="410" d="M330 116v-115h-43v115h-261v43l198 537h46l-199 -539h216v205h43v-205h58v-41h-58z" />
<glyph unicode="5" horiz-adv-x="410" d="M216 452q44 0 72.5 -15t45.5 -43.5t23.5 -70t6.5 -94.5q0 -58 -7.5 -102t-25.5 -73.5t-49 -44.5t-79 -15q-127 0 -151 127l42 10q8 -42 33 -70t78 -28q37 0 60 13t35.5 38t16.5 61t4 82q0 94 -23.5 140t-90.5 46q-30 0 -60.5 -15.5t-44.5 -40.5h-40v339h294v-40h-254 l1 -249q24 24 54 34.5t59 10.5z" />
<glyph unicode="6" horiz-adv-x="410" d="M216 389q149 0 149 -196q0 -97 -41.5 -148t-116.5 -51q-76 0 -116 45.5t-40 141.5q0 30 2 53.5t6 42.5t9.5 35t12.5 31l155 353h46q-37 -84 -73 -165.5t-73 -163.5h1q35 22 79 22zM208 351q-32 0 -54 -12t-35.5 -34t-19.5 -52.5t-6 -66.5q0 -76 27 -114.5t87 -38.5 q115 0 115 157q0 76 -26.5 118.5t-87.5 42.5z" />
<glyph unicode="7" horiz-adv-x="410" d="M146 0h-45l221 656h-235v-99h-40v139h320v-40z" />
<glyph unicode="8" horiz-adv-x="410" d="M370 187q0 -52 -12.5 -88.5t-34.5 -60t-51.5 -34t-63.5 -10.5t-63.5 10t-51.5 33t-35 60.5t-13 91.5q0 78 25.5 118t63.5 54q-40 18 -61.5 55t-21.5 106q0 48 12 82t33.5 55.5t50 32t61.5 10.5t62 -10t50 -32t33 -56.5t12 -82.5q0 -68 -23 -105.5t-60 -54.5 q39 -15 63.5 -54t24.5 -120zM208 662q-56 0 -85.5 -35.5t-29.5 -107.5t31 -105.5t84 -33.5q52 0 83 34t31 106q0 142 -114 142zM208 343q-26 0 -48 -8.5t-38 -26.5t-25 -47t-9 -70q0 -84 32.5 -121t87.5 -37q119 0 119 157q0 42 -9 71.5t-24.5 47.5t-37.5 26t-48 8z" />
<glyph unicode="9" horiz-adv-x="410" d="M200 306q-73 0 -111 49.5t-38 146.5q0 6 0.5 12t1.5 11q4 88 46 132.5t111 44.5q76 0 116 -46t40 -142q0 -60 -8.5 -95.5t-22.5 -66.5q-15 -35 -36 -82t-42.5 -96.5t-42 -95.5t-34.5 -78h-46l146 328h-1q-35 -22 -79 -22zM210 344q61 0 87 44t26 120t-27 115t-87 39 q-57 0 -86 -39.5t-29 -116.5q0 -79 26.5 -120.5t89.5 -41.5z" />
<glyph unicode=":" horiz-adv-x="155" d="M49 0v61h56v-61h-56zM49 310v61h56v-61h-56z" />
<glyph unicode=";" horiz-adv-x="155" d="M41 -97l23 97h-15v59h57v-57l-37 -99h-28zM49 310v60h57v-60h-57z" />
<glyph unicode="&#x3c;" horiz-adv-x="410" d="M384 90l-360 179v35l359 179v-39l-319 -158q10 -4 35 -16t57 -27.5t67.5 -33.5t68 -34t57 -28.5t35.5 -16.5v-40z" />
<glyph unicode="=" horiz-adv-x="410" d="M21 342v36h367v-36h-367zM21 181v37h367v-37h-367z" />
<glyph unicode="&#x3e;" horiz-adv-x="410" d="M25 130q10 4 35 16.5l57 28.5t67.5 34t67.5 33.5t57 27.5t35 16l-319 158v39l360 -179v-35l-360 -179v40z" />
<glyph unicode="?" horiz-adv-x="394" d="M32 551q13 74 59.5 112t109.5 38q43 0 74 -13t51.5 -36.5t30 -55t9.5 -67.5q0 -29 -6 -52t-15.5 -41.5t-21.5 -34.5t-23 -31q-11 -14 -23 -29.5t-22.5 -32.5t-17.5 -36.5t-8 -42.5v-69h-44v68q0 54 33 101q17 25 35 47t33 45t25 48t10 57q0 26 -6.5 50.5t-20.5 43 t-38 29.5t-58 11q-26 0 -47 -9.5t-37 -26t-26 -37.5t-13 -44zM182 0v55h52v-55h-52z" />
<glyph unicode="@" horiz-adv-x="757" d="M490 249q0 -32 15.5 -50.5t46.5 -18.5q26 0 49 11.5t39.5 36t26 63.5t9.5 95q0 69 -23 122t-61.5 89t-89.5 54.5t-107 18.5q-75 0 -133 -25.5t-98 -70t-61 -106t-21 -133.5q0 -78 22 -140.5t63 -107t100 -68t133 -23.5q52 0 98 9t86 30l14 -33q-45 -17 -93 -28.5 t-100 -11.5q-81 0 -147.5 24.5t-113.5 72t-73 117t-26 159.5q0 80 24 148t68.5 117t108.5 76.5t145 27.5q73 0 132.5 -23t101.5 -64.5t65 -100t23 -130.5q0 -66 -13.5 -112t-36 -74.5t-51.5 -41t-60 -12.5q-7 0 -19.5 2t-26 8t-25.5 17.5t-17 30.5q-1 0 -1 -1 q-9 -17 -23.5 -27t-30.5 -16t-32 -8t-29 -2q-53 0 -83.5 28t-30.5 78q0 22 6.5 43t20.5 37t36 25.5t53 9.5h104v55q0 35 -18.5 55t-66.5 20q-25 0 -48.5 -10t-38.5 -30q-8 5 -13.5 9t-13.5 9q21 26 50 41t64 15q25 0 47 -5t38.5 -17t26 -33t9.5 -53v-178zM358 340 q-38 0 -63 -19t-25 -64q0 -38 24.5 -56t62.5 -18q18 0 35 4.5t31 13.5t22.5 23.5t8.5 34.5v81h-96z" />
<glyph unicode="A" horiz-adv-x="481" d="M422 0q-4 15 -10.5 39t-14 49t-14.5 49t-11 39h-264l-50 -176h-46l203 696h50l204 -696h-47zM288 467l-47 170h-3q-56 -201 -120 -420h243z" />
<glyph unicode="B" horiz-adv-x="497" d="M458 194q0 -49 -13.5 -85.5t-37.5 -60.5t-57 -36t-72 -12h-212v696h198q93 0 137 -48t44 -127q0 -24 -4.5 -47t-15 -44t-29.5 -38t-47 -28v-1q30 -8 51 -25t33.5 -40t18.5 -50t6 -54zM110 656v-274h156q68 0 101.5 37t33.5 101q0 62 -35 99t-109 37h-147zM110 342v-299 h158q40 0 67.5 12t44.5 33t24.5 49t7.5 60q0 64 -33.5 104.5t-103.5 40.5h-165z" />
<glyph unicode="C" horiz-adv-x="457" d="M432 132q-7 -35 -24.5 -61t-42 -43t-55 -26t-63.5 -9q-45 0 -81.5 14.5t-62 40.5t-39.5 62.5t-14 81.5v313q0 43 14 79.5t39.5 62t62 40t81.5 14.5q67 0 117.5 -33.5t66.5 -98.5l-43 -15q-11 51 -48.5 78t-92.5 27q-72 0 -112.5 -43.5t-40.5 -110.5v-316 q0 -33 10.5 -61.5t30.5 -49.5t48.5 -32.5t63.5 -11.5q54 0 92 28t51 83z" />
<glyph unicode="D" horiz-adv-x="506" d="M259 696q72 0 116 -27.5t65 -81.5q12 -35 14 -96t2 -137v-75q0 -54 -2 -95.5t-13 -70.5q-13 -33 -33 -55t-46 -35t-57 -18t-65 -5h-175v696h194zM411 451q0 34 -2.5 60.5t-10.5 54.5q-12 41 -50.5 65t-100.5 24h-137v-614h137q113 0 148 83q8 18 12 44.5t4 49.5v233z" />
<glyph unicode="E" horiz-adv-x="442" d="M66 0v696h353v-42h-309v-279h267v-40h-267v-292h309v-43h-353z" />
<glyph unicode="F" horiz-adv-x="430" d="M112 654v-280h265v-40h-265v-334h-46v696h353v-42h-307z" />
<glyph unicode="G" horiz-adv-x="490" d="M247 34q34 0 62 12t48 32.5t31.5 48.5t11.5 60v128h-122v41h167v-163q0 -44 -14.5 -81t-41 -63.5t-63 -41t-80.5 -14.5q-45 0 -81.5 14.5t-62 40.5t-39.5 62.5t-14 81.5v313q0 43 14 79.5t40 62.5t62 40.5t81 14.5q68 0 119 -34t66 -100l-43 -13q-11 51 -49 78t-92 27 q-36 0 -64 -11.5t-48 -32.5t-30.5 -49.5t-10.5 -61.5v-317q0 -33 10.5 -61t30.5 -49t48.5 -32.5t63.5 -11.5z" />
<glyph unicode="H" horiz-adv-x="519" d="M408 0v334h-298v-334h-44v696h44v-321h298v321h46v-696h-46z" />
<glyph unicode="I" horiz-adv-x="194" d="M74 0v696h45v-696h-45z" />
<glyph unicode="J" horiz-adv-x="385" d="M316 169q0 -45 -14 -77.5t-38.5 -54.5t-58 -32.5t-72.5 -10.5q-31 0 -64.5 10.5t-56.5 32.5l30 33q41 -34 89 -34q28 0 53.5 6.5t44.5 23t30 44t11 68.5v518h46v-527z" />
<glyph unicode="K" horiz-adv-x="501" d="M110 260q73 110 146 218t146 218h50l-180 -269l213 -427h-49l-192 387l-135 -198v-189h-45v696h45v-436h1v0z" />
<glyph unicode="L" horiz-adv-x="431" d="M66 0v696h44v-653h303v-43h-347z" />
<glyph unicode="M" horiz-adv-x="637" d="M426 342l-89 -206h-35l-89 206l-102 244h-3v-586h-44v696h46q28 -66 56 -131.5t57 -131.5l96 -228h2l98 229l113 262h44v-696h-44v590h-1z" />
<glyph unicode="N" horiz-adv-x="547" d="M110 0h-45v696h44l201 -365l126 -231h3v596h44v-696h-45q-50 92 -100 183.5t-101 184.5q-32 57 -63 114.5t-63 115.5h-1v-598z" />
<glyph unicode="O" horiz-adv-x="485" d="M439 193q0 -43 -14 -79.5t-39.5 -63.5t-62 -42t-80.5 -15q-48 0 -85 15.5t-62.5 42.5t-38.5 64.5t-13 81.5v309q0 40 13 76t38.5 62t62.5 41.5t85 15.5q45 0 81 -14.5t61.5 -40.5t39.5 -62t14 -78v-313zM394 504q0 31 -10 59t-29.5 49.5t-47.5 34t-64 12.5 q-37 0 -66 -12.5t-48.5 -33.5t-29.5 -49t-10 -60v-309q0 -71 40.5 -115.5t113.5 -44.5q34 0 61.5 12.5t47.5 33.5t31 49.5t11 60.5v313z" />
<glyph unicode="P" horiz-adv-x="471" d="M454 497q0 -40 -10.5 -76t-33.5 -63.5t-59.5 -44t-88.5 -16.5h-151v-297h-45v696h192q95 0 145.5 -49.5t50.5 -149.5zM409 498q0 75 -38 116t-115 41h-145v-316h146q42 0 71 12t47 33.5t26 50.5t8 63z" />
<glyph unicode="Q" horiz-adv-x="493" d="M443 193q0 -34 -7.5 -62t-20.5 -51l78 -61l-24 -31q-4 3 -14.5 11.5t-23 18t-24 18.5t-17.5 14q-26 -28 -63 -42.5t-81 -14.5q-48 0 -85 15.5t-62.5 42.5t-38.5 64.5t-13 81.5v309q0 40 13 76t38.5 62t62.5 41.5t85 15.5q45 0 81.5 -14.5t62 -40.5t39.5 -62t14 -78v-313z M397 504q0 31 -10 59t-29.5 49.5t-47.5 34t-64 12.5q-37 0 -66 -12.5t-48.5 -33.5t-29.5 -49t-10 -60l1 -309q0 -71 40.5 -115.5t113.5 -44.5q67 0 107 43l-85 67l26 30l83 -66q19 36 19 82v313z" />
<glyph unicode="R" horiz-adv-x="491" d="M267 696q94 0 140.5 -48.5t46.5 -134.5q0 -72 -34.5 -121t-103.5 -65q34 -79 70 -163.5t71 -163.5h-52q-34 81 -67.5 161t-66.5 161q-14 -1 -28.5 -1h-29.5h-102v-321h-45v696h201zM111 655v-295h146q72 0 111.5 37.5t39.5 114.5q0 72 -39 107.5t-111 35.5h-147z" />
<glyph unicode="S" horiz-adv-x="463" d="M429 181q0 -86 -50 -136.5t-149 -50.5q-77 0 -125.5 29.5t-74.5 80.5l39 23q22 -38 61.5 -64.5t100.5 -26.5q76 0 113 40t37 105q0 37 -10.5 62t-29.5 42t-46.5 28.5t-61.5 22.5q-49 15 -84.5 31t-58.5 37t-34 49t-11 67q0 40 12.5 73.5t36.5 57.5t59 37.5t80 13.5 q75 0 115.5 -22.5t66.5 -62.5l-40 -27q-20 34 -54 52t-89 18q-68 0 -104.5 -40t-36.5 -100q0 -32 11.5 -54t32 -38t50 -28t65.5 -24q45 -14 78.5 -30t56 -37.5t33.5 -52.5t11 -75z" />
<glyph unicode="T" horiz-adv-x="399" d="M222 655v-655h-44v655h-172v41h386v-41h-170z" />
<glyph unicode="U" horiz-adv-x="500" d="M447 696v-511q0 -46 -15.5 -81.5t-42.5 -60t-63 -37t-76 -12.5q-41 0 -77 13t-62.5 38t-42 61t-15.5 82v508h44v-505q0 -35 12 -63.5t32.5 -48.5t48.5 -31.5t60 -11.5q31 0 59 10t48.5 29.5t32.5 47.5t12 65v508h45z" />
<glyph unicode="V" horiz-adv-x="453" d="M392 696h46q-48 -175 -95 -348t-95 -348h-47l-189 696h46l131 -495l35 -135h1q8 35 16.5 68t16.5 67z" />
<glyph unicode="W" horiz-adv-x="695" d="M346 604q-11 -47 -21.5 -93t-21.5 -93l-96 -418h-47q-36 175 -71.5 348t-72.5 348h45q5 -27 15 -75.5t22 -107.5t24.5 -124t24.5 -124.5t21.5 -109t14.5 -78.5h3q15 68 29.5 130t31.5 135l82 354h39l96 -418l47 -201h2l39 201q6 29 13.5 65.5t15 76.5t15 80.5t14.5 77.5 t13 67.5t11 50.5h46l-144 -696h-47l-97 418q-11 47 -22 93t-22 93h-2z" />
<glyph unicode="X" horiz-adv-x="424" d="M365 0l-153 311l-154 -311h-49l179 356l-170 339h49l145 -296l144 296h49l-170 -339l180 -356h-50z" />
<glyph unicode="Y" horiz-adv-x="413" d="M206 341l60 145q5 12 18 41.5t27 63t27 63.5t18 42h46l-176 -406v-290h-43v290l-176 406h47l90 -211z" />
<glyph unicode="Z" horiz-adv-x="396" d="M23 0v41l302 614h-285v41h332v-40l-301 -614h296v-42h-344z" />
<glyph unicode="[" horiz-adv-x="216" d="M69 -108v805h128v-32h-88v-741h88v-32h-128z" />
<glyph unicode="\" horiz-adv-x="254" d="M2 721h36l209 -757h-36z" />
<glyph unicode="]" horiz-adv-x="216" d="M37 -109v33h87v741h-87v32h127v-806h-127z" />
<glyph unicode="^" horiz-adv-x="410" d="M27 354l161 339h35l161 -338h-39l-140 297q-4 -9 -14.5 -32t-24.5 -53t-30 -63.5t-30 -63.5t-24.5 -53.5t-14.5 -32.5h-40z" />
<glyph unicode="_" horiz-adv-x="497" d="M0 -113v37h497v-37h-497z" />
<glyph unicode="`" horiz-adv-x="412" d="M270 560l-94 145l48 18l72 -152z" />
<glyph unicode="a" horiz-adv-x="409" d="M315 47q-23 -33 -61 -43.5t-77 -10.5q-69 0 -107.5 38t-38.5 101q0 30 9 57.5t28 47.5t48.5 32t70.5 12h131v76q0 47 -27 74t-84 27q-39 0 -69.5 -13t-48.5 -38q-5 3 -17 11.5t-17 11.5q24 32 60 50.5t92 18.5q33 0 61.5 -6.5t49 -23t32.5 -44t12 -69.5v-356h-44v47h-3z M318 242h-129q-50 0 -83 -25.5t-33 -81.5q0 -45 29.5 -73.5t86.5 -28.5q23 0 46 5t41.5 17t30 31t11.5 47v109z" />
<glyph unicode="b" horiz-adv-x="407" d="M208 456q-41 0 -65 -20.5t-37 -51.5t-17 -67.5t-4 -68.5q0 -33 2.5 -71t14.5 -70t36.5 -53t68.5 -21q39 0 63.5 16t37.5 44.5t17.5 66.5t4.5 83q0 41 -3 79.5t-15 68t-36.5 47.5t-67.5 18zM88 67q-1 0 -1 -0.5t-1 -0.5v-66h-44v723h44v-307h2q16 31 47 56t84 25t84 -21 t46.5 -55.5t20 -79t4.5 -92.5q0 -49 -5 -95t-21.5 -81.5t-47.5 -57t-84 -21.5q-38 0 -71.5 15t-56.5 58z" />
<glyph unicode="c" horiz-adv-x="372" d="M209 -6q-56 0 -90.5 20t-53 55t-25 81t-6.5 99q0 50 7.5 95t27.5 79.5t55 54.5t89 20q52 0 87.5 -22t52.5 -64q-10 -6 -19 -11t-19 -10q-11 30 -37.5 48.5t-64.5 18.5q-45 0 -71.5 -18t-41 -47.5t-19 -67t-4.5 -76.5q0 -38 4.5 -76.5t18.5 -69.5t40.5 -50.5t70.5 -19.5 q38 0 64.5 18t37.5 47q9 -5 18.5 -9.5t19.5 -9.5q-17 -42 -54 -63.5t-88 -21.5z" />
<glyph unicode="d" horiz-adv-x="407" d="M317 67q-23 -42 -56.5 -58t-71.5 -16q-53 0 -84 21t-47.5 55.5t-21.5 80t-5 93.5t5 94t22 81.5t49.5 57.5t86.5 22q45 0 74 -19t49 -49h2v294h44v-724h-44v67h-2zM201 457q-43 0 -68 -19t-38 -49.5t-16.5 -69t-3.5 -77.5q0 -43 4.5 -81t17.5 -66.5t37.5 -45t63.5 -16.5 q44 0 68.5 21.5t36 54t14 70.5t2.5 70q0 35 -3.5 71.5t-15.5 66.5t-35.5 49.5t-63.5 20.5z" />
<glyph unicode="e" horiz-adv-x="408" d="M359 81q-17 -42 -56 -65t-87 -23q-55 0 -90 17.5t-55 51t-27.5 82t-7.5 110.5q0 46 7 90.5t26 78.5t52.5 55t86.5 21q49 0 81 -17t51 -46.5t26.5 -68t7.5 -81.5v-46h-294q0 -49 6 -87.5t21 -65.5t41 -41t66 -14q36 0 66 19t41 48zM329 279q0 36 -4.5 68t-18 57t-37 39.5 t-61.5 14.5t-62 -15t-38.5 -40t-20 -58t-6.5 -69h248v3z" />
<glyph unicode="f" horiz-adv-x="227" d="M123 457v-457h-44v457h-57v36h57v117q0 60 26 87.5t76 27.5h42v-40h-40q-21 0 -33 -6.5t-18 -18t-7.5 -26t-1.5 -29.5v-112h98v-36h-98z" />
<glyph unicode="g" horiz-adv-x="427" d="M372 -19q0 -90 -43 -140t-129 -50q-45 0 -80.5 21t-53.5 63q5 3 18.5 9.5t18.5 10.5q13 -26 37 -45t61 -19q67 0 97 40t30 103v102h-2q-17 -32 -47.5 -57t-83.5 -25t-84 21t-46.5 55.5t-20 79t-4.5 92.5t4.5 94t21 82.5t47.5 58.5t85 22q38 0 71.5 -15.5t56.5 -58.5l2 1 v66h44v-511zM205 35q40 0 64.5 20t37.5 51t17 68t4 70t-2.5 71t-14 70t-36 53t-68.5 21q-40 0 -64.5 -16.5t-37.5 -45t-17 -67t-4 -82.5q0 -41 3 -79t15 -68t36 -48t67 -18z" />
<glyph unicode="h" horiz-adv-x="433" d="M336 0v334q0 57 -27 89.5t-84 32.5q-28 0 -51.5 -10t-41 -28t-27 -42.5t-9.5 -52.5v-323h-42v725h43v-301h2q21 38 57 56.5t75 18.5q72 0 110.5 -41.5t38.5 -109.5v-348h-44z" />
<glyph unicode="i" horiz-adv-x="177" d="M65 628v49h47v-49h-47zM67 0v493h43v-493h-43z" />
<glyph unicode="j" horiz-adv-x="184" d="M117 -92q0 -50 -22.5 -81t-71.5 -31h-31v38h22q34 1 46 24t12 59v575h45v-584zM71 628v48h48v-48h-48z" />
<glyph unicode="k" horiz-adv-x="413" d="M207 276l-108 -143v-133h-42v724h42v-525h1l222 293h50l-137 -181l172 -311h-48z" />
<glyph unicode="l" horiz-adv-x="194" d="M160 -3q-23 0 -41.5 4.5t-31.5 15.5t-20 31t-7 50v626h43v-615q0 -36 12 -54.5t47 -18.5h19v-39h-21z" />
<glyph unicode="m" horiz-adv-x="715" d="M366 413q23 40 58.5 62t82.5 22q72 0 110 -41.5t38 -108.5v-347h-44v324q0 62 -28.5 96.5t-85.5 34.5q-58 0 -89 -40.5t-31 -100.5v-314h-43v324q0 61 -28.5 96t-86.5 35t-88.5 -41t-30.5 -101v-313h-42v491h42v-67h2q21 38 55 55.5t72 17.5q54 0 88.5 -23t48.5 -61z" />
<glyph unicode="n" horiz-adv-x="430" d="M334 0v334q0 57 -26.5 89.5t-83.5 32.5q-28 0 -51.5 -10t-41 -28t-27 -42.5t-9.5 -52.5v-323h-44v493h44v-68h2q21 38 57 56t74 18q72 0 111 -41.5t39 -109.5v-348h-44z" />
<glyph unicode="o" horiz-adv-x="419" d="M211 499q45 0 76 -15.5t51 -41.5q23 -27 31.5 -77t8.5 -120q0 -45 -4 -88.5t-15 -71.5q-19 -49 -58.5 -70t-94.5 -21q-42 0 -71 12.5t-48 35.5q-26 27 -36.5 77.5t-10.5 124.5q0 49 3.5 88.5t13.5 68.5q18 50 58.5 74t95.5 24zM210 459q-35 0 -63 -15t-44 -45 q-12 -23 -15.5 -63t-4.5 -96q0 -69 9 -109t29 -62q29 -37 88 -37q36 0 66.5 18t44.5 55q10 25 12.5 62.5t1.5 81.5q0 108 -19 146q-14 32 -41.5 48t-63.5 16z" />
<glyph unicode="p" horiz-adv-x="421" d="M92 425q23 43 57 58.5t72 15.5q53 0 84.5 -21t47.5 -55.5t20.5 -80t4.5 -93.5t-5 -93.5t-22.5 -81.5t-49.5 -58t-86 -22q-45 0 -73.5 19t-49.5 50h-2v-266h-43v695h43v-66zM208 35q43 0 68 18.5t37.5 48.5t16 68.5t3.5 77.5q0 43 -3.5 81.5t-16.5 67t-37 45t-65 16.5 q-44 0 -68.5 -21t-36 -52.5t-14 -69.5t-2.5 -71q0 -34 3 -70.5t15 -67t35.5 -50.5t64.5 -21z" />
<glyph unicode="q" horiz-adv-x="426" d="M205 35q40 0 64.5 20.5t37.5 51.5t17 67.5t4 68.5q0 34 -2.5 72t-14.5 70t-36.5 53t-68.5 21q-39 0 -63 -16.5t-37 -45.5t-17.5 -67.5t-4.5 -81.5q0 -39 2.5 -77t14.5 -68.5t36 -49t68 -18.5zM327 425v67h44v-695h-44v279h-2q-17 -32 -47.5 -56.5t-83.5 -24.5t-84 20.5 t-47 55t-20.5 79t-4.5 92.5t5 94t21.5 82t48 58t84.5 22q42 0 73.5 -15.5t54.5 -57.5h2z" />
<glyph unicode="r" horiz-adv-x="287" d="M109 416q20 47 54.5 65t76.5 18q26 0 47 -6l-10 -47q-11 5 -22.5 6.5t-22.5 1.5q-57 0 -91.5 -38t-34.5 -106v-310h-42v493h42v-77h3z" />
<glyph unicode="s" horiz-adv-x="391" d="M64 104q34 -72 131 -72q49 0 83 24t34 76q0 26 -8.5 42.5t-24 28t-37 18.5t-47.5 14q-35 9 -63.5 19.5t-49 25.5t-32 36t-11.5 51q0 61 41 96.5t114 35.5q117 0 151 -81l-37 -20q-15 32 -44 46.5t-71 14.5q-54 0 -81.5 -26t-27.5 -66q0 -23 9.5 -37.5t27 -25t41 -17.5 t50.5 -14q35 -8 62 -18.5t45.5 -27t28 -39.5t9.5 -57q0 -30 -10 -55t-30.5 -43.5t-52 -29t-73.5 -10.5q-60 0 -101 21t-64 69z" />
<glyph unicode="t" horiz-adv-x="238" d="M180 0q-50 0 -74.5 27.5t-24.5 80.5v348h-62v36h62v135h44v-135h83v-36h-83v-338q0 -36 12 -58t53 -22h27v-38h-37z" />
<glyph unicode="u" horiz-adv-x="438" d="M338 0v68h-3q-21 -39 -57 -56.5t-74 -17.5q-72 0 -111 41.5t-39 108.5v349h44v-334q0 -57 30.5 -90.5t86.5 -33.5q28 0 50.5 10.5t38.5 28.5t25 42.5t9 53.5v323h42v-493h-42z" />
<glyph unicode="v" horiz-adv-x="372" d="M362 492q-17 -51 -37 -115.5t-40.5 -131t-40.5 -130.5t-36 -115h-45q-17 51 -37 115t-40 130.5t-40 131t-37 115.5h47l76 -250l53 -177h3q5 18 12 41.5t14 47.5t13.5 47t12.5 41q9 27 18.5 59.5t19 65.5t19 65.5t17.5 59.5h48v0z" />
<glyph unicode="w" horiz-adv-x="614" d="M471 0h-44l-74 258q-2 7 -8.5 29.5t-14 49t-14.5 49t-9 29.5h-1l-45 -162l-73 -253h-44l-135 492h46q4 -17 13 -51.5t20.5 -77t23.5 -88.5t22.5 -87.5t19 -73t11.5 -44.5h3q11 39 21.5 77.5t21.5 76.5l8 28t13.5 48t16 58t16.5 58t13.5 47.5t7.5 28.5h44q19 -67 37 -133 t36 -133q11 -39 22 -78.5t22 -78.5h2l42 156q17 67 34 133.5t35 133.5h46z" />
<glyph unicode="x" horiz-adv-x="367" d="M301 0l-118 220l-117 -220h-49l140 253l-132 239h49l109 -208l110 208h50l-134 -240l141 -252h-49z" />
<glyph unicode="y" horiz-adv-x="366" d="M185 66q3 12 13 44.5t23.5 76t28 92t28 91.5t23 76t13.5 45h46q-47 -152 -93 -301.5t-94 -300.5q-14 -48 -39 -71t-68 -23h-20v38h16q32 0 48 21.5t27 58.5l27 87q-41 123 -79 245t-79 246h47l68 -217l62 -208h2z" />
<glyph unicode="z" horiz-adv-x="351" d="M25 0v38l253 416h-236v38h285v-37l-252 -416h249v-39h-299z" />
<glyph unicode="{" horiz-adv-x="223" d="M94 133q0 65 -12 100.5t-54 46.5v28q22 6 35 21t20 36t9.5 45t2.5 47v117q0 53 18 87.5t62 34.5h37v-31h-25q-18 0 -28.5 -9t-16 -23t-7 -30.5t-1.5 -30.5v-134q0 -59 -19.5 -95.5t-40.5 -47.5v-1q29 -11 44.5 -50.5t15.5 -105.5v-124q0 -14 2 -29.5t7.5 -29t16 -22.5 t27.5 -9h25v-32h-37q-38 0 -59.5 28t-21.5 75v138v0z" />
<glyph unicode="|" horiz-adv-x="175" d="M73 -162v878h36v-878h-36z" />
<glyph unicode="}" horiz-adv-x="223" d="M142 -5q0 -51 -25 -77t-64 -26h-28v32h25q17 0 27.5 9t16 22.5t7.5 29t2 29.5v144q0 58 16.5 92.5t42.5 44.5v1q-22 11 -40.5 47t-18.5 95v134q0 14 -2 30.5t-7.5 30.5t-16 23t-27.5 9h-25v30h28q42 0 65 -26.5t23 -75.5v-136q0 -24 2 -48t9.5 -44.5t20.5 -35.5t36 -21 v-28q-43 -11 -55 -46.5t-12 -100.5v-138z" />
<glyph unicode="~" horiz-adv-x="410" d="M381 274q-19 -31 -42 -46.5t-54 -15.5q-18 0 -37.5 7.5t-40 16.5t-40.5 16.5t-39 7.5q-21 0 -37 -9.5t-33 -29.5l-28 21q19 27 44.5 42.5t54.5 15.5q21 0 42 -7.5t41 -16.5t38.5 -16.5t35.5 -7.5q20 0 34 10t32 33l29 -21v0z" />
<glyph unicode="&#xa1;" horiz-adv-x="206" d="M119 381q0 -29 1 -70.5t1 -89.5t1 -100t1 -100t0.5 -90t1.5 -70h-45q0 28 0.5 70t1 90t1 100t1 100t1 89.5t1.5 70.5h33zM129 556v-55h-51v55h51z" />
<glyph unicode="&#xa2;" horiz-adv-x="410" d="M197 -110v105q-48 4 -78 25.5t-46.5 55.5t-22.5 78.5t-6 94.5q0 46 6.5 89t24 76.5t47 55t75.5 26.5v98h31v-96q50 -1 84 -23t51 -63q-9 -6 -18.5 -11t-18.5 -10q-11 29 -37 47t-61 20v-425q35 2 59.5 19.5t35.5 45.5q10 -5 19.5 -9.5t19.5 -9.5q-17 -40 -51.5 -61.5 t-82.5 -23.5v-104h-31zM88 249q0 -36 3.5 -71.5t15 -65.5t33 -50.5t57.5 -26.5v421q-36 -6 -57.5 -25.5t-33 -48t-15 -63.5t-3.5 -70z" />
<glyph unicode="&#xa3;" horiz-adv-x="410" d="M209 701q61 0 105.5 -28t61.5 -91q-22 -10 -40 -15q-17 51 -49.5 72.5t-77.5 21.5q-21 0 -41.5 -7t-36 -21.5t-25 -36.5t-9.5 -52q0 -23 5 -44.5t12.5 -45t15 -49.5t12.5 -57h129v-35h-126q1 -10 1 -19.5v-19.5q-2 -68 -18 -124t-48 -110h294v-40h-344v38q35 54 54.5 114 t19.5 134q0 7 -0.5 13.5t-1.5 13.5h-74v35h69q-5 27 -12.5 52.5t-15 50t-13 48t-5.5 45.5q0 33 10 61.5t30 49.5t49.5 33.5t68.5 12.5z" />
<glyph unicode="&#xa4;" horiz-adv-x="514" d="M70 490l4.5 4.5t9.5 9t9 9t5 4.5l58 -57q49 38 109 38q57 0 108 -37l57 57l27 -28l-57 -57q20 -25 30.5 -52.5t10.5 -56.5q0 -60 -39 -110l57 -57q0 -1 -4.5 -5t-9.5 -9t-9 -9.5t-5 -4.5l-57 57q-48 -39 -109 -39t-111 41l-58 -58l-4.5 4.5l-9.5 9.5t-9 9.5l-4 4.5l58 58 q-19 23 -28 50.5t-9 56.5q0 60 38 109zM131 324q0 -28 10.5 -52.5t28.5 -43t42.5 -29t52.5 -10.5t52.5 10.5t43 28.5t29 42.5t10.5 52.5t-10.5 52.5t-28.5 43t-42.5 29t-52.5 10.5t-52.5 -10.5t-43 -28.5t-29 -42.5t-10.5 -52.5z" />
<glyph unicode="&#xa5;" horiz-adv-x="410" d="M244 330h129v-31h-140l-7 -27v-52h147v-32h-147v-188h-42v188h-142v32h142v51q-1 6 -2.5 14t-3.5 14h-136v31h124l-150 366h44q3 -9 14 -36t26 -64t32 -78t32 -77.5t26 -64t14 -35.5h2q3 8 14 35.5t25.5 64t31.5 77.5t31.5 78t25.5 64t14 36h46z" />
<glyph unicode="&#xa6;" horiz-adv-x="175" d="M73 303v413h34v-413h-34zM107 251v-413h-34v413h34z" />
<glyph unicode="&#xa7;" horiz-adv-x="430" d="M388 285q0 -33 -17 -63.5t-48 -54.5q45 -48 45 -102q0 -63 -45.5 -102.5t-124.5 -39.5q-39 0 -78.5 15t-67.5 39l26 28q28 -23 58 -33.5t62 -10.5q57 0 92.5 25.5t35.5 76.5q0 44 -35.5 75t-99.5 60q-36 16 -63 32t-44 33.5t-25.5 38t-8.5 47.5q0 35 19 64.5t50 51.5 q-50 41 -50 99q0 61 40.5 99.5t107.5 38.5q83 0 142 -49l-27 -32q-28 23 -55.5 33t-60.5 10q-49 0 -76.5 -28t-27.5 -68q0 -19 7 -33.5t20.5 -26.5t32.5 -23.5t43 -24.5q30 -16 61 -31t55.5 -34.5t40.5 -45.5t16 -64zM347 284q0 30 -14.5 50.5t-40 37t-61 32.5t-77.5 38 q-26 -14 -44.5 -37.5t-18.5 -53.5q0 -24 11.5 -42t29.5 -31.5t39 -24.5t40 -20l42 -20t38 -20q25 15 40.5 39.5t15.5 50.5v1z" />
<glyph unicode="&#xa8;" horiz-adv-x="412" d="M267 597v51h48v-51h-48zM99 597v51h49v-51h-49z" />
<glyph unicode="&#xa9;" horiz-adv-x="742" d="M496 216q-10 -42 -43 -65.5t-76 -23.5q-59 0 -92.5 35.5t-33.5 92.5v163q0 55 34 91t92 36q43 0 75.5 -22.5t42.5 -65.5l-34 -12q-7 29 -29 47.5t-55 18.5q-44 0 -67 -27t-23 -64v-167q0 -38 23 -65t67 -27q32 0 54 18t29 49zM376 -9q-74 0 -133.5 26.5t-101.5 73.5 t-64.5 111t-22.5 139t23 139.5t65 112t101.5 74t132.5 26.5t132.5 -26.5t101.5 -74t65 -112t23 -139.5t-23 -139t-65 -111t-101.5 -73.5t-132.5 -26.5zM376 659q-66 0 -118.5 -25t-89.5 -68t-57 -101t-20 -124q0 -67 20.5 -125t58 -100.5t90 -67t116.5 -24.5t117 24.5t90 67 t57.5 100.5t20.5 125t-20.5 125.5t-58 101t-90 67t-116.5 24.5z" />
<glyph unicode="&#xaa;" horiz-adv-x="282" d="M140 607q25 0 45.5 -4.5t35.5 -15.5t23.5 -29.5t8.5 -46.5v-233h-38v32q-17 -20 -42 -28t-51 -8q-50 0 -77 26t-27 68q0 40 24.5 69t80.5 29h92v44q0 29 -16 46t-60 17q-23 0 -42.5 -9t-33.5 -27l-31 19q17 24 43.5 37.5t64.5 13.5zM55 368q0 -27 19 -44t56 -17 q15 0 30 3.5t27.5 11.5t20 20t7.5 29v63h-84q-34 0 -55 -15.5t-21 -50.5z" />
<glyph unicode="&#xab;" horiz-adv-x="373" d="M290 46l-111 179l112 179h44l-110 -179l110 -179h-45zM162 46l-112 179l112 179h44l-110 -179l110 -179h-44z" />
<glyph unicode="&#xac;" horiz-adv-x="410" d="M387 92h-36v176h-330v37h367z" />
<glyph unicode="&#xad;" horiz-adv-x="346" d="M52 249v40h248v-40h-248z" />
<glyph unicode="&#xae;" horiz-adv-x="516" d="M315 364l-48 111h-48v-111h-28v253h75q35 0 56 -17.5t21 -53.5q0 -23 -12 -42t-35 -27q13 -27 25.5 -56t24.5 -57h-31zM314 546q0 26 -16 35.5t-42 9.5h-37v-93h47q6 0 10 1q38 5 38 47zM260 278q-44 0 -80.5 16t-62.5 44.5t-40 67.5t-14 85t14 85.5t40 68t62 45t81 16.5 q44 0 80 -16.5t61.5 -45t39.5 -68t14 -85.5t-14 -85t-40 -67.5t-62 -44.5t-79 -16zM260 682q-39 0 -70.5 -15t-53 -40.5t-33.5 -60t-12 -74.5q0 -41 12 -75.5t34 -60t53.5 -39.5t69.5 -14q39 0 70 14.5t52.5 40t33 60t11.5 74.5t-12 74.5t-33.5 60t-52.5 40.5t-69 15z" />
<glyph unicode="&#xaf;" horiz-adv-x="409" d="M103 589v41h228v-41h-228z" />
<glyph unicode="&#xb0;" horiz-adv-x="322" d="M271 590q0 -23 -8.5 -42.5t-23 -34t-34 -23t-42.5 -8.5q-22 0 -41.5 8.5t-34 23t-23 34t-8.5 42.5q0 22 8.5 42t23 34t34 22.5t41.5 8.5q23 0 42.5 -8.5t34 -22.5t23 -34t8.5 -42zM239 590q0 32 -22 54.5t-54 22.5q-31 0 -53 -22.5t-22 -54.5t22 -54.5t53 -22.5 q32 0 54 21.5t22 55.5z" />
<glyph unicode="&#xb1;" horiz-adv-x="410" d="M223 273v-173h-36v173h-164v37h164v172h36v-172h165v-37h-165zM23 20v37h365v-37h-365z" />
<glyph unicode="&#xb2;" horiz-adv-x="260" d="M20 370v32l156 223q14 18 18 34t4 33q0 26 -16.5 45t-52.5 19q-26 0 -45.5 -16.5t-23.5 -47.5l-38 6q5 42 35 66.5t73 24.5q53 0 80 -26.5t27 -69.5q0 -46 -30 -88l-142 -200h168v-35h-213z" />
<glyph unicode="&#xb3;" horiz-adv-x="258" d="M126 788q58 0 82 -31t24 -76q0 -11 -1.5 -24.5t-6 -26.5t-14 -25t-24.5 -19q17 -8 27 -19.5t15 -25.5t6 -29t1 -30q0 -24 -6 -45.5t-19.5 -37.5t-35.5 -25.5t-53 -9.5q-38 0 -66 19.5t-35 66.5l38 4q3 -26 19 -41.5t46 -15.5q42 0 58 25t16 64q0 40 -17.5 61.5 t-49.5 21.5h-28v33h26q31 0 48.5 19t17.5 54q0 33 -14.5 56t-54.5 23q-26 0 -44 -15t-23 -41l-37 6q7 37 34 60.5t71 23.5z" />
<glyph unicode="&#xb4;" horiz-adv-x="412" d="M176 571l73 152l47 -18l-94 -145z" />
<glyph unicode="&#xb6;" horiz-adv-x="451" d="M242 682v-763h-42v440q-39 1 -70.5 14.5t-53 37.5t-33.5 57t-12 72q0 34 8 67t28 59t53 42t83 16h217v-42h-53v-763h-43v763h-82z" />
<glyph unicode="&#xb7;" horiz-adv-x="155" d="M50 234v61h56v-61h-56z" />
<glyph unicode="&#xb8;" horiz-adv-x="422" d="M198 11q7 0 14 -0.5t14 -0.5l-19 -63q25 -1 42 -9t27 -19t14 -23.5t4 -22.5q0 -12 -4.5 -24.5t-15 -23t-26.5 -17t-38 -6.5q-12 0 -33 2t-44 12l10 25q17 -7 33.5 -9.5t29.5 -2.5q20 0 36 10t16 34q0 20 -14 33t-38 13h-5.5t-8.5 -1l-18 14l24 79v0z" />
<glyph unicode="&#xb9;" horiz-adv-x="209" d="M144 370h-37v376l-68 -42v40l70 43h35v-417z" />
<glyph unicode="&#xba;" horiz-adv-x="289" d="M146 607q39 0 63.5 -15.5t37.5 -38.5q10 -17 13.5 -45t3.5 -68q0 -32 -3 -54.5t-9 -42.5q-11 -35 -40.5 -52.5t-67.5 -17.5q-37 0 -60 12.5t-36 32.5q-14 23 -19 54.5t-5 66.5q0 39 5.5 69t21.5 52q16 21 38 34t57 13zM145 573q-20 0 -36.5 -7.5t-27.5 -23.5 q-20 -28 -20 -105q0 -42 5.5 -64.5t14.5 -35.5q19 -30 63 -30q51 0 71 39q13 26 13 95q0 36 -4 58t-9 33q-18 41 -70 41z" />
<glyph unicode="&#xbb;" horiz-adv-x="373" d="M50 46l110 179l-110 179h44l113 -179l-112 -179h-45zM180 46l110 179l-110 179h44l112 -179l-112 -179h-44z" />
<glyph unicode="&#xbc;" horiz-adv-x="600" d="M512 67v-67h-37v67h-168v31l129 319h40l-129 -316h128v120h37v-120h38v-34h-38zM110 -17h-35l368 731h36zM155 278h-37v376l-68 -42v40l70 43h35v-417z" />
<glyph unicode="&#xbd;" horiz-adv-x="600" d="M342 0v31l156 223q14 19 18 35t4 33q0 26 -16.5 45t-52.5 19q-26 0 -45.5 -16.5t-23.5 -47.5l-38 6q5 42 35 66.5t73 24.5q53 0 80 -27t27 -70q0 -45 -30 -87l-142 -201h168v-34h-213zM97 -17h-35l368 731h36zM145 278h-37v376l-68 -42v40l70 43h35v-417z" />
<glyph unicode="&#xbe;" horiz-adv-x="600" d="M130 698q58 0 82 -31t24 -76q0 -11 -1.5 -24.5t-6 -26.5t-14 -25t-24.5 -19q17 -8 27 -19.5t15 -25.5t6 -29t1 -30q0 -24 -6 -45.5t-19.5 -37.5t-35.5 -25.5t-53 -9.5q-38 0 -66 19.5t-35 66.5l38 4q3 -26 19 -41.5t46 -15.5q42 0 58 25t16 64q0 40 -17.5 61.5 t-49.5 21.5h-28v33h26q31 0 48.5 19t17.5 54q0 33 -14.5 56t-54.5 23q-26 0 -44 -15t-23 -41l-37 6q7 37 34 60.5t71 23.5zM538 67v-67h-37v67h-168v31l129 319h40l-129 -316h128v120h37v-120h38v-34h-38zM148 -17h-35l368 731h36z" />
<glyph unicode="&#xbf;" horiz-adv-x="394" d="M224 -212q-41 0 -72 12.5t-51.5 34.5t-31 52.5t-10.5 65.5q0 33 10 61t25.5 53t33 48t33 46t25.5 46.5t10 50.5v70h44v-68q0 -44 -21.5 -81.5t-47 -73.5t-47 -72t-21.5 -75q0 -22 5.5 -45t20 -41.5t38.5 -30t60 -11.5q26 0 48 10t38.5 27t26 39t11.5 46q11 -2 22 -3.5 t22 -3.5q-6 -38 -21 -67t-37.5 -49t-51.5 -30.5t-61 -10.5zM244 488v-55h-52v55h52z" />
<glyph unicode="&#xc0;" horiz-adv-x="481" d="M422 0q-4 15 -10.5 39t-14 49t-14.5 49t-11 39h-264l-50 -176h-46l203 696h50l204 -696h-47zM288 467l-47 170h-3q-56 -201 -120 -420h243zM238 731l-148 93l35 38l133 -108z" />
<glyph unicode="&#xc1;" horiz-adv-x="481" d="M422 0q-4 15 -10.5 39t-14 49t-14.5 49t-11 39h-264l-50 -176h-46l203 696h50l204 -696h-47zM288 467l-47 170h-3q-56 -201 -120 -420h243zM209 749l131 107l35 -37l-147 -91z" />
<glyph unicode="&#xc2;" horiz-adv-x="481" d="M422 0q-4 15 -10.5 39t-14 49t-14.5 49t-11 39h-264l-50 -176h-46l203 696h50l204 -696h-47zM288 467l-47 170h-3q-56 -201 -120 -420h243zM240 812l-120 -80l-18 19l123 105h34l118 -104l-18 -20z" />
<glyph unicode="&#xc3;" horiz-adv-x="481" d="M422 0q-4 15 -10.5 39t-14 49t-14.5 49t-11 39h-264l-50 -176h-46l203 696h50l204 -696h-47zM288 467l-47 170h-3q-56 -201 -120 -420h243zM180 838q15 0 30.5 -6.5t30.5 -14t30 -13.5t29 -6q28 0 53 40l27 -16q-16 -33 -36.5 -48t-43.5 -15q-15 0 -30.5 6t-30.5 13.5 t-30 14t-29 6.5q-15 0 -28.5 -10t-27.5 -27l-26 16q16 28 37.5 44t44.5 16z" />
<glyph unicode="&#xc4;" horiz-adv-x="481" d="M422 0q-4 15 -10.5 39t-14 49t-14.5 49t-11 39h-264l-50 -176h-46l203 696h50l204 -696h-47zM288 467l-47 170h-3q-56 -201 -120 -420h243zM295 747v51h48v-51h-48zM132 747v51h49v-51h-49z" />
<glyph unicode="&#xc5;" horiz-adv-x="481" d="M422 0q-4 15 -10.5 39t-14 49t-14.5 49t-11 39h-264l-50 -176h-46l203 696h50l204 -696h-47zM288 467l-47 170h-3q-56 -201 -120 -420h243zM236 722q-35 0 -59 24.5t-24 57.5q0 18 6.5 33t17.5 26.5t26.5 18t32.5 6.5t32 -6.5t26 -18t17.5 -26.5t6.5 -33q0 -33 -24 -57.5 t-58 -24.5zM236 861q-23 0 -40 -16.5t-17 -40.5q0 -23 17 -39t40 -16t39.5 16t16.5 39q0 24 -16.5 40.5t-39.5 16.5z" />
<glyph unicode="&#xc6;" horiz-adv-x="772" d="M392 187h-242l-99 -187h-48q91 175 182 348t183 348h377v-42h-308v-279h266v-40h-266v-293h308v-42h-353v187zM171 228h221v424h-1z" />
<glyph unicode="&#xc7;" horiz-adv-x="457" d="M432 132q-7 -33 -23 -58.5t-39 -42.5t-52 -26.5t-60 -10.5q-4 -11 -7 -23t-7 -24q25 -1 42 -9t27 -19t14 -23.5t4 -22.5q0 -12 -4.5 -24.5t-15 -23t-26.5 -17t-38 -6.5q-12 0 -33 2t-44 12l10 25q17 -7 33.5 -9.5t29.5 -2.5q20 0 36 10t16 34q0 20 -14 33t-38 13h-5.5 t-8.5 -1l-18 14l18 62q-84 5 -131.5 59t-47.5 139v313q0 43 14 79.5t39.5 62t62 40t81.5 14.5q67 0 117.5 -33.5t66.5 -98.5l-43 -15q-11 51 -48.5 78t-92.5 27q-72 0 -112.5 -43.5t-40.5 -110.5v-316q0 -33 10.5 -61.5t30.5 -49.5t48.5 -32.5t63.5 -11.5q54 0 92 28t51 83z " />
<glyph unicode="&#xc8;" horiz-adv-x="442" d="M66 0v696h353v-42h-309v-279h267v-40h-267v-292h309v-43h-353zM255 731l-148 93l35 38l133 -108z" />
<glyph unicode="&#xc9;" horiz-adv-x="442" d="M66 0v696h353v-42h-309v-279h267v-40h-267v-292h309v-43h-353zM180 749l131 107l35 -37l-147 -91z" />
<glyph unicode="&#xca;" horiz-adv-x="442" d="M66 0v696h353v-42h-309v-279h267v-40h-267v-292h309v-43h-353zM240 812l-120 -80l-18 19l123 105h34l118 -104l-18 -20z" />
<glyph unicode="&#xcb;" horiz-adv-x="442" d="M66 0v696h353v-42h-309v-279h267v-40h-267v-292h309v-43h-353zM304 767v51h48v-51h-48zM136 767v51h49v-51h-49z" />
<glyph unicode="&#xcc;" horiz-adv-x="194" d="M74 0v696h45v-696h-45zM102 731l-148 93l35 38l133 -108z" />
<glyph unicode="&#xcd;" horiz-adv-x="194" d="M74 0v696h45v-696h-45zM72 749l131 107l35 -37l-147 -91z" />
<glyph unicode="&#xce;" horiz-adv-x="194" d="M74 0v696h45v-696h-45zM96 812l-120 -80l-18 19l123 105h34l118 -104l-18 -20z" />
<glyph unicode="&#xcf;" horiz-adv-x="194" d="M74 0v696h45v-696h-45zM159 767v51h48v-51h-48zM-9 767v51h49v-51h-49z" />
<glyph unicode="&#xd0;" horiz-adv-x="506" d="M8 382h57v314h194q72 0 116 -27.5t65 -81.5q12 -35 14 -96t2 -137v-75q0 -54 -2 -95.5t-13 -70.5q-13 -33 -33 -55t-46 -35t-57 -18t-65 -5h-175v346h-57v36zM411 451q0 34 -2.5 60.5t-10.5 54.5q-12 41 -50.5 65t-100.5 24h-137v-273h141v-36h-141v-305h137 q113 0 148 83q8 18 12 44.5t4 49.5v233z" />
<glyph unicode="&#xd1;" horiz-adv-x="547" d="M110 0h-45v696h44l201 -365l126 -231h3v596h44v-696h-45q-50 92 -100 183.5t-101 184.5q-32 57 -63 114.5t-63 115.5h-1v-598zM215 827q15 0 30.5 -6.5t30.5 -14t30 -13.5t29 -6q28 0 53 40l27 -16q-16 -33 -36.5 -48t-43.5 -15q-15 0 -30.5 6t-30.5 13.5t-30 14t-29 6.5 q-15 0 -28.5 -10t-27.5 -27l-26 16q16 28 37.5 44t44.5 16z" />
<glyph unicode="&#xd2;" horiz-adv-x="485" d="M439 193q0 -43 -14 -79.5t-39.5 -63.5t-62 -42t-80.5 -15q-48 0 -85 15.5t-62.5 42.5t-38.5 64.5t-13 81.5v309q0 40 13 76t38.5 62t62.5 41.5t85 15.5q45 0 81 -14.5t61.5 -40.5t39.5 -62t14 -78v-313zM394 504q0 31 -10 59t-29.5 49.5t-47.5 34t-64 12.5 q-37 0 -66 -12.5t-48.5 -33.5t-29.5 -49t-10 -60v-309q0 -71 40.5 -115.5t113.5 -44.5q34 0 61.5 12.5t47.5 33.5t31 49.5t11 60.5v313zM276 731l-148 93l35 38l133 -108z" />
<glyph unicode="&#xd3;" horiz-adv-x="485" d="M439 193q0 -43 -14 -79.5t-39.5 -63.5t-62 -42t-80.5 -15q-48 0 -85 15.5t-62.5 42.5t-38.5 64.5t-13 81.5v309q0 40 13 76t38.5 62t62.5 41.5t85 15.5q45 0 81 -14.5t61.5 -40.5t39.5 -62t14 -78v-313zM394 504q0 31 -10 59t-29.5 49.5t-47.5 34t-64 12.5 q-37 0 -66 -12.5t-48.5 -33.5t-29.5 -49t-10 -60v-309q0 -71 40.5 -115.5t113.5 -44.5q34 0 61.5 12.5t47.5 33.5t31 49.5t11 60.5v313zM180 749l131 107l35 -37l-147 -91z" />
<glyph unicode="&#xd4;" horiz-adv-x="485" d="M439 193q0 -43 -14 -79.5t-39.5 -63.5t-62 -42t-80.5 -15q-48 0 -85 15.5t-62.5 42.5t-38.5 64.5t-13 81.5v309q0 40 13 76t38.5 62t62.5 41.5t85 15.5q45 0 81 -14.5t61.5 -40.5t39.5 -62t14 -78v-313zM394 504q0 31 -10 59t-29.5 49.5t-47.5 34t-64 12.5 q-37 0 -66 -12.5t-48.5 -33.5t-29.5 -49t-10 -60v-309q0 -71 40.5 -115.5t113.5 -44.5q34 0 61.5 12.5t47.5 33.5t31 49.5t11 60.5v313zM240 812l-120 -80l-18 19l123 105h34l118 -104l-18 -20z" />
<glyph unicode="&#xd5;" horiz-adv-x="485" d="M439 193q0 -43 -14 -79.5t-39.5 -63.5t-62 -42t-80.5 -15q-48 0 -85 15.5t-62.5 42.5t-38.5 64.5t-13 81.5v309q0 40 13 76t38.5 62t62.5 41.5t85 15.5q45 0 81 -14.5t61.5 -40.5t39.5 -62t14 -78v-313zM394 504q0 31 -10 59t-29.5 49.5t-47.5 34t-64 12.5 q-37 0 -66 -12.5t-48.5 -33.5t-29.5 -49t-10 -60v-309q0 -71 40.5 -115.5t113.5 -44.5q34 0 61.5 12.5t47.5 33.5t31 49.5t11 60.5v313zM182 838q15 0 30.5 -6.5t30.5 -14t30 -13.5t29 -6q28 0 53 40l27 -16q-16 -33 -36.5 -48t-43.5 -15q-15 0 -30.5 6t-30.5 13.5t-30 14 t-29 6.5q-15 0 -28.5 -10t-27.5 -27l-26 16q16 28 37.5 44t44.5 16z" />
<glyph unicode="&#xd6;" horiz-adv-x="485" d="M439 193q0 -43 -14 -79.5t-39.5 -63.5t-62 -42t-80.5 -15q-48 0 -85 15.5t-62.5 42.5t-38.5 64.5t-13 81.5v309q0 40 13 76t38.5 62t62.5 41.5t85 15.5q45 0 81 -14.5t61.5 -40.5t39.5 -62t14 -78v-313zM394 504q0 31 -10 59t-29.5 49.5t-47.5 34t-64 12.5 q-37 0 -66 -12.5t-48.5 -33.5t-29.5 -49t-10 -60v-309q0 -71 40.5 -115.5t113.5 -44.5q34 0 61.5 12.5t47.5 33.5t31 49.5t11 60.5v313zM293 747v51h48v-51h-48zM130 747v51h49v-51h-49z" />
<glyph unicode="&#xd7;" horiz-adv-x="438" d="M246 284l143 -142l-26 -26l-142 142l-147 -147l-26 26l148 146l-140 140l26 26l139 -140l146 146l25 -25z" />
<glyph unicode="&#xd8;" horiz-adv-x="485" d="M439 193q0 -43 -14 -79.5t-39.5 -63.5t-62 -42t-80.5 -15q-49 0 -85.5 15.5t-62.5 42.5l-32 -58q-6 4 -12.5 7t-11.5 7l37 68q-32 50 -32 122v309q0 40 13 76t38.5 62t62.5 41.5t85 15.5q45 0 80.5 -14.5t61.5 -40.5q8 14 15.5 29t15.5 29l26 -15q-9 -17 -18.5 -33.5 t-18.5 -33.5q34 -49 34 -116v-313zM394 504q0 37 -15 69l-261 -479q20 -28 51.5 -43.5t73.5 -15.5q34 0 61.5 12.5t47.5 33.5t31 49.5t11 60.5v313zM362 604q-20 25 -49.5 40t-69.5 15q-37 0 -66 -12.5t-48.5 -33.5t-29.5 -49t-10 -60v-309q0 -42 13 -72z" />
<glyph unicode="&#xd9;" horiz-adv-x="500" d="M447 696v-511q0 -46 -15.5 -81.5t-42.5 -60t-63 -37t-76 -12.5q-41 0 -77 13t-62.5 38t-42 61t-15.5 82v508h44v-505q0 -35 12 -63.5t32.5 -48.5t48.5 -31.5t60 -11.5q31 0 59 10t48.5 29.5t32.5 47.5t12 65v508h45zM278 731l-148 93l35 38l133 -108z" />
<glyph unicode="&#xda;" horiz-adv-x="500" d="M447 696v-511q0 -46 -15.5 -81.5t-42.5 -60t-63 -37t-76 -12.5q-41 0 -77 13t-62.5 38t-42 61t-15.5 82v508h44v-505q0 -35 12 -63.5t32.5 -48.5t48.5 -31.5t60 -11.5q31 0 59 10t48.5 29.5t32.5 47.5t12 65v508h45zM193 749l131 107l35 -37l-147 -91z" />
<glyph unicode="&#xdb;" horiz-adv-x="500" d="M447 696v-511q0 -46 -15.5 -81.5t-42.5 -60t-63 -37t-76 -12.5q-41 0 -77 13t-62.5 38t-42 61t-15.5 82v508h44v-505q0 -35 12 -63.5t32.5 -48.5t48.5 -31.5t60 -11.5q31 0 59 10t48.5 29.5t32.5 47.5t12 65v508h45zM246 812l-120 -80l-18 19l123 105h34l118 -104 l-18 -20z" />
<glyph unicode="&#xdc;" horiz-adv-x="500" d="M447 696v-511q0 -46 -15.5 -81.5t-42.5 -60t-63 -37t-76 -12.5q-41 0 -77 13t-62.5 38t-42 61t-15.5 82v508h44v-505q0 -35 12 -63.5t32.5 -48.5t48.5 -31.5t60 -11.5q31 0 59 10t48.5 29.5t32.5 47.5t12 65v508h45zM310 747v51h48v-51h-48zM147 747v51h49v-51h-49z" />
<glyph unicode="&#xdd;" horiz-adv-x="413" d="M206 341l60 145q5 12 18 41.5t27 63t27 63.5t18 42h46l-176 -406v-290h-43v290l-176 406h47l90 -211zM148 749l131 107l35 -37l-147 -91z" />
<glyph unicode="&#xde;" horiz-adv-x="471" d="M453 356q0 -40 -10.5 -76t-33.5 -63.5t-59.5 -44t-88.5 -16.5h-151l1 -156h-45v706h45l-1 -151h148q94 0 144.5 -49.5t50.5 -149.5zM408 357q0 74 -38 115t-114 41h-146v-316h147q41 0 70 12t47 33.5t26 51t8 63.5z" />
<glyph unicode="&#xdf;" horiz-adv-x="433" d="M214 724q38 0 66.5 -12t48 -33.5t29.5 -50.5t10 -63q0 -20 -3.5 -41.5t-12 -41t-23 -35t-35.5 -24.5v-2q29 -9 47 -26.5t28 -42t13.5 -55t3.5 -64.5q0 -43 -5 -85.5t-21 -76t-45 -54t-78 -20.5h-33v36h22q43 0 66.5 19.5t34 50t12.5 67t2 71.5q0 31 -5 59.5t-18 50.5 t-35.5 35.5t-57.5 13.5v39q27 0 46 10.5t31 27.5t17 38.5t5 43.5q0 25 -6.5 47.5t-20 40t-35 28t-51.5 10.5q-36 0 -58.5 -14t-35 -35.5t-16.5 -47.5t-4 -51v-537h-43v538q0 85 38 135.5t122 50.5z" />
<glyph unicode="&#xe0;" horiz-adv-x="409" d="M315 47q-23 -33 -61 -43.5t-77 -10.5q-69 0 -107.5 38t-38.5 101q0 30 9 57.5t28 47.5t48.5 32t70.5 12h131v76q0 47 -27 74t-84 27q-39 0 -69.5 -13t-48.5 -38q-5 3 -17 11.5t-17 11.5q24 32 60 50.5t92 18.5q33 0 61.5 -6.5t49 -23t32.5 -44t12 -69.5v-356h-44v47h-3z M318 242h-129q-50 0 -83 -25.5t-33 -81.5q0 -45 29.5 -73.5t86.5 -28.5q23 0 46 5t41.5 17t30 31t11.5 47v109zM219 560l-94 145l48 18l72 -152z" />
<glyph unicode="&#xe1;" horiz-adv-x="409" d="M315 47q-23 -33 -61 -43.5t-77 -10.5q-69 0 -107.5 38t-38.5 101q0 30 9 57.5t28 47.5t48.5 32t70.5 12h131v76q0 47 -27 74t-84 27q-39 0 -69.5 -13t-48.5 -38q-5 3 -17 11.5t-17 11.5q24 32 60 50.5t92 18.5q33 0 61.5 -6.5t49 -23t32.5 -44t12 -69.5v-356h-44v47h-3z M318 242h-129q-50 0 -83 -25.5t-33 -81.5q0 -45 29.5 -73.5t86.5 -28.5q23 0 46 5t41.5 17t30 31t11.5 47v109zM198 571l73 152l47 -18l-94 -145z" />
<glyph unicode="&#xe2;" horiz-adv-x="409" d="M315 47q-23 -33 -61 -43.5t-77 -10.5q-69 0 -107.5 38t-38.5 101q0 30 9 57.5t28 47.5t48.5 32t70.5 12h131v76q0 47 -27 74t-84 27q-39 0 -69.5 -13t-48.5 -38q-5 3 -17 11.5t-17 11.5q24 32 60 50.5t92 18.5q33 0 61.5 -6.5t49 -23t32.5 -44t12 -69.5v-356h-44v47h-3z M318 242h-129q-50 0 -83 -25.5t-33 -81.5q0 -45 29.5 -73.5t86.5 -28.5q23 0 46 5t41.5 17t30 31t11.5 47v109zM208 651l-118 -97l-21 18l124 123h34l118 -121l-20 -19z" />
<glyph unicode="&#xe3;" horiz-adv-x="409" d="M315 47q-23 -33 -61 -43.5t-77 -10.5q-69 0 -107.5 38t-38.5 101q0 30 9 57.5t28 47.5t48.5 32t70.5 12h131v76q0 47 -27 74t-84 27q-39 0 -69.5 -13t-48.5 -38q-5 3 -17 11.5t-17 11.5q24 32 60 50.5t92 18.5q33 0 61.5 -6.5t49 -23t32.5 -44t12 -69.5v-356h-44v47h-3z M318 242h-129q-50 0 -83 -25.5t-33 -81.5q0 -45 29.5 -73.5t86.5 -28.5q23 0 46 5t41.5 17t30 31t11.5 47v109zM150 668q15 0 30.5 -6.5t30.5 -14t30 -13.5t29 -6q28 0 53 40l27 -16q-16 -33 -36.5 -48t-43.5 -15q-15 0 -30.5 6t-30.5 13.5t-30 14t-29 6.5q-15 0 -28.5 -10 t-27.5 -27l-26 16q16 28 37.5 44t44.5 16z" />
<glyph unicode="&#xe4;" horiz-adv-x="409" d="M315 47q-23 -33 -61 -43.5t-77 -10.5q-69 0 -107.5 38t-38.5 101q0 30 9 57.5t28 47.5t48.5 32t70.5 12h131v76q0 47 -27 74t-84 27q-39 0 -69.5 -13t-48.5 -38q-5 3 -17 11.5t-17 11.5q24 32 60 50.5t92 18.5q33 0 61.5 -6.5t49 -23t32.5 -44t12 -69.5v-356h-44v47h-3z M318 242h-129q-50 0 -83 -25.5t-33 -81.5q0 -45 29.5 -73.5t86.5 -28.5q23 0 46 5t41.5 17t30 31t11.5 47v109zM268 597v51h48v-51h-48zM100 597v51h49v-51h-49z" />
<glyph unicode="&#xe5;" horiz-adv-x="409" d="M315 47q-23 -33 -61 -43.5t-77 -10.5q-69 0 -107.5 38t-38.5 101q0 30 9 57.5t28 47.5t48.5 32t70.5 12h131v76q0 47 -27 74t-84 27q-39 0 -69.5 -13t-48.5 -38q-5 3 -17 11.5t-17 11.5q24 32 60 50.5t92 18.5q33 0 61.5 -6.5t49 -23t32.5 -44t12 -69.5v-356h-44v47h-3z M318 242h-129q-50 0 -83 -25.5t-33 -81.5q0 -45 29.5 -73.5t86.5 -28.5q23 0 46 5t41.5 17t30 31t11.5 47v109zM211 554q-35 0 -59 24.5t-24 57.5q0 18 6.5 33t17.5 26.5t26.5 18t32.5 6.5t32 -6.5t26 -18t17.5 -26.5t6.5 -33q0 -33 -24 -57.5t-58 -24.5zM211 693 q-23 0 -40 -16.5t-17 -40.5q0 -23 17 -39t40 -16t39.5 16t16.5 39q0 24 -16.5 40.5t-39.5 16.5z" />
<glyph unicode="&#xe6;" horiz-adv-x="689" d="M497 -6q-51 0 -93 21t-62 72q-26 -51 -67 -72t-99 -21q-69 0 -107.5 37t-38.5 100q0 74 43 112t121 38h123v76q0 46 -26 73.5t-86 27.5q-33 0 -65 -12t-52 -39l-32 25q26 35 64.5 50.5t83.5 15.5q53 0 92 -16.5t55 -61.5q21 42 57 60t80 18q49 0 81.5 -17t51.5 -45.5 t26.5 -66.5t7.5 -81v-46h-293q0 -36 4 -73.5t17.5 -68t40 -50t70.5 -19.5q37 0 64 18t42 45l35 -21q-20 -40 -56.5 -59.5t-81.5 -19.5zM190 242q-21 0 -42 -4.5t-38 -17t-27.5 -33.5t-10.5 -54q0 -45 29 -72.5t88 -27.5q31 0 55 9.5t40 25.5t24.5 37t8.5 44v93h-127z M611 279q0 33 -5 65t-18 57.5t-37 41t-61 15.5q-38 0 -62 -15t-38.5 -40t-20 -57.5t-6.5 -66.5h248z" />
<glyph unicode="&#xe7;" horiz-adv-x="372" d="M351 79q-17 -39 -50 -60.5t-80 -24.5q-4 -11 -7 -23t-7 -24q25 -1 42 -9t27 -19t14 -23.5t4 -22.5q0 -12 -4.5 -24.5t-15 -23t-26.5 -17t-38 -6.5q-12 0 -33 2t-44 12l10 25q17 -7 33.5 -9.5t29.5 -2.5q20 0 36 10t16 34q0 20 -14 33t-38 13h-5.5t-8.5 -1l-18 14l18 63 q-50 3 -81 24t-48 55.5t-23 79t-6 95.5q0 50 7.5 95t27.5 79.5t55 54.5t89 20q52 0 87.5 -22t52.5 -64q-10 -6 -19 -11t-19 -10q-11 30 -37.5 48.5t-64.5 18.5q-45 0 -71.5 -18t-41 -47.5t-19 -67t-4.5 -76.5q0 -38 4.5 -76.5t18.5 -69.5t40.5 -50.5t70.5 -19.5 q38 0 64.5 18t37.5 47q9 -5 18.5 -9.5t19.5 -9.5z" />
<glyph unicode="&#xe8;" horiz-adv-x="408" d="M359 81q-17 -42 -56 -65t-87 -23q-55 0 -90 17.5t-55 51t-27.5 82t-7.5 110.5q0 46 7 90.5t26 78.5t52.5 55t86.5 21q49 0 81 -17t51 -46.5t26.5 -68t7.5 -81.5v-46h-294q0 -49 6 -87.5t21 -65.5t41 -41t66 -14q36 0 66 19t41 48zM329 279q0 36 -4.5 68t-18 57t-37 39.5 t-61.5 14.5t-62 -15t-38.5 -40t-20 -58t-6.5 -69h248v3zM219 560l-94 145l48 18l72 -152z" />
<glyph unicode="&#xe9;" horiz-adv-x="408" d="M359 81q-17 -42 -56 -65t-87 -23q-55 0 -90 17.5t-55 51t-27.5 82t-7.5 110.5q0 46 7 90.5t26 78.5t52.5 55t86.5 21q49 0 81 -17t51 -46.5t26.5 -68t7.5 -81.5v-46h-294q0 -49 6 -87.5t21 -65.5t41 -41t66 -14q36 0 66 19t41 48zM329 279q0 36 -4.5 68t-18 57t-37 39.5 t-61.5 14.5t-62 -15t-38.5 -40t-20 -58t-6.5 -69h248v3zM178 571l73 152l47 -18l-94 -145z" />
<glyph unicode="&#xea;" horiz-adv-x="408" d="M359 81q-17 -42 -56 -65t-87 -23q-55 0 -90 17.5t-55 51t-27.5 82t-7.5 110.5q0 46 7 90.5t26 78.5t52.5 55t86.5 21q49 0 81 -17t51 -46.5t26.5 -68t7.5 -81.5v-46h-294q0 -49 6 -87.5t21 -65.5t41 -41t66 -14q36 0 66 19t41 48zM329 279q0 36 -4.5 68t-18 57t-37 39.5 t-61.5 14.5t-62 -15t-38.5 -40t-20 -58t-6.5 -69h248v3zM213 651l-118 -97l-21 18l124 123h34l118 -121l-20 -19z" />
<glyph unicode="&#xeb;" horiz-adv-x="408" d="M359 81q-17 -42 -56 -65t-87 -23q-55 0 -90 17.5t-55 51t-27.5 82t-7.5 110.5q0 46 7 90.5t26 78.5t52.5 55t86.5 21q49 0 81 -17t51 -46.5t26.5 -68t7.5 -81.5v-46h-294q0 -49 6 -87.5t21 -65.5t41 -41t66 -14q36 0 66 19t41 48zM329 279q0 36 -4.5 68t-18 57t-37 39.5 t-61.5 14.5t-62 -15t-38.5 -40t-20 -58t-6.5 -69h248v3zM267 597v51h48v-51h-48zM99 597v51h49v-51h-49z" />
<glyph unicode="&#xec;" horiz-adv-x="177" d="M67 0v493h43v-493h-43zM76 560l-94 145l48 18l72 -152z" />
<glyph unicode="&#xed;" horiz-adv-x="177" d="M67 0v493h43v-493h-43zM69 571l73 152l47 -18l-94 -145z" />
<glyph unicode="&#xee;" horiz-adv-x="236" d="M96 0v493h43v-493h-43zM119 651l-118 -97l-21 18l124 123h34l118 -121l-20 -19z" />
<glyph unicode="&#xef;" horiz-adv-x="196" d="M76 0v493h43v-493h-43zM158 597v51h48v-51h-48zM-10 597v51h49v-51h-49z" />
<glyph unicode="&#xf0;" horiz-adv-x="425" d="M207 464q37 0 72.5 -18t55.5 -53h3q0 23 -2 49t-6.5 51.5t-12 48t-17.5 39.5q-19 -14 -38.5 -28t-38.5 -28l-18 25q20 14 39 28.5t39 28.5q-23 29 -58.5 46.5t-79.5 23.5q3 20 7 37q34 -3 60.5 -11t46 -19t34 -24.5t25.5 -26.5l67 49l10 -12l10 -12l-70 -51 q16 -26 25 -60t13 -72q2 -26 4 -63t3 -90v-51q0 -39 -1.5 -68t-5 -51.5t-9 -40.5t-12.5 -34q-20 -42 -55.5 -62.5t-92.5 -20.5q-67 0 -104 28q-35 27 -48.5 73.5t-13.5 128.5q0 49 3.5 82.5t14.5 62.5q17 45 57 70t94 25zM207 425q-32 0 -59 -13.5t-44 -43.5 q-12 -23 -17 -54.5t-6 -88.5q0 -38 2.5 -65.5t8.5 -47.5t15.5 -34t22.5 -24q29 -23 76 -23q37 0 66 16t43 51q11 27 15.5 60.5t4.5 78.5q0 53 -6 80.5t-14 44.5q-15 30 -43.5 46.5t-64.5 16.5z" />
<glyph unicode="&#xf1;" horiz-adv-x="430" d="M334 0v334q0 57 -26.5 89.5t-83.5 32.5q-28 0 -51.5 -10t-41 -28t-27 -42.5t-9.5 -52.5v-323h-44v493h44v-68h2q21 38 57 56t74 18q72 0 111 -41.5t39 -109.5v-348h-44zM144 668q15 0 30.5 -6.5t30.5 -14t30 -13.5t29 -6q28 0 53 40l27 -16q-16 -33 -36.5 -48t-43.5 -15 q-15 0 -30.5 6t-30.5 13.5t-30 14t-29 6.5q-15 0 -28.5 -10t-27.5 -27l-26 16q16 28 37.5 44t44.5 16z" />
<glyph unicode="&#xf2;" horiz-adv-x="419" d="M211 499q45 0 76 -15.5t51 -41.5q23 -27 31.5 -77t8.5 -120q0 -45 -4 -88.5t-15 -71.5q-19 -49 -58.5 -70t-94.5 -21q-42 0 -71 12.5t-48 35.5q-26 27 -36.5 77.5t-10.5 124.5q0 49 3.5 88.5t13.5 68.5q18 50 58.5 74t95.5 24zM210 459q-35 0 -63 -15t-44 -45 q-12 -23 -15.5 -63t-4.5 -96q0 -69 9 -109t29 -62q29 -37 88 -37q36 0 66.5 18t44.5 55q10 25 12.5 62.5t1.5 81.5q0 108 -19 146q-14 32 -41.5 48t-63.5 16zM208 560l-94 145l48 18l72 -152z" />
<glyph unicode="&#xf3;" horiz-adv-x="419" d="M211 499q45 0 76 -15.5t51 -41.5q23 -27 31.5 -77t8.5 -120q0 -45 -4 -88.5t-15 -71.5q-19 -49 -58.5 -70t-94.5 -21q-42 0 -71 12.5t-48 35.5q-26 27 -36.5 77.5t-10.5 124.5q0 49 3.5 88.5t13.5 68.5q18 50 58.5 74t95.5 24zM210 459q-35 0 -63 -15t-44 -45 q-12 -23 -15.5 -63t-4.5 -96q0 -69 9 -109t29 -62q29 -37 88 -37q36 0 66.5 18t44.5 55q10 25 12.5 62.5t1.5 81.5q0 108 -19 146q-14 32 -41.5 48t-63.5 16zM183 571l73 152l47 -18l-94 -145z" />
<glyph unicode="&#xf4;" horiz-adv-x="419" d="M211 499q45 0 76 -15.5t51 -41.5q23 -27 31.5 -77t8.5 -120q0 -45 -4 -88.5t-15 -71.5q-19 -49 -58.5 -70t-94.5 -21q-42 0 -71 12.5t-48 35.5q-26 27 -36.5 77.5t-10.5 124.5q0 49 3.5 88.5t13.5 68.5q18 50 58.5 74t95.5 24zM210 459q-35 0 -63 -15t-44 -45 q-12 -23 -15.5 -63t-4.5 -96q0 -69 9 -109t29 -62q29 -37 88 -37q36 0 66.5 18t44.5 55q10 25 12.5 62.5t1.5 81.5q0 108 -19 146q-14 32 -41.5 48t-63.5 16zM212 651l-118 -97l-21 18l124 123h34l118 -121l-20 -19z" />
<glyph unicode="&#xf5;" horiz-adv-x="419" d="M212 499q45 0 76 -15.5t51 -41.5q23 -27 31.5 -77t8.5 -120q0 -45 -4 -88.5t-15 -71.5q-19 -49 -58.5 -70t-94.5 -21q-42 0 -71 12.5t-48 35.5q-26 27 -36.5 77.5t-10.5 124.5q0 49 3.5 88.5t13.5 68.5q18 50 58.5 74t95.5 24zM211 459q-35 0 -63 -15t-44 -45 q-12 -23 -15.5 -63t-4.5 -96q0 -69 9 -109t29 -62q29 -37 88 -37q36 0 66.5 18t44.5 55q10 25 12.5 62.5t1.5 81.5q0 108 -19 146q-14 32 -41.5 48t-63.5 16zM153 668q15 0 30.5 -6.5t30.5 -14t30 -13.5t29 -6q28 0 53 40l27 -16q-16 -33 -36.5 -48t-43.5 -15q-15 0 -30.5 6 t-30.5 13.5t-30 14t-29 6.5q-15 0 -28.5 -10t-27.5 -27l-26 16q16 28 37.5 44t44.5 16z" />
<glyph unicode="&#xf6;" horiz-adv-x="419" d="M211 499q45 0 76 -15.5t51 -41.5q23 -27 31.5 -77t8.5 -120q0 -45 -4 -88.5t-15 -71.5q-19 -49 -58.5 -70t-94.5 -21q-42 0 -71 12.5t-48 35.5q-26 27 -36.5 77.5t-10.5 124.5q0 49 3.5 88.5t13.5 68.5q18 50 58.5 74t95.5 24zM210 459q-35 0 -63 -15t-44 -45 q-12 -23 -15.5 -63t-4.5 -96q0 -69 9 -109t29 -62q29 -37 88 -37q36 0 66.5 18t44.5 55q10 25 12.5 62.5t1.5 81.5q0 108 -19 146q-14 32 -41.5 48t-63.5 16zM270 597v51h48v-51h-48zM102 597v51h49v-51h-49z" />
<glyph unicode="&#xf7;" horiz-adv-x="410" d="M244 444q0 -15 -11 -26t-26 -11q-16 0 -26.5 11t-10.5 26q0 16 11 26t26 10q14 0 25.5 -10t11.5 -26zM21 268v37h368v-37h-368zM207 162q14 0 25.5 -10.5t11.5 -26.5q0 -15 -11 -26t-26 -11q-16 0 -26.5 11t-10.5 26q0 16 11 26.5t26 10.5z" />
<glyph unicode="&#xf8;" horiz-adv-x="419" d="M211 499q38 0 66 -11.5t48 -31.5q7 11 14 22.5t15 22.5q6 -4 12 -7.5t12 -8.5l-34 -52q20 -28 27 -75.5t7 -112.5q0 -45 -4 -88.5t-15 -71.5q-19 -49 -58.5 -70t-94.5 -21q-41 0 -69 11.5t-47 32.5q-7 -11 -14 -21.5t-14 -21.5q-5 4 -11 7.5t-11 8.5q8 13 16 25t16 25 q-18 29 -25 74.5t-7 108.5q0 49 3.5 88.5t13.5 68.5q18 50 58.5 74t95.5 24zM317 391q-51 -79 -101 -157.5t-101 -157.5l6 -7q29 -37 88 -37q36 0 66.5 18t44.5 55q10 25 12.5 62.5t1.5 81.5q0 103 -17 142zM210 459q-35 0 -63 -15t-44 -45q-12 -23 -15.5 -63t-4.5 -96 q0 -91 16 -136q51 79 101 157.5t101 157.5q-32 40 -91 40z" />
<glyph unicode="&#xf9;" horiz-adv-x="438" d="M338 0v68h-3q-21 -39 -57 -56.5t-74 -17.5q-72 0 -111 41.5t-39 108.5v349h44v-334q0 -57 30.5 -90.5t86.5 -33.5q28 0 50.5 10.5t38.5 28.5t25 42.5t9 53.5v323h42v-493h-42zM219 560l-94 145l48 18l72 -152z" />
<glyph unicode="&#xfa;" horiz-adv-x="438" d="M338 0v68h-3q-21 -39 -57 -56.5t-74 -17.5q-72 0 -111 41.5t-39 108.5v349h44v-334q0 -57 30.5 -90.5t86.5 -33.5q28 0 50.5 10.5t38.5 28.5t25 42.5t9 53.5v323h42v-493h-42zM188 571l73 152l47 -18l-94 -145z" />
<glyph unicode="&#xfb;" horiz-adv-x="438" d="M338 0v68h-3q-21 -39 -57 -56.5t-74 -17.5q-72 0 -111 41.5t-39 108.5v349h44v-334q0 -57 30.5 -90.5t86.5 -33.5q28 0 50.5 10.5t38.5 28.5t25 42.5t9 53.5v323h42v-493h-42zM218 651l-118 -97l-21 18l124 123h34l118 -121l-20 -19z" />
<glyph unicode="&#xfc;" horiz-adv-x="438" d="M338 0v68h-3q-21 -39 -57 -56.5t-74 -17.5q-72 0 -111 41.5t-39 108.5v349h44v-334q0 -57 30.5 -90.5t86.5 -33.5q28 0 50.5 10.5t38.5 28.5t25 42.5t9 53.5v323h42v-493h-42zM273 597v51h48v-51h-48zM105 597v51h49v-51h-49z" />
<glyph unicode="&#xfd;" horiz-adv-x="366" d="M185 66q3 12 13 44.5t23.5 76t28 92t28 91.5t23 76t13.5 45h46q-47 -152 -93 -301.5t-94 -300.5q-14 -48 -39 -71t-68 -23h-20v38h16q32 0 48 21.5t27 58.5l27 87q-41 123 -79 245t-79 246h47l68 -217l62 -208h2zM155 571l73 152l47 -18l-94 -145z" />
<glyph unicode="&#xfe;" horiz-adv-x="421" d="M92 425q23 43 57 58.5t72 15.5q53 0 84.5 -21t47.5 -55.5t20.5 -80t4.5 -93.5t-5 -93.5t-22.5 -81.5t-49.5 -58t-86 -22q-45 0 -73.5 19t-49.5 50h-2v-266h-43v900h43v-271zM208 35q43 0 68 18.5t37.5 48.5t16 68.5t3.5 77.5q0 43 -3.5 81.5t-16.5 67t-37 45t-65 16.5 q-44 0 -68.5 -21t-36 -52.5t-14 -69.5t-2.5 -71q0 -34 3 -70.5t15 -67t35.5 -50.5t64.5 -21z" />
<glyph unicode="&#xff;" horiz-adv-x="366" d="M185 66q3 12 13 44.5t23.5 76t28 92t28 91.5t23 76t13.5 45h46q-47 -152 -93 -301.5t-94 -300.5q-14 -48 -39 -71t-68 -23h-20v38h16q32 0 48 21.5t27 58.5l27 87q-41 123 -79 245t-79 246h47l68 -217l62 -208h2zM76 597v51h49v-51h-49zM244 597v51h48v-51h-48z" />
<glyph unicode="&#x100;" horiz-adv-x="481" d="M422 0q-4 15 -10.5 39t-14 49t-14.5 49t-11 39h-264l-50 -176h-46l203 696h50l204 -696h-47zM288 467l-47 170h-3q-56 -201 -120 -420h243zM127 759v41h229v-41h-229z" />
<glyph unicode="&#x101;" horiz-adv-x="409" d="M315 47q-23 -33 -61 -43.5t-77 -10.5q-69 0 -107.5 38t-38.5 101q0 30 9 57.5t28 47.5t48.5 32t70.5 12h131v76q0 47 -27 74t-84 27q-39 0 -69.5 -13t-48.5 -38q-5 3 -17 11.5t-17 11.5q24 32 60 50.5t92 18.5q33 0 61.5 -6.5t49 -23t32.5 -44t12 -69.5v-356h-44v47h-3z M318 242h-129q-50 0 -83 -25.5t-33 -81.5q0 -45 29.5 -73.5t86.5 -28.5q23 0 46 5t41.5 17t30 31t11.5 47v109zM103 589v41h228v-41h-228z" />
<glyph unicode="&#x102;" horiz-adv-x="481" d="M422 0q-4 15 -10.5 39t-14 49t-14.5 49t-11 39h-264l-50 -176h-46l203 696h50l204 -696h-47zM288 467l-47 170h-3q-56 -201 -120 -420h243zM153 847q5 -31 29 -53t57 -22q35 0 58 21.5t28 53.5h38q-3 -19 -11 -38.5t-23 -35.5t-37 -26.5t-53 -10.5t-53 10.5t-37 26.5 t-23 35.5t-10 38.5h37z" />
<glyph unicode="&#x103;" horiz-adv-x="409" d="M315 47q-23 -33 -61 -43.5t-77 -10.5q-69 0 -107.5 38t-38.5 101q0 30 9 57.5t28 47.5t48.5 32t70.5 12h131v76q0 47 -27 74t-84 27q-39 0 -69.5 -13t-48.5 -38q-5 3 -17 11.5t-17 11.5q24 32 60 50.5t92 18.5q33 0 61.5 -6.5t49 -23t32.5 -44t12 -69.5v-356h-44v47h-3z M318 242h-129q-50 0 -83 -25.5t-33 -81.5q0 -45 29.5 -73.5t86.5 -28.5q23 0 46 5t41.5 17t30 31t11.5 47v109zM139 674q5 -31 30 -53t56 -22q32 0 57 21.5t30 53.5h37q-3 -19 -11 -38.5t-22.5 -36t-37 -27t-53.5 -10.5t-53 10.5t-37 27t-23 36t-10 38.5h37z" />
<glyph unicode="&#x104;" horiz-adv-x="481" d="M382 -93q0 20 9 44.5t30 49.5q-4 16 -10.5 39.5t-13.5 48.5t-14 48.5t-11 38.5h-264l-50 -176h-46l203 696h50l204 -696h-11q-17 -22 -27 -45.5t-10 -40.5q0 -27 13.5 -39.5t36.5 -12.5q11 0 25 3.5t29 11.5l13 -29q-14 -9 -34 -15t-40 -6q-38 0 -60 24t-22 56zM288 467 l-47 170h-3q-56 -201 -120 -420h243z" />
<glyph unicode="&#x105;" horiz-adv-x="409" d="M278 -92q0 20 9.5 44.5t30.5 49.5v45h-3q-23 -33 -61 -43.5t-77 -10.5q-69 0 -107.5 38t-38.5 101q0 30 9 57.5t28 47.5t48.5 32t70.5 12h131v76q0 47 -27 74t-84 27q-39 0 -69.5 -13t-48.5 -38q-5 3 -17 11.5t-17 11.5q24 32 60 50.5t92 18.5q33 0 61.5 -6.5t49 -23 t32.5 -44t12 -69.5v-356h-9q-17 -21 -26.5 -44.5t-9.5 -40.5q0 -27 13.5 -39.5t36.5 -12.5q11 0 25 3.5t29 11.5l13 -29q-14 -9 -34 -15t-40 -6q-38 0 -60 24t-22 56zM318 242h-129q-50 0 -83 -25.5t-33 -81.5q0 -45 29.5 -73.5t86.5 -28.5q23 0 46 5t41.5 17t30 31t11.5 47 v109z" />
<glyph unicode="&#x106;" horiz-adv-x="457" d="M432 132q-7 -35 -24.5 -61t-42 -43t-55 -26t-63.5 -9q-45 0 -81.5 14.5t-62 40.5t-39.5 62.5t-14 81.5v313q0 43 14 79.5t39.5 62t62 40t81.5 14.5q67 0 117.5 -33.5t66.5 -98.5l-43 -15q-11 51 -48.5 78t-92.5 27q-72 0 -112.5 -43.5t-40.5 -110.5v-316 q0 -33 10.5 -61.5t30.5 -49.5t48.5 -32.5t63.5 -11.5q54 0 92 28t51 83zM180 749l131 107l35 -37l-147 -91z" />
<glyph unicode="&#x107;" horiz-adv-x="372" d="M209 -6q-56 0 -90.5 20t-53 55t-25 81t-6.5 99q0 50 7.5 95t27.5 79.5t55 54.5t89 20q52 0 87.5 -22t52.5 -64q-10 -6 -19 -11t-19 -10q-11 30 -37.5 48.5t-64.5 18.5q-45 0 -71.5 -18t-41 -47.5t-19 -67t-4.5 -76.5q0 -38 4.5 -76.5t18.5 -69.5t40.5 -50.5t70.5 -19.5 q38 0 64.5 18t37.5 47q9 -5 18.5 -9.5t19.5 -9.5q-17 -42 -54 -63.5t-88 -21.5zM176 571l73 152l47 -18l-94 -145z" />
<glyph unicode="&#x108;" horiz-adv-x="457" d="M432 132q-7 -35 -24.5 -61t-42 -43t-55 -26t-63.5 -9q-45 0 -81.5 14.5t-62 40.5t-39.5 62.5t-14 81.5v313q0 43 14 79.5t39.5 62t62 40t81.5 14.5q67 0 117.5 -33.5t66.5 -98.5l-43 -15q-11 51 -48.5 78t-92.5 27q-72 0 -112.5 -43.5t-40.5 -110.5v-316 q0 -33 10.5 -61.5t30.5 -49.5t48.5 -32.5t63.5 -11.5q54 0 92 28t51 83zM242 812l-120 -80l-18 19l123 105h34l118 -104l-18 -20z" />
<glyph unicode="&#x109;" horiz-adv-x="372" d="M209 -6q-56 0 -90.5 20t-53 55t-25 81t-6.5 99q0 50 7.5 95t27.5 79.5t55 54.5t89 20q52 0 87.5 -22t52.5 -64q-10 -6 -19 -11t-19 -10q-11 30 -37.5 48.5t-64.5 18.5q-45 0 -71.5 -18t-41 -47.5t-19 -67t-4.5 -76.5q0 -38 4.5 -76.5t18.5 -69.5t40.5 -50.5t70.5 -19.5 q38 0 64.5 18t37.5 47q9 -5 18.5 -9.5t19.5 -9.5q-17 -42 -54 -63.5t-88 -21.5zM207 651l-118 -97l-21 18l124 123h34l118 -121l-20 -19z" />
<glyph unicode="&#x10a;" horiz-adv-x="457" d="M432 132q-7 -35 -24.5 -61t-42 -43t-55 -26t-63.5 -9q-45 0 -81.5 14.5t-62 40.5t-39.5 62.5t-14 81.5v313q0 43 14 79.5t39.5 62t62 40t81.5 14.5q67 0 117.5 -33.5t66.5 -98.5l-43 -15q-11 51 -48.5 78t-92.5 27q-72 0 -112.5 -43.5t-40.5 -110.5v-316 q0 -33 10.5 -61.5t30.5 -49.5t48.5 -32.5t63.5 -11.5q54 0 92 28t51 83zM219 767v51h48v-51h-48z" />
<glyph unicode="&#x10b;" horiz-adv-x="372" d="M209 -6q-56 0 -90.5 20t-53 55t-25 81t-6.5 99q0 50 7.5 95t27.5 79.5t55 54.5t89 20q52 0 87.5 -22t52.5 -64q-10 -6 -19 -11t-19 -10q-11 30 -37.5 48.5t-64.5 18.5q-45 0 -71.5 -18t-41 -47.5t-19 -67t-4.5 -76.5q0 -38 4.5 -76.5t18.5 -69.5t40.5 -50.5t70.5 -19.5 q38 0 64.5 18t37.5 47q9 -5 18.5 -9.5t19.5 -9.5q-17 -42 -54 -63.5t-88 -21.5zM176 599v51h48v-51h-48z" />
<glyph unicode="&#x10c;" horiz-adv-x="457" d="M432 132q-7 -35 -24.5 -61t-42 -43t-55 -26t-63.5 -9q-45 0 -81.5 14.5t-62 40.5t-39.5 62.5t-14 81.5v313q0 43 14 79.5t39.5 62t62 40t81.5 14.5q67 0 117.5 -33.5t66.5 -98.5l-43 -15q-11 51 -48.5 78t-92.5 27q-72 0 -112.5 -43.5t-40.5 -110.5v-316 q0 -33 10.5 -61.5t30.5 -49.5t48.5 -32.5t63.5 -11.5q54 0 92 28t51 83zM368 856l19 -18l-119 -105h-34l-123 106l18 18l120 -80z" />
<glyph unicode="&#x10d;" horiz-adv-x="372" d="M209 -6q-56 0 -90.5 20t-53 55t-25 81t-6.5 99q0 50 7.5 95t27.5 79.5t55 54.5t89 20q52 0 87.5 -22t52.5 -64q-10 -6 -19 -11t-19 -10q-11 30 -37.5 48.5t-64.5 18.5q-45 0 -71.5 -18t-41 -47.5t-19 -67t-4.5 -76.5q0 -38 4.5 -76.5t18.5 -69.5t40.5 -50.5t70.5 -19.5 q38 0 64.5 18t37.5 47q9 -5 18.5 -9.5t19.5 -9.5q-17 -42 -54 -63.5t-88 -21.5zM322 698l20 -20l-118 -122h-34l-124 124l20 18l119 -97z" />
<glyph unicode="&#x10e;" horiz-adv-x="506" d="M259 696q72 0 116 -27.5t65 -81.5q12 -35 14 -96t2 -137v-75q0 -54 -2 -95.5t-13 -70.5q-13 -33 -33 -55t-46 -35t-57 -18t-65 -5h-175v696h194zM411 451q0 34 -2.5 60.5t-10.5 54.5q-12 41 -50.5 65t-100.5 24h-137v-614h137q113 0 148 83q8 18 12 44.5t4 49.5v233z M355 856l19 -18l-119 -105h-34l-123 106l18 18l120 -80z" />
<glyph unicode="&#x10f;" horiz-adv-x="499" d="M317 67q-23 -42 -56.5 -58t-71.5 -16q-53 0 -84 21t-47.5 55.5t-21.5 80t-5 93.5t5 94t22 81.5t49.5 57.5t86.5 22q45 0 74 -19t49 -49h2v294h44v-724h-44v67h-2zM201 457q-43 0 -68 -19t-38 -49.5t-16.5 -69t-3.5 -77.5q0 -43 4.5 -81t17.5 -66.5t37.5 -45t63.5 -16.5 q44 0 68.5 21.5t36 54t14 70.5t2.5 70q0 35 -3.5 71.5t-15.5 66.5t-35.5 49.5t-63.5 20.5zM426 563l23 88h-15v61h56v-61q-9 -22 -18.5 -43.5t-18.5 -44.5h-27z" />
<glyph unicode="&#x110;" horiz-adv-x="506" d="M10 388h55v308h194q72 0 116 -27.5t65 -81.5q12 -35 14 -96t2 -137v-75q0 -54 -2 -95.5t-13 -70.5q-13 -33 -33 -55t-46 -35t-57 -18t-65 -5h-175v353h-55v35zM411 451q0 34 -2.5 60.5t-10.5 54.5q-12 41 -50.5 65t-100.5 24h-137v-267h127v-35h-127v-312h137 q113 0 148 83q8 18 12 44.5t4 49.5v233z" />
<glyph unicode="&#x111;" horiz-adv-x="407" d="M174 613h145v111h44v-111h51v-35h-51v-578h-44v67h-2q-23 -42 -56.5 -58t-71.5 -16q-53 0 -84 21t-47.5 55.5t-21.5 80t-5 93.5t5 94t22 81.5t49.5 57.5t86.5 22q45 0 74 -19t49 -49h2v148h-145v35zM201 457q-43 0 -68 -19t-38 -49.5t-16.5 -69t-3.5 -77.5q0 -43 4.5 -81 t17.5 -66.5t37.5 -45t63.5 -16.5q44 0 68.5 21.5t36 54t14 70.5t2.5 70q0 35 -3.5 71.5t-15.5 66.5t-35.5 49.5t-63.5 20.5z" />
<glyph unicode="&#x112;" horiz-adv-x="442" d="M66 0v696h353v-42h-309v-279h267v-40h-267v-292h309v-43h-353zM124 759v41h229v-41h-229z" />
<glyph unicode="&#x113;" horiz-adv-x="408" d="M359 81q-17 -42 -56 -65t-87 -23q-55 0 -90 17.5t-55 51t-27.5 82t-7.5 110.5q0 46 7 90.5t26 78.5t52.5 55t86.5 21q49 0 81 -17t51 -46.5t26.5 -68t7.5 -81.5v-46h-294q0 -49 6 -87.5t21 -65.5t41 -41t66 -14q36 0 66 19t41 48zM329 279q0 36 -4.5 68t-18 57t-37 39.5 t-61.5 14.5t-62 -15t-38.5 -40t-20 -58t-6.5 -69h248v3zM103 589v41h228v-41h-228z" />
<glyph unicode="&#x114;" horiz-adv-x="442" d="M66 0v696h353v-42h-309v-279h267v-40h-267v-292h309v-43h-353zM153 847q5 -31 29 -53t57 -22q35 0 58 21.5t28 53.5h38q-3 -19 -11 -38.5t-23 -35.5t-37 -26.5t-53 -10.5t-53 10.5t-37 26.5t-23 35.5t-10 38.5h37z" />
<glyph unicode="&#x115;" horiz-adv-x="408" d="M359 81q-17 -42 -56 -65t-87 -23q-55 0 -90 17.5t-55 51t-27.5 82t-7.5 110.5q0 46 7 90.5t26 78.5t52.5 55t86.5 21q49 0 81 -17t51 -46.5t26.5 -68t7.5 -81.5v-46h-294q0 -49 6 -87.5t21 -65.5t41 -41t66 -14q36 0 66 19t41 48zM329 279q0 36 -4.5 68t-18 57t-37 39.5 t-61.5 14.5t-62 -15t-38.5 -40t-20 -58t-6.5 -69h248v3zM123 674q5 -31 30 -53t56 -22q32 0 57 21.5t30 53.5h37q-3 -19 -11 -38.5t-22.5 -36t-37 -27t-53.5 -10.5t-53 10.5t-37 27t-23 36t-10 38.5h37z" />
<glyph unicode="&#x116;" horiz-adv-x="442" d="M66 0v696h353v-42h-309v-279h267v-40h-267v-292h309v-43h-353zM201 767v51h48v-51h-48z" />
<glyph unicode="&#x117;" horiz-adv-x="408" d="M359 81q-17 -42 -56 -65t-87 -23q-55 0 -90 17.5t-55 51t-27.5 82t-7.5 110.5q0 46 7 90.5t26 78.5t52.5 55t86.5 21q49 0 81 -17t51 -46.5t26.5 -68t7.5 -81.5v-46h-294q0 -49 6 -87.5t21 -65.5t41 -41t66 -14q36 0 66 19t41 48zM329 279q0 36 -4.5 68t-18 57t-37 39.5 t-61.5 14.5t-62 -15t-38.5 -40t-20 -58t-6.5 -69h248v3zM178 597v51h48v-51h-48z" />
<glyph unicode="&#x118;" horiz-adv-x="442" d="M343 -93q0 20 8.5 44.5t29.5 48.5h-315v696h353v-42h-309v-279h267v-40h-267v-292h309v-43q-17 -22 -27.5 -45.5t-10.5 -40.5q0 -27 14 -39.5t36 -12.5q11 0 25 3.5t29 11.5l13 -29q-14 -9 -34 -15t-40 -6q-38 0 -59.5 24t-21.5 56z" />
<glyph unicode="&#x119;" horiz-adv-x="408" d="M359 81q-9 -23 -26 -40q-11 -19 -17.5 -36.5t-6.5 -31.5q0 -27 14 -39.5t36 -12.5q11 0 25 3.5t29 11.5l13 -29q-14 -9 -34 -15t-40 -6q-38 0 -59.5 24t-21.5 56q0 17 6 38q-30 -11 -61 -11q-55 0 -90 17.5t-55 51t-27.5 82t-7.5 110.5q0 46 7 90.5t26 78.5t52.5 55 t86.5 21q49 0 81 -17t51 -46.5t26.5 -68t7.5 -81.5v-46h-294q0 -49 6 -87.5t21 -65.5t41 -41t66 -14q36 0 66 19t41 48zM329 279q0 36 -4.5 68t-18 57t-37 39.5t-61.5 14.5t-62 -15t-38.5 -40t-20 -58t-6.5 -69h248v3z" />
<glyph unicode="&#x11a;" horiz-adv-x="442" d="M66 0v696h353v-42h-309v-279h267v-40h-267v-292h309v-43h-353zM351 856l19 -18l-119 -105h-34l-123 106l18 18l120 -80z" />
<glyph unicode="&#x11b;" horiz-adv-x="408" d="M359 81q-17 -42 -56 -65t-87 -23q-55 0 -90 17.5t-55 51t-27.5 82t-7.5 110.5q0 46 7 90.5t26 78.5t52.5 55t86.5 21q49 0 81 -17t51 -46.5t26.5 -68t7.5 -81.5v-46h-294q0 -49 6 -87.5t21 -65.5t41 -41t66 -14q36 0 66 19t41 48zM329 279q0 36 -4.5 68t-18 57t-37 39.5 t-61.5 14.5t-62 -15t-38.5 -40t-20 -58t-6.5 -69h248v3zM325 696l20 -20l-118 -122h-34l-124 124l20 18l119 -97z" />
<glyph unicode="&#x11c;" horiz-adv-x="490" d="M247 34q34 0 62 12t48 32.5t31.5 48.5t11.5 60v128h-122v41h167v-163q0 -44 -14.5 -81t-41 -63.5t-63 -41t-80.5 -14.5q-45 0 -81.5 14.5t-62 40.5t-39.5 62.5t-14 81.5v313q0 43 14 79.5t40 62.5t62 40.5t81 14.5q68 0 119 -34t66 -100l-43 -13q-11 51 -49 78t-92 27 q-36 0 -64 -11.5t-48 -32.5t-30.5 -49.5t-10.5 -61.5v-317q0 -33 10.5 -61t30.5 -49t48.5 -32.5t63.5 -11.5zM240 812l-120 -80l-18 19l123 105h34l118 -104l-18 -20z" />
<glyph unicode="&#x11d;" horiz-adv-x="427" d="M372 -19q0 -90 -43 -140t-129 -50q-45 0 -80.5 21t-53.5 63q5 3 18.5 9.5t18.5 10.5q13 -26 37 -45t61 -19q67 0 97 40t30 103v102h-2q-17 -32 -47.5 -57t-83.5 -25t-84 21t-46.5 55.5t-20 79t-4.5 92.5t4.5 94t21 82.5t47.5 58.5t85 22q38 0 71.5 -15.5t56.5 -58.5l2 1 v66h44v-511zM205 35q40 0 64.5 20t37.5 51t17 68t4 70t-2.5 71t-14 70t-36 53t-68.5 21q-40 0 -64.5 -16.5t-37.5 -45t-17 -67t-4 -82.5q0 -41 3 -79t15 -68t36 -48t67 -18zM216 651l-118 -97l-21 18l124 123h34l118 -121l-20 -19z" />
<glyph unicode="&#x11e;" horiz-adv-x="490" d="M247 34q34 0 62 12t48 32.5t31.5 48.5t11.5 60v128h-122v41h167v-163q0 -44 -14.5 -81t-41 -63.5t-63 -41t-80.5 -14.5q-45 0 -81.5 14.5t-62 40.5t-39.5 62.5t-14 81.5v313q0 43 14 79.5t40 62.5t62 40.5t81 14.5q68 0 119 -34t66 -100l-43 -13q-11 51 -49 78t-92 27 q-36 0 -64 -11.5t-48 -32.5t-30.5 -49.5t-10.5 -61.5v-317q0 -33 10.5 -61t30.5 -49t48.5 -32.5t63.5 -11.5zM153 847q5 -31 29 -53t57 -22q35 0 58 21.5t28 53.5h38q-3 -19 -11 -38.5t-23 -35.5t-37 -26.5t-53 -10.5t-53 10.5t-37 26.5t-23 35.5t-10 38.5h37z" />
<glyph unicode="&#x11f;" horiz-adv-x="427" d="M372 -19q0 -90 -43 -140t-129 -50q-45 0 -80.5 21t-53.5 63q5 3 18.5 9.5t18.5 10.5q13 -26 37 -45t61 -19q67 0 97 40t30 103v102h-2q-17 -32 -47.5 -57t-83.5 -25t-84 21t-46.5 55.5t-20 79t-4.5 92.5t4.5 94t21 82.5t47.5 58.5t85 22q38 0 71.5 -15.5t56.5 -58.5l2 1 v66h44v-511zM205 35q40 0 64.5 20t37.5 51t17 68t4 70t-2.5 71t-14 70t-36 53t-68.5 21q-40 0 -64.5 -16.5t-37.5 -45t-17 -67t-4 -82.5q0 -41 3 -79t15 -68t36 -48t67 -18zM122 674q5 -31 30 -53t56 -22q32 0 57 21.5t30 53.5h37q-3 -19 -11 -38.5t-22.5 -36t-37 -27 t-53.5 -10.5t-53 10.5t-37 27t-23 36t-10 38.5h37z" />
<glyph unicode="&#x120;" horiz-adv-x="490" d="M247 34q34 0 62 12t48 32.5t31.5 48.5t11.5 60v128h-122v41h167v-163q0 -44 -14.5 -81t-41 -63.5t-63 -41t-80.5 -14.5q-45 0 -81.5 14.5t-62 40.5t-39.5 62.5t-14 81.5v313q0 43 14 79.5t40 62.5t62 40.5t81 14.5q68 0 119 -34t66 -100l-43 -13q-11 51 -49 78t-92 27 q-36 0 -64 -11.5t-48 -32.5t-30.5 -49.5t-10.5 -61.5v-317q0 -33 10.5 -61t30.5 -49t48.5 -32.5t63.5 -11.5zM218 767v51h48v-51h-48z" />
<glyph unicode="&#x121;" horiz-adv-x="427" d="M372 -19q0 -90 -43 -140t-129 -50q-45 0 -80.5 21t-53.5 63q5 3 18.5 9.5t18.5 10.5q13 -26 37 -45t61 -19q67 0 97 40t30 103v102h-2q-17 -32 -47.5 -57t-83.5 -25t-84 21t-46.5 55.5t-20 79t-4.5 92.5t4.5 94t21 82.5t47.5 58.5t85 22q38 0 71.5 -15.5t56.5 -58.5l2 1 v66h44v-511zM205 35q40 0 64.5 20t37.5 51t17 68t4 70t-2.5 71t-14 70t-36 53t-68.5 21q-40 0 -64.5 -16.5t-37.5 -45t-17 -67t-4 -82.5q0 -41 3 -79t15 -68t36 -48t67 -18zM171 597v51h48v-51h-48z" />
<glyph unicode="&#x122;" horiz-adv-x="490" d="M247 34q34 0 62 12t48 32.5t31.5 48.5t11.5 60v128h-122v41h167v-163q0 -44 -14.5 -81t-41 -63.5t-63 -41t-80.5 -14.5q-45 0 -81.5 14.5t-62 40.5t-39.5 62.5t-14 81.5v313q0 43 14 79.5t40 62.5t62 40.5t81 14.5q68 0 119 -34t66 -100l-43 -13q-11 51 -49 78t-92 27 q-36 0 -64 -11.5t-48 -32.5t-30.5 -49.5t-10.5 -61.5v-317q0 -33 10.5 -61t30.5 -49t48.5 -32.5t63.5 -11.5zM219 -219l23 88h-15v61h56v-61q-9 -22 -18.5 -43.5t-18.5 -44.5h-27z" />
<glyph unicode="&#x123;" horiz-adv-x="427" d="M372 -19q0 -90 -43 -140t-129 -50q-45 0 -80.5 21t-53.5 63q5 3 18.5 9.5t18.5 10.5q13 -26 37 -45t61 -19q67 0 97 40t30 103v102h-2q-17 -32 -47.5 -57t-83.5 -25t-84 21t-46.5 55.5t-20 79t-4.5 92.5t4.5 94t21 82.5t47.5 58.5t85 22q38 0 71.5 -15.5t56.5 -58.5l2 1 v66h44v-511zM205 35q40 0 64.5 20t37.5 51t17 68t4 70t-2.5 71t-14 70t-36 53t-68.5 21q-40 0 -64.5 -16.5t-37.5 -45t-17 -67t-4 -82.5q0 -41 3 -79t15 -68t36 -48t67 -18zM175 636q8 20 17 39.5t17 39.5h27l-20 -80h15v-61h-56v62z" />
<glyph unicode="&#x124;" horiz-adv-x="519" d="M408 0v334h-298v-334h-44v696h44v-321h298v321h46v-696h-46zM252 812l-120 -80l-18 19l123 105h34l118 -104l-18 -20z" />
<glyph unicode="&#x125;" horiz-adv-x="433" d="M336 0v334q0 57 -27 89.5t-84 32.5q-28 0 -51.5 -10t-41 -28t-27 -42.5t-9.5 -52.5v-323h-42v725h43v-301h2q21 38 57 56.5t75 18.5q72 0 110.5 -41.5t38.5 -109.5v-348h-44zM79 812l-120 -80l-18 19l123 105h34l118 -104l-18 -20z" />
<glyph unicode="&#x126;" horiz-adv-x="519" d="M408 0v334h-298v-334h-44v562h-49v33h49v101h44v-101h298v101h46v-101h50v-33h-50v-562h-46zM408 375v187h-298v-187h298z" />
<glyph unicode="&#x127;" horiz-adv-x="433" d="M336 0v334q0 57 -27 89.5t-84 32.5q-28 0 -51.5 -10t-41 -28t-27 -42.5t-9.5 -52.5v-323h-42v583h-54v34h54v108h43v-108h194v-34h-194v-159h2q21 38 57 56.5t75 18.5q72 0 110.5 -41.5t38.5 -109.5v-348h-44z" />
<glyph unicode="&#x128;" horiz-adv-x="194" d="M74 0v696h45v-696h-45zM44 838q15 0 30.5 -6.5t30.5 -14t30 -13.5t29 -6q28 0 53 40l27 -16q-16 -33 -36.5 -48t-43.5 -15q-15 0 -30.5 6t-30.5 13.5t-30 14t-29 6.5q-15 0 -28.5 -10t-27.5 -27l-26 16q16 28 37.5 44t44.5 16z" />
<glyph unicode="&#x129;" horiz-adv-x="242" d="M62 668q15 0 30.5 -6.5t30.5 -14t30 -13.5t29 -6q28 0 53 40l27 -16q-16 -33 -36.5 -48t-43.5 -15q-15 0 -30.5 6t-30.5 13.5t-30 14t-29 6.5q-15 0 -28.5 -10t-27.5 -27l-26 16q16 28 37.5 44t44.5 16zM100 0v493h43v-493h-43z" />
<glyph unicode="&#x12a;" horiz-adv-x="199" d="M76 0v696h45v-696h-45zM-15 759v41h229v-41h-229z" />
<glyph unicode="&#x12b;" horiz-adv-x="188" d="M-20 589v41h228v-41h-228zM71 0v493h43v-493h-43z" />
<glyph unicode="&#x12c;" horiz-adv-x="194" d="M16 852q5 -31 29 -53t57 -22q35 0 58 21.5t28 53.5h38q-3 -19 -11 -38.5t-23 -35.5t-37 -26.5t-53 -10.5t-53 10.5t-37 26.5t-23 35.5t-10 38.5h37zM74 0v696h45v-696h-45z" />
<glyph unicode="&#x12d;" horiz-adv-x="217" d="M22 680q5 -31 30 -53t56 -22q32 0 57 21.5t30 53.5h37q-3 -19 -11 -38.5t-22.5 -36t-37 -27t-53.5 -10.5t-53 10.5t-37 27t-23 36t-10 38.5h37zM88 0v493h43v-493h-43z" />
<glyph unicode="&#x12e;" horiz-adv-x="194" d="M40 -93q0 19 9 43.5t29 49.5h-4v696h45v-696h-3q-17 -22 -27 -45.5t-10 -40.5q0 -27 13.5 -39.5t36.5 -12.5q11 0 25 3.5t29 11.5l13 -29q-14 -9 -34 -15t-40 -6q-38 0 -60 24t-22 56z" />
<glyph unicode="&#x12f;" horiz-adv-x="177" d="M33 -92q0 19 9 43t29 49h-4v493h43v-493h-2q-17 -21 -26.5 -44.5t-9.5 -40.5q0 -27 13.5 -39.5t36.5 -12.5q11 0 25 3.5t29 11.5l13 -29q-14 -9 -34 -15t-40 -6q-38 0 -60 24t-22 56zM65 628v49h47v-49h-47z" />
<glyph unicode="&#x130;" horiz-adv-x="194" d="M74 0v696h45v-696h-45zM73 767v51h48v-51h-48z" />
<glyph unicode="&#x131;" horiz-adv-x="177" d="M67 0v493h43v-493h-43z" />
<glyph unicode="&#x132;" horiz-adv-x="567" d="M74 0v696h45v-696h-45zM496 169q0 -45 -14 -77.5t-38.5 -54.5t-58 -32.5t-72.5 -10.5q-31 0 -64.5 10.5t-56.5 32.5l30 33q41 -34 89 -34q28 0 53.5 6.5t44.5 23t30 44t11 68.5v518h46v-527z" />
<glyph unicode="&#x133;" horiz-adv-x="360" d="M292 -92q0 -50 -22.5 -81t-71.5 -31h-31v38h22q34 1 46 24t12 59v575h45v-584zM62 0v493h43v-493h-43zM246 628v48h48v-48h-48zM60 628v49h47v-49h-47z" />
<glyph unicode="&#x134;" horiz-adv-x="385" d="M316 170q0 -45 -14 -77.5t-38.5 -54.5t-58 -32.5t-72.5 -10.5q-31 0 -64.5 10.5t-56.5 32.5l30 33q41 -34 89 -34q28 0 53.5 6.5t44.5 23t30 44t11 68.5v518h46v-527zM293 814l-120 -80l-18 19l123 105h34l118 -104l-18 -20z" />
<glyph unicode="&#x135;" horiz-adv-x="235" d="M143 -92q0 -50 -22.5 -81t-71.5 -31h-31v38h22q34 1 46 24t12 59v575h45v-584zM118 651l-118 -97l-20 18l123 123h34l118 -121l-20 -19z" />
<glyph unicode="&#x136;" horiz-adv-x="501" d="M110 260q73 110 146 218t146 218h50l-180 -269l213 -427h-49l-192 387l-135 -198v-189h-45v696h45v-436h1zM228 -199l23 88h-15v61h56v-61q-9 -22 -18.5 -43.5t-18.5 -44.5h-27z" />
<glyph unicode="&#x137;" horiz-adv-x="413" d="M207 276l-108 -143v-133h-42v724h42v-525h1l222 293h50l-137 -181l172 -311h-48zM198 -219l23 88h-15v61h56v-61q-9 -22 -18.5 -43.5t-18.5 -44.5h-27z" />
<glyph unicode="&#x138;" horiz-adv-x="411" d="M358 0q-38 69 -75.5 138t-75.5 138l-108 -143v-133h-42v492h42v-293h1l223 293h49l-137 -181l171 -311h-48v0z" />
<glyph unicode="&#x139;" horiz-adv-x="431" d="M76 749l131 107l35 -37l-147 -91zM66 0v696h44v-653h303v-43h-347z" />
<glyph unicode="&#x13a;" horiz-adv-x="194" d="M64 759l131 107l35 -37l-147 -91zM160 -3q-23 0 -41.5 4.5t-31.5 15.5t-20 31t-7 50v626h43v-615q0 -36 12 -54.5t47 -18.5h19v-39h-21z" />
<glyph unicode="&#x13b;" horiz-adv-x="431" d="M66 0v696h44v-653h303v-43h-347zM198 -219l23 88h-15v61h56v-61q-9 -22 -18.5 -43.5t-18.5 -44.5h-27z" />
<glyph unicode="&#x13c;" horiz-adv-x="194" d="M160 -3q-23 0 -41.5 4.5t-31.5 15.5t-20 31t-7 50v626h43v-615q0 -36 12 -54.5t47 -18.5h19v-39h-21zM71 -211l23 88h-15v61h56v-61q-9 -22 -18.5 -43.5t-18.5 -44.5h-27z" />
<glyph unicode="&#x13d;" horiz-adv-x="431" d="M66 0v696h44v-653h303v-43h-347zM273 535l23 88h-15v61h56v-61q-9 -22 -18.5 -43.5t-18.5 -44.5h-27z" />
<glyph unicode="&#x13e;" horiz-adv-x="216" d="M160 -3q-23 0 -41.5 4.5t-31.5 15.5t-20 31t-7 50v626h43v-615q0 -36 12 -54.5t47 -18.5h19v-39h-21zM157 564l23 88h-15v61h56v-61q-9 -22 -18.5 -43.5t-18.5 -44.5h-27z" />
<glyph unicode="&#x13f;" horiz-adv-x="431" d="M66 0v696h44v-653h303v-43h-347zM288 311v51h48v-51h-48z" />
<glyph unicode="&#x140;" horiz-adv-x="219" d="M173 338v51h48v-51h-48zM160 -3q-23 0 -41.5 4.5t-31.5 15.5t-20 31t-7 50v626h43v-615q0 -36 12 -54.5t47 -18.5h19v-39h-21z" />
<glyph unicode="&#x141;" horiz-adv-x="436" d="M71 0v256l-54 -31l-17 29l71 41v401h44v-376l143 83l17 -29l-160 -93v-238h303v-43h-347z" />
<glyph unicode="&#x142;" horiz-adv-x="206" d="M169 -3q-23 0 -41.5 4.5t-31.5 15.5t-20 31t-7 50v207l-58 -33l-17 29l75 43v380h43v-356l77 45l16 -30l-93 -54v-220q0 -36 12 -54.5t47 -18.5h19v-39h-21z" />
<glyph unicode="&#x143;" horiz-adv-x="547" d="M110 0h-45v696h44l201 -365l126 -231h3v596h44v-696h-45q-50 92 -100 183.5t-101 184.5q-32 57 -63 114.5t-63 115.5h-1v-598zM236 749l131 106q8 -9 17 -18t17 -19l-147 -91z" />
<glyph unicode="&#x144;" horiz-adv-x="430" d="M334 0v334q0 57 -26.5 89.5t-83.5 32.5q-28 0 -51.5 -10t-41 -28t-27 -42.5t-9.5 -52.5v-323h-44v493h44v-68h2q21 38 57 56t74 18q72 0 111 -41.5t39 -109.5v-348h-44zM166 571l73 152l47 -18l-94 -145z" />
<glyph unicode="&#x145;" horiz-adv-x="547" d="M110 0h-45v696h44l201 -365l126 -231h3v596h44v-696h-45q-50 92 -100 183.5t-101 184.5q-32 57 -63 114.5t-63 115.5h-1v-598zM238 -199l23 88h-15v61h56v-61q-9 -22 -18.5 -43.5t-18.5 -44.5h-27z" />
<glyph unicode="&#x146;" horiz-adv-x="430" d="M334 0v334q0 57 -26.5 89.5t-83.5 32.5q-28 0 -51.5 -10t-41 -28t-27 -42.5t-9.5 -52.5v-323h-44v493h44v-68h2q21 38 57 56t74 18q72 0 111 -41.5t39 -109.5v-348h-44zM183 -219l23 88h-15v61h56v-61q-9 -22 -18.5 -43.5t-18.5 -44.5h-27z" />
<glyph unicode="&#x147;" horiz-adv-x="547" d="M110 0h-45v696h44l201 -365l126 -231h3v596h44v-696h-45q-50 92 -100 183.5t-101 184.5q-32 57 -63 114.5t-63 115.5h-1v-598zM398 856l19 -18l-119 -105h-34l-123 106l18 18l120 -80z" />
<glyph unicode="&#x148;" horiz-adv-x="430" d="M334 0v334q0 57 -26.5 89.5t-83.5 32.5q-28 0 -51.5 -10t-41 -28t-27 -42.5t-9.5 -52.5v-323h-44v493h44v-68h2q21 38 57 56t74 18q72 0 111 -41.5t39 -109.5v-348h-44zM312 696l20 -20l-118 -122h-34l-124 124l20 18l119 -97z" />
<glyph unicode="&#x149;" horiz-adv-x="454" d="M358 0v334q0 57 -26.5 89.5t-83.5 32.5q-28 0 -51.5 -10t-41 -28t-27 -42.5t-9.5 -52.5v-323h-44v493h44v-68h2q21 38 57 56t74 18q72 0 111 -41.5t39 -109.5v-348h-44zM6 508l23 88h-15v61h56v-61q-9 -22 -18.5 -43.5t-18.5 -44.5h-27z" />
<glyph unicode="&#x14a;" horiz-adv-x="553" d="M110 597v-597h-45v696h44l327 -599h3v599h44v-760q0 -54 -25 -75.5t-59 -21.5q-33 0 -64 16l13 33q12 -6 24.5 -9t20.5 -3q23 0 34.5 15t11.5 42v68q-54 97 -107 194.5t-107 194.5l-114 207h-1z" />
<glyph unicode="&#x14b;" horiz-adv-x="430" d="M378 -62q0 -54 -24 -77t-59 -23q-19 0 -33.5 4t-30.5 13l13 32q24 -11 44 -11q23 0 34.5 16t11.5 43v399q0 57 -27 89.5t-87 32.5q-28 0 -51 -10.5t-39.5 -28.5t-25.5 -42.5t-9 -52.5v-322h-44v493h44v-68h2q21 38 58.5 56t75.5 18q75 0 111 -41.5t36 -109.5v-410z" />
<glyph unicode="&#x14c;" horiz-adv-x="485" d="M439 193q0 -43 -14 -79.5t-39.5 -63.5t-62 -42t-80.5 -15q-48 0 -85 15.5t-62.5 42.5t-38.5 64.5t-13 81.5v309q0 40 13 76t38.5 62t62.5 41.5t85 15.5q45 0 81 -14.5t61.5 -40.5t39.5 -62t14 -78v-313zM394 504q0 31 -10 59t-29.5 49.5t-47.5 34t-64 12.5 q-37 0 -66 -12.5t-48.5 -33.5t-29.5 -49t-10 -60v-309q0 -71 40.5 -115.5t113.5 -44.5q34 0 61.5 12.5t47.5 33.5t31 49.5t11 60.5v313zM126 759v41h229v-41h-229z" />
<glyph unicode="&#x14d;" horiz-adv-x="419" d="M211 499q45 0 76 -15.5t51 -41.5q23 -27 31.5 -77t8.5 -120q0 -45 -4 -88.5t-15 -71.5q-19 -49 -58.5 -70t-94.5 -21q-42 0 -71 12.5t-48 35.5q-26 27 -36.5 77.5t-10.5 124.5q0 49 3.5 88.5t13.5 68.5q18 50 58.5 74t95.5 24zM210 459q-35 0 -63 -15t-44 -45 q-12 -23 -15.5 -63t-4.5 -96q0 -69 9 -109t29 -62q29 -37 88 -37q36 0 66.5 18t44.5 55q10 25 12.5 62.5t1.5 81.5q0 108 -19 146q-14 32 -41.5 48t-63.5 16zM95 589v41h228v-41h-228z" />
<glyph unicode="&#x14e;" horiz-adv-x="485" d="M439 193q0 -43 -14 -79.5t-39.5 -63.5t-62 -42t-80.5 -15q-48 0 -85 15.5t-62.5 42.5t-38.5 64.5t-13 81.5v309q0 40 13 76t38.5 62t62.5 41.5t85 15.5q45 0 81 -14.5t61.5 -40.5t39.5 -62t14 -78v-313zM394 504q0 31 -10 59t-29.5 49.5t-47.5 34t-64 12.5 q-37 0 -66 -12.5t-48.5 -33.5t-29.5 -49t-10 -60v-309q0 -71 40.5 -115.5t113.5 -44.5q34 0 61.5 12.5t47.5 33.5t31 49.5t11 60.5v313zM158 847q5 -31 29 -53t57 -22q35 0 58 21.5t28 53.5h38q-3 -19 -11 -38.5t-23 -35.5t-37 -26.5t-53 -10.5t-53 10.5t-37 26.5t-23 35.5 t-10 38.5h37z" />
<glyph unicode="&#x14f;" horiz-adv-x="419" d="M211 499q45 0 76 -15.5t51 -41.5q23 -27 31.5 -77t8.5 -120q0 -45 -4 -88.5t-15 -71.5q-19 -49 -58.5 -70t-94.5 -21q-42 0 -71 12.5t-48 35.5q-26 27 -36.5 77.5t-10.5 124.5q0 49 3.5 88.5t13.5 68.5q18 50 58.5 74t95.5 24zM210 459q-35 0 -63 -15t-44 -45 q-12 -23 -15.5 -63t-4.5 -96q0 -69 9 -109t29 -62q29 -37 88 -37q36 0 66.5 18t44.5 55q10 25 12.5 62.5t1.5 81.5q0 108 -19 146q-14 32 -41.5 48t-63.5 16zM122 674q5 -31 30 -53t56 -22q32 0 57 21.5t30 53.5h37q-3 -19 -11 -38.5t-22.5 -36t-37 -27t-53.5 -10.5 t-53 10.5t-37 27t-23 36t-10 38.5h37z" />
<glyph unicode="&#x150;" horiz-adv-x="485" d="M439 193q0 -43 -14 -79.5t-39.5 -63.5t-62 -42t-80.5 -15q-48 0 -85 15.5t-62.5 42.5t-38.5 64.5t-13 81.5v309q0 40 13 76t38.5 62t62.5 41.5t85 15.5q45 0 81 -14.5t61.5 -40.5t39.5 -62t14 -78v-313zM394 504q0 31 -10 59t-29.5 49.5t-47.5 34t-64 12.5 q-37 0 -66 -12.5t-48.5 -33.5t-29.5 -49t-10 -60v-309q0 -71 40.5 -115.5t113.5 -44.5q34 0 61.5 12.5t47.5 33.5t31 49.5t11 60.5v313zM130 750l131 106l34 -37l-147 -91zM250 750l132 106l34 -37l-148 -91z" />
<glyph unicode="&#x151;" horiz-adv-x="419" d="M211 499q45 0 76 -15.5t51 -41.5q23 -27 31.5 -77t8.5 -120q0 -45 -4 -88.5t-15 -71.5q-19 -49 -58.5 -70t-94.5 -21q-42 0 -71 12.5t-48 35.5q-26 27 -36.5 77.5t-10.5 124.5q0 49 3.5 88.5t13.5 68.5q18 50 58.5 74t95.5 24zM210 459q-35 0 -63 -15t-44 -45 q-12 -23 -15.5 -63t-4.5 -96q0 -69 9 -109t29 -62q29 -37 88 -37q36 0 66.5 18t44.5 55q10 25 12.5 62.5t1.5 81.5q0 108 -19 146q-14 32 -41.5 48t-63.5 16zM132 571l73 152l47 -18l-94 -145zM226 571l74 152l46 -18l-94 -145z" />
<glyph unicode="&#x152;" horiz-adv-x="691" d="M46 528q3 36 17 67.5t38.5 55t59.5 37t80 13.5q17 0 32 -2t30 -3h351v-42h-307v-279h265v-40h-265v-293h307v-42h-349q-27 -6 -64 -6q-82 0 -132.5 41.5t-60.5 113.5q-3 22 -3.5 43.5t-0.5 44.5v245v23.5t2 22.5zM242 658q-48 0 -78 -17t-47 -44.5t-23 -62.5t-6 -71v-244 q0 -41 8 -75t26.5 -58.5t48 -38t71.5 -13.5q33 0 60 9v607q-13 5 -28 6.5t-32 1.5z" />
<glyph unicode="&#x153;" horiz-adv-x="708" d="M516 -6q-69 0 -105.5 26t-52.5 75q-8 -21 -16 -33q-43 -68 -136 -68q-64 0 -101 27q-38 28 -51.5 81.5t-13.5 141.5q0 49 3.5 88.5t13.5 67.5q19 51 58.5 74.5t95.5 23.5q37 0 65.5 -11.5t48.5 -30.5q24 -24 34 -62q16 46 51 75t98 29q49 0 80.5 -17t50.5 -46t26.5 -68 t7.5 -82v-46h-293q0 -49 6 -87.5t21 -65t41 -40.5t66 -14q36 0 66 19t41 48l19 -9.5t18 -9.5q-17 -42 -55.5 -64t-86.5 -22zM629 275v2q0 32 -4.5 64.5t-17.5 58.5t-37 42t-62 16t-62 -15t-38.5 -40t-20 -58.5t-6.5 -69.5h248zM209 459q-35 0 -63 -15t-43 -46 q-12 -22 -16 -62t-4 -97q0 -45 3.5 -78.5t11.5 -57.5q12 -31 33 -49q14 -12 33.5 -17t43.5 -5q38 0 67.5 18.5t43.5 55.5q9 26 12 62t3 80q0 55 -5.5 91.5t-13.5 55.5q-14 32 -41.5 48t-64.5 16z" />
<glyph unicode="&#x154;" horiz-adv-x="491" d="M267 696q94 0 140.5 -48.5t46.5 -134.5q0 -72 -34.5 -121t-103.5 -65q34 -79 70 -163.5t71 -163.5h-52q-34 81 -67.5 161t-66.5 161q-14 -1 -28.5 -1h-29.5h-102v-321h-45v696h201zM111 655v-295h146q72 0 111.5 37.5t39.5 114.5q0 72 -39 107.5t-111 35.5h-147zM180 749 l131 107l35 -37l-147 -91z" />
<glyph unicode="&#x155;" horiz-adv-x="287" d="M109 416q20 47 54.5 65t76.5 18q26 0 47 -6l-10 -47q-11 5 -22.5 6.5t-22.5 1.5q-57 0 -91.5 -38t-34.5 -106v-310h-42v493h42v-77h3zM115 571l73 152l47 -18l-94 -145z" />
<glyph unicode="&#x156;" horiz-adv-x="491" d="M267 696q94 0 140.5 -48.5t46.5 -134.5q0 -72 -34.5 -121t-103.5 -65q34 -79 70 -163.5t71 -163.5h-52q-34 81 -67.5 161t-66.5 161q-14 -1 -28.5 -1h-29.5h-102v-321h-45v696h201zM111 655v-295h146q72 0 111.5 37.5t39.5 114.5q0 72 -39 107.5t-111 35.5h-147z M208 -199l23 88h-15v61h56v-61q-9 -22 -18.5 -43.5t-18.5 -44.5h-27z" />
<glyph unicode="&#x157;" horiz-adv-x="287" d="M109 416q20 47 54.5 65t76.5 18q26 0 47 -6l-10 -47q-11 5 -22.5 6.5t-22.5 1.5q-57 0 -91.5 -38t-34.5 -106v-310h-42v493h42v-77h3zM50 -219l23 88h-15v61h56v-61q-9 -22 -18.5 -43.5t-18.5 -44.5h-27z" />
<glyph unicode="&#x158;" horiz-adv-x="491" d="M267 696q94 0 140.5 -48.5t46.5 -134.5q0 -72 -34.5 -121t-103.5 -65q34 -79 70 -163.5t71 -163.5h-52q-34 81 -67.5 161t-66.5 161q-14 -1 -28.5 -1h-29.5h-102v-321h-45v696h201zM111 655v-295h146q72 0 111.5 37.5t39.5 114.5q0 72 -39 107.5t-111 35.5h-147zM349 856 l19 -18l-119 -105h-34l-123 106l18 18l120 -80z" />
<glyph unicode="&#x159;" horiz-adv-x="287" d="M109 416q20 47 54.5 65t76.5 18q26 0 47 -6l-10 -47q-11 5 -22.5 6.5t-22.5 1.5q-57 0 -91.5 -38t-34.5 -106v-310h-42v493h42v-77h3zM250 696l20 -20l-118 -122h-34l-124 124l20 18l119 -97z" />
<glyph unicode="&#x15a;" horiz-adv-x="463" d="M429 181q0 -86 -50 -136.5t-149 -50.5q-77 0 -125.5 29.5t-74.5 80.5l39 23q22 -38 61.5 -64.5t100.5 -26.5q76 0 113 40t37 105q0 37 -10.5 62t-29.5 42t-46.5 28.5t-61.5 22.5q-49 15 -84.5 31t-58.5 37t-34 49t-11 67q0 40 12.5 73.5t36.5 57.5t59 37.5t80 13.5 q75 0 115.5 -22.5t66.5 -62.5l-40 -27q-20 34 -54 52t-89 18q-68 0 -104.5 -40t-36.5 -100q0 -32 11.5 -54t32 -38t50 -28t65.5 -24q45 -14 78.5 -30t56 -37.5t33.5 -52.5t11 -75zM187 749l131 107l35 -37l-147 -91z" />
<glyph unicode="&#x15b;" horiz-adv-x="391" d="M64 104q34 -72 131 -72q49 0 83 24t34 76q0 26 -8.5 42.5t-24 28t-37 18.5t-47.5 14q-35 9 -63.5 19.5t-49 25.5t-32 36t-11.5 51q0 61 41 96.5t114 35.5q117 0 151 -81l-37 -20q-15 32 -44 46.5t-71 14.5q-54 0 -81.5 -26t-27.5 -66q0 -23 9.5 -37.5t27 -25t41 -17.5 t50.5 -14q35 -8 62 -18.5t45.5 -27t28 -39.5t9.5 -57q0 -30 -10 -55t-30.5 -43.5t-52 -29t-73.5 -10.5q-60 0 -101 21t-64 69zM161 571l73 152l47 -18l-94 -145z" />
<glyph unicode="&#x15c;" horiz-adv-x="463" d="M429 181q0 -86 -50 -136.5t-149 -50.5q-77 0 -125.5 29.5t-74.5 80.5l39 23q22 -38 61.5 -64.5t100.5 -26.5q76 0 113 40t37 105q0 37 -10.5 62t-29.5 42t-46.5 28.5t-61.5 22.5q-49 15 -84.5 31t-58.5 37t-34 49t-11 67q0 40 12.5 73.5t36.5 57.5t59 37.5t80 13.5 q75 0 115.5 -22.5t66.5 -62.5l-40 -27q-20 34 -54 52t-89 18q-68 0 -104.5 -40t-36.5 -100q0 -32 11.5 -54t32 -38t50 -28t65.5 -24q45 -14 78.5 -30t56 -37.5t33.5 -52.5t11 -75zM232 812l-120 -80l-18 19l123 105h34l118 -104l-18 -20z" />
<glyph unicode="&#x15d;" horiz-adv-x="391" d="M64 104q34 -72 131 -72q49 0 83 24t34 76q0 26 -8.5 42.5t-24 28t-37 18.5t-47.5 14q-35 9 -63.5 19.5t-49 25.5t-32 36t-11.5 51q0 61 41 96.5t114 35.5q117 0 151 -81l-37 -20q-15 32 -44 46.5t-71 14.5q-54 0 -81.5 -26t-27.5 -66q0 -23 9.5 -37.5t27 -25t41 -17.5 t50.5 -14q35 -8 62 -18.5t45.5 -27t28 -39.5t9.5 -57q0 -30 -10 -55t-30.5 -43.5t-52 -29t-73.5 -10.5q-60 0 -101 21t-64 69zM196 651l-118 -97l-21 18l124 123h34l118 -121l-20 -19z" />
<glyph unicode="&#x15e;" horiz-adv-x="463" d="M429 181q0 -84 -47 -133.5t-140 -53.5q-4 -11 -7 -23t-7 -24q25 -1 42 -9t27 -19t14 -23.5t4 -22.5q0 -12 -4.5 -24.5t-15 -23t-26.5 -17t-38 -6.5q-12 0 -33 2t-44 12l10 25q17 -7 33.5 -9.5t29.5 -2.5q20 0 36 10t16 34q0 20 -14 33t-38 13h-5.5t-8.5 -1l-18 14l18 63 q-69 3 -113.5 31.5t-69.5 77.5l39 23q22 -38 61.5 -64.5t100.5 -26.5q76 0 113 40t37 105q0 37 -10.5 62t-29.5 42t-46.5 28.5t-61.5 22.5q-49 15 -84.5 31t-58.5 37t-34 49t-11 67q0 40 12.5 73.5t36.5 57.5t59 37.5t80 13.5q75 0 115.5 -22.5t66.5 -62.5l-40 -27 q-20 34 -54 52t-89 18q-68 0 -104.5 -40t-36.5 -100q0 -32 11.5 -54t32 -38t50 -28t65.5 -24q45 -14 78.5 -30t56 -37.5t33.5 -52.5t11 -75z" />
<glyph unicode="&#x15f;" horiz-adv-x="391" d="M64 104q34 -72 131 -72q49 0 83 24t34 76q0 26 -8.5 42.5t-24 28t-37 18.5t-47.5 14q-35 9 -63.5 19.5t-49 25.5t-32 36t-11.5 51q0 61 41 96.5t114 35.5q117 0 151 -81l-37 -20q-15 32 -44 46.5t-71 14.5q-54 0 -81.5 -26t-27.5 -66q0 -23 9.5 -37.5t27 -25t41 -17.5 t50.5 -14q35 -8 62 -18.5t45.5 -27t28 -39.5t9.5 -57q0 -57 -37 -95t-114 -42q-4 -11 -7 -23t-7 -24q25 -1 42 -9t27 -19t14 -23.5t4 -22.5q0 -12 -4.5 -24.5t-15 -23t-26.5 -17t-38 -6.5q-12 0 -33 2t-44 12l10 25q17 -7 33.5 -9.5t29.5 -2.5q20 0 36 10t16 34q0 20 -14 33 t-38 13h-5.5t-8.5 -1l-18 14l18 61q-54 2 -91.5 23.5t-59.5 66.5z" />
<glyph unicode="&#x160;" horiz-adv-x="463" d="M429 181q0 -86 -50 -136.5t-149 -50.5q-77 0 -125.5 29.5t-74.5 80.5l39 23q22 -38 61.5 -64.5t100.5 -26.5q76 0 113 40t37 105q0 37 -10.5 62t-29.5 42t-46.5 28.5t-61.5 22.5q-49 15 -84.5 31t-58.5 37t-34 49t-11 67q0 40 12.5 73.5t36.5 57.5t59 37.5t80 13.5 q75 0 115.5 -22.5t66.5 -62.5l-40 -27q-20 34 -54 52t-89 18q-68 0 -104.5 -40t-36.5 -100q0 -32 11.5 -54t32 -38t50 -28t65.5 -24q45 -14 78.5 -30t56 -37.5t33.5 -52.5t11 -75zM338 856l19 -18l-119 -105h-34l-123 106l18 18l120 -80z" />
<glyph unicode="&#x161;" horiz-adv-x="391" d="M64 104q34 -72 131 -72q49 0 83 24t34 76q0 26 -8.5 42.5t-24 28t-37 18.5t-47.5 14q-35 9 -63.5 19.5t-49 25.5t-32 36t-11.5 51q0 61 41 96.5t114 35.5q117 0 151 -81l-37 -20q-15 32 -44 46.5t-71 14.5q-54 0 -81.5 -26t-27.5 -66q0 -23 9.5 -37.5t27 -25t41 -17.5 t50.5 -14q35 -8 62 -18.5t45.5 -27t28 -39.5t9.5 -57q0 -30 -10 -55t-30.5 -43.5t-52 -29t-73.5 -10.5q-60 0 -101 21t-64 69zM298 696l20 -20l-118 -122h-34l-124 124l20 18l119 -97z" />
<glyph unicode="&#x162;" horiz-adv-x="399" d="M222 655v-655h-44v655h-172v41h386v-41h-170zM165 -219l23 88h-15v61h56v-61q-9 -22 -18.5 -43.5t-18.5 -44.5h-27z" />
<glyph unicode="&#x163;" horiz-adv-x="238" d="M180 0q-50 0 -74.5 27.5t-24.5 80.5v348h-62v36h62v135h44v-135h83v-36h-83v-338q0 -36 12 -58t53 -22h27v-38h-37zM81 -219l23 88h-15v61h56v-61q-9 -22 -18.5 -43.5t-18.5 -44.5h-27z" />
<glyph unicode="&#x164;" horiz-adv-x="399" d="M222 655v-655h-44v655h-172v41h386v-41h-170zM322 856l19 -18l-119 -105h-34l-123 106l18 18l120 -80z" />
<glyph unicode="&#x165;" horiz-adv-x="245" d="M180 0q-50 0 -74.5 27.5t-24.5 80.5v348h-62v36h62v135h44v-135h83v-36h-83v-338q0 -36 12 -58t53 -22h27v-38h-37zM194 590l23 88h-15v61h56v-61q-9 -22 -18.5 -43.5t-18.5 -44.5h-27z" />
<glyph unicode="&#x166;" horiz-adv-x="399" d="M222 655v-262h133v-37h-133v-356h-44v356h-128v37h128v262h-172v41h386v-41h-170z" />
<glyph unicode="&#x167;" horiz-adv-x="238" d="M180 0q-50 0 -74.5 27.5t-24.5 80.5v209h-63v37h63v102h-62v36h62v135h44v-135h83v-36h-83v-102h79v-37h-79v-199q0 -36 12 -58t53 -22h27v-38h-37z" />
<glyph unicode="&#x168;" horiz-adv-x="500" d="M447 696v-511q0 -46 -15.5 -81.5t-42.5 -60t-63 -37t-76 -12.5q-41 0 -77 13t-62.5 38t-42 61t-15.5 82v508h44v-505q0 -35 12 -63.5t32.5 -48.5t48.5 -31.5t60 -11.5q31 0 59 10t48.5 29.5t32.5 47.5t12 65v508h45zM193 838q15 0 30.5 -6.5t30.5 -14t30 -13.5t29 -6 q28 0 53 40l27 -16q-16 -33 -36.5 -48t-43.5 -15q-15 0 -30.5 6t-30.5 13.5t-30 14t-29 6.5q-15 0 -28.5 -10t-27.5 -27l-26 16q16 28 37.5 44t44.5 16z" />
<glyph unicode="&#x169;" horiz-adv-x="438" d="M338 0v68h-3q-21 -39 -57 -56.5t-74 -17.5q-72 0 -111 41.5t-39 108.5v349h44v-334q0 -57 30.5 -90.5t86.5 -33.5q28 0 50.5 10.5t38.5 28.5t25 42.5t9 53.5v323h42v-493h-42zM148 668q15 0 30.5 -6.5t30.5 -14t30 -13.5t29 -6q28 0 53 40l27 -16q-16 -33 -36.5 -48 t-43.5 -15q-15 0 -30.5 6t-30.5 13.5t-30 14t-29 6.5q-15 0 -28.5 -10t-27.5 -27l-26 16q16 28 37.5 44t44.5 16z" />
<glyph unicode="&#x16a;" horiz-adv-x="500" d="M447 696v-511q0 -46 -15.5 -81.5t-42.5 -60t-63 -37t-76 -12.5q-41 0 -77 13t-62.5 38t-42 61t-15.5 82v508h44v-505q0 -35 12 -63.5t32.5 -48.5t48.5 -31.5t60 -11.5q31 0 59 10t48.5 29.5t32.5 47.5t12 65v508h45zM137 759v41h229v-41h-229z" />
<glyph unicode="&#x16b;" horiz-adv-x="438" d="M338 0v68h-3q-21 -39 -57 -56.5t-74 -17.5q-72 0 -111 41.5t-39 108.5v349h44v-334q0 -57 30.5 -90.5t86.5 -33.5q28 0 50.5 10.5t38.5 28.5t25 42.5t9 53.5v323h42v-493h-42zM100 589v41h228v-41h-228z" />
<glyph unicode="&#x16c;" horiz-adv-x="500" d="M447 696v-511q0 -46 -15.5 -81.5t-42.5 -60t-63 -37t-76 -12.5q-41 0 -77 13t-62.5 38t-42 61t-15.5 82v508h44v-505q0 -35 12 -63.5t32.5 -48.5t48.5 -31.5t60 -11.5q31 0 59 10t48.5 29.5t32.5 47.5t12 65v508h45zM163 824q5 -31 30 -53t56 -22q32 0 57 21.5t30 53.5 h37q-3 -19 -11 -38.5t-22.5 -36t-37 -27t-53.5 -10.5t-53 10.5t-37 27t-23 36t-10 38.5h37z" />
<glyph unicode="&#x16d;" horiz-adv-x="438" d="M338 0v68h-3q-21 -39 -57 -56.5t-74 -17.5q-72 0 -111 41.5t-39 108.5v349h44v-334q0 -57 30.5 -90.5t86.5 -33.5q28 0 50.5 10.5t38.5 28.5t25 42.5t9 53.5v323h42v-493h-42zM134 674q5 -31 30 -53t56 -22q32 0 57 21.5t30 53.5h37q-3 -19 -11 -38.5t-22.5 -36t-37 -27 t-53.5 -10.5t-53 10.5t-37 27t-23 36t-10 38.5h37z" />
<glyph unicode="&#x16e;" horiz-adv-x="500" d="M447 696v-511q0 -46 -15.5 -81.5t-42.5 -60t-63 -37t-76 -12.5q-41 0 -77 13t-62.5 38t-42 61t-15.5 82v508h44v-505q0 -35 12 -63.5t32.5 -48.5t48.5 -31.5t60 -11.5q31 0 59 10t48.5 29.5t32.5 47.5t12 65v508h45zM249 716q-35 0 -59 24.5t-24 57.5q0 18 6.5 33 t17.5 26.5t26.5 18t32.5 6.5t32 -6.5t26 -18t17.5 -26.5t6.5 -33q0 -33 -24 -57.5t-58 -24.5zM249 855q-23 0 -40 -16.5t-17 -40.5q0 -23 17 -39t40 -16t39.5 16t16.5 39q0 24 -16.5 40.5t-39.5 16.5z" />
<glyph unicode="&#x16f;" horiz-adv-x="438" d="M338 0v68h-3q-21 -39 -57 -56.5t-74 -17.5q-72 0 -111 41.5t-39 108.5v349h44v-334q0 -57 30.5 -90.5t86.5 -33.5q28 0 50.5 10.5t38.5 28.5t25 42.5t9 53.5v323h42v-493h-42zM221 554q-35 0 -59 24.5t-24 57.5q0 18 6.5 33t17.5 26.5t26.5 18t32.5 6.5t32 -6.5t26 -18 t17.5 -26.5t6.5 -33q0 -33 -24 -57.5t-58 -24.5zM221 693q-23 0 -40 -16.5t-17 -40.5q0 -23 17 -39t40 -16t39.5 16t16.5 39q0 24 -16.5 40.5t-39.5 16.5z" />
<glyph unicode="&#x170;" horiz-adv-x="500" d="M447 696v-511q0 -46 -15.5 -81.5t-42.5 -60t-63 -37t-76 -12.5q-41 0 -77 13t-62.5 38t-42 61t-15.5 82v508h44v-505q0 -35 12 -63.5t32.5 -48.5t48.5 -31.5t60 -11.5q31 0 59 10t48.5 29.5t32.5 47.5t12 65v508h45zM151 750l131 106l34 -37l-147 -91zM271 750l132 106 l34 -37l-148 -91z" />
<glyph unicode="&#x171;" horiz-adv-x="438" d="M338 0v68h-3q-21 -39 -57 -56.5t-74 -17.5q-72 0 -111 41.5t-39 108.5v349h44v-334q0 -57 30.5 -90.5t86.5 -33.5q28 0 50.5 10.5t38.5 28.5t25 42.5t9 53.5v323h42v-493h-42zM139 571l73 152l47 -18l-94 -145zM233 571l74 152l46 -18l-94 -145z" />
<glyph unicode="&#x172;" horiz-adv-x="500" d="M208 -91q0 17 7.5 39.5t24.5 45.5q-39 1 -73.5 15t-59.5 39t-39.5 60t-14.5 80v508h44v-505q0 -35 12 -63.5t32.5 -48.5t48.5 -31.5t60 -11.5q31 0 59 10t48.5 29.5t32.5 47.5t12 65v508h45v-511q0 -42 -13 -75t-35.5 -57t-53 -38.5t-66.5 -18.5q-15 -21 -23.5 -42.5 t-8.5 -37.5q0 -27 13.5 -39.5t36.5 -12.5q11 0 25 3.5t29 11.5l13 -29q-14 -9 -34 -15t-40 -6q-38 0 -60 24t-22 56z" />
<glyph unicode="&#x173;" horiz-adv-x="438" d="M297 -91q0 20 9.5 45t31.5 51v63h-3q-21 -39 -57 -56.5t-74 -17.5q-72 0 -111 41.5t-39 108.5v349h44v-334q0 -57 30.5 -90.5t86.5 -33.5q28 0 50.5 10.5t38.5 28.5t25 42.5t9 53.5v323h42v-493h-9q-16 -21 -25.5 -44t-9.5 -40q0 -27 13.5 -39.5t36.5 -12.5q11 0 25 3.5 t29 11.5l13 -29q-14 -9 -34 -15t-40 -6q-38 0 -60 24t-22 56z" />
<glyph unicode="&#x174;" horiz-adv-x="695" d="M346 604q-11 -47 -21.5 -93t-21.5 -93l-96 -418h-47q-36 175 -71.5 348t-72.5 348h45q5 -27 15 -75.5t22 -107.5t24.5 -124t24.5 -124.5t21.5 -109t14.5 -78.5h3q15 68 29.5 130t31.5 135l82 354h39l96 -418l47 -201h2l39 201q6 29 13.5 65.5t15 76.5t15 80.5t14.5 77.5 t13 67.5t11 50.5h46l-144 -696h-47l-97 418q-11 47 -22 93t-22 93h-2zM347 812l-120 -80l-18 19l123 105h34l118 -104l-18 -20z" />
<glyph unicode="&#x175;" horiz-adv-x="614" d="M471 0h-44l-74 258q-2 7 -8.5 29.5t-14 49t-14.5 49t-9 29.5h-1l-45 -162l-73 -253h-44l-135 492h46q4 -17 13 -51.5t20.5 -77t23.5 -88.5t22.5 -87.5t19 -73t11.5 -44.5h3q11 39 21.5 77.5t21.5 76.5l8 28t13.5 48t16 58t16.5 58t13.5 47.5t7.5 28.5h44q19 -67 37 -133 t36 -133q11 -39 22 -78.5t22 -78.5h2l42 156q17 67 34 133.5t35 133.5h46zM308 651l-118 -97l-21 18l124 123h34l118 -121l-20 -19z" />
<glyph unicode="&#x176;" horiz-adv-x="413" d="M206 341l60 145q5 12 18 41.5t27 63t27 63.5t18 42h46l-176 -406v-290h-43v290l-176 406h47l90 -211zM210 812l-120 -80l-18 19l123 105h34l118 -104l-18 -20z" />
<glyph unicode="&#x177;" horiz-adv-x="366" d="M185 66q3 12 13 44.5t23.5 76t28 92t28 91.5t23 76t13.5 45h46q-47 -152 -93 -301.5t-94 -300.5q-14 -48 -39 -71t-68 -23h-20v38h16q32 0 48 21.5t27 58.5l27 87q-41 123 -79 245t-79 246h47l68 -217l62 -208h2zM188 651l-118 -97l-21 18l124 123h34l118 -121l-20 -19z " />
<glyph unicode="&#x178;" horiz-adv-x="413" d="M206 341l60 145q5 12 18 41.5t27 63t27 63.5t18 42h46l-176 -406v-290h-43v290l-176 406h47l90 -211zM105 747v51h49v-51h-49zM268 747v51h48v-51h-48z" />
<glyph unicode="&#x179;" horiz-adv-x="396" d="M23 0v41l302 614h-285v41h332v-40l-301 -614h296v-42h-344zM164 749l131 107l35 -37l-147 -91z" />
<glyph unicode="&#x17a;" horiz-adv-x="351" d="M25 0v38l253 416h-236v38h285v-37l-252 -416h249v-39h-299zM160 571l73 152l47 -18l-94 -145z" />
<glyph unicode="&#x17b;" horiz-adv-x="396" d="M23 0v41l302 614h-285v41h332v-40l-301 -614h296v-42h-344zM187 767v51h48v-51h-48z" />
<glyph unicode="&#x17c;" horiz-adv-x="351" d="M25 0v38l253 416h-236v38h285v-37l-252 -416h249v-39h-299zM167 597v51h48v-51h-48z" />
<glyph unicode="&#x17d;" horiz-adv-x="396" d="M23 0v41l302 614h-285v41h332v-40l-301 -614h296v-42h-344zM324 856l19 -18l-119 -105h-34l-123 106l18 18l120 -80z" />
<glyph unicode="&#x17e;" horiz-adv-x="351" d="M25 0v38l253 416h-236v38h285v-37l-252 -416h249v-39h-299zM295 696l20 -20l-118 -122h-34l-124 124l20 18l119 -97z" />
<glyph unicode="&#x192;" horiz-adv-x="410" d="M106 407h89l16 120q5 38 15 70t27.5 55t43.5 36t62 13q15 0 30.5 -2.5t29.5 -6.5q-2 -9 -4.5 -18t-6.5 -22q-27 8 -50 8q-42 0 -69 -30t-36 -104q-2 -11 -3.5 -27t-4 -32.5t-4.5 -32.5t-4 -27h102v-38h-106l-36 -274q-11 -91 -44.5 -139.5t-101.5 -48.5q-14 0 -31.5 2.5 t-31.5 7.5q2 7 6 19l6 18q26 -8 48 -8q45 0 69.5 34t35.5 113q1 6 4 27.5t6.5 50t8 60.5t8 60.5t6.5 50t4 27.5h-84v38z" />
<glyph unicode="&#x1a0;" horiz-adv-x="499" d="M439 193q0 -43 -14 -79.5t-39.5 -63.5t-62 -42t-80.5 -15q-48 0 -85 15.5t-62.5 42.5t-38.5 64.5t-13 81.5v309q0 40 13 76t38.5 62t62.5 41.5t85 15.5t86 -17t64 -47q35 2 49.5 27t14.5 71v35h41v-31q0 -56 -18 -91.5t-63 -45.5q22 -44 22 -96v-313zM394 504 q0 31 -10 59t-29.5 49.5t-47.5 34t-64 12.5q-37 0 -66 -12.5t-48.5 -33.5t-29.5 -49t-10 -60v-309q0 -71 40.5 -115.5t113.5 -44.5q34 0 61.5 12.5t47.5 33.5t31 49.5t11 60.5v313z" />
<glyph unicode="&#x1a1;" horiz-adv-x="444" d="M211 499q45 0 76 -15.5t51 -41.5q0 -1 1 -1h2q38 0 53.5 25t15.5 73v35h41v-37q0 -57 -21 -91.5t-71 -41.5q11 -29 15 -68.5t4 -90.5q0 -45 -4 -88.5t-15 -71.5q-19 -49 -58.5 -70t-94.5 -21q-42 0 -71 12.5t-48 35.5q-26 27 -36.5 77.5t-10.5 124.5q0 49 3.5 88.5 t13.5 68.5q18 50 58.5 74t95.5 24zM210 459q-35 0 -63 -15t-44 -45q-12 -23 -15.5 -63t-4.5 -96q0 -69 9 -109t29 -62q29 -37 88 -37q36 0 66.5 18t44.5 55q10 25 12.5 62.5t1.5 81.5q0 108 -19 146q-14 32 -41.5 48t-63.5 16z" />
<glyph unicode="&#x1af;" horiz-adv-x="537" d="M447 696v-58q37 0 53 24.5t16 72.5v35h40v-37q0 -63 -24.5 -97t-84.5 -36v-415q0 -46 -15.5 -81.5t-42.5 -60t-63 -37t-76 -12.5q-41 0 -77 13t-62.5 38t-42 61t-15.5 82v508h44v-505q0 -35 12 -63.5t32.5 -48.5t48.5 -31.5t60 -11.5q31 0 59 10t48.5 29.5t32.5 47.5 t12 65v508h45z" />
<glyph unicode="&#x1b0;" horiz-adv-x="479" d="M338 0v68h-3q-21 -39 -57 -56.5t-74 -17.5q-72 0 -111 41.5t-39 108.5v349h44v-334q0 -57 30.5 -90.5t86.5 -33.5q28 0 50.5 10.5t38.5 28.5t25 42.5t9 53.5v323h42v-52q38 0 53.5 25t15.5 73v35h41v-37q0 -63 -25 -97.5t-85 -36.5v-403h-42z" />
<glyph unicode="&#x1fc;" horiz-adv-x="772" d="M392 187h-242l-99 -187h-48q91 175 182 348t183 348h377v-42h-308v-279h266v-40h-266v-293h308v-42h-353v187zM171 228h221v424h-1zM475 749l131 107l35 -37l-147 -91z" />
<glyph unicode="&#x1fd;" horiz-adv-x="689" d="M497 -6q-51 0 -93 21t-62 72q-26 -51 -67 -72t-99 -21q-69 0 -107.5 37t-38.5 100q0 74 43 112t121 38h123v76q0 46 -26 73.5t-86 27.5q-33 0 -65 -12t-52 -39l-32 25q26 35 64.5 50.5t83.5 15.5q53 0 92 -16.5t55 -61.5q21 42 57 60t80 18q49 0 81.5 -17t51.5 -45.5 t26.5 -66.5t7.5 -81v-46h-293q0 -36 4 -73.5t17.5 -68t40 -50t70.5 -19.5q37 0 64 18t42 45l35 -21q-20 -40 -56.5 -59.5t-81.5 -19.5zM190 242q-21 0 -42 -4.5t-38 -17t-27.5 -33.5t-10.5 -54q0 -45 29 -72.5t88 -27.5q31 0 55 9.5t40 25.5t24.5 37t8.5 44v93h-127z M611 279q0 33 -5 65t-18 57.5t-37 41t-61 15.5q-38 0 -62 -15t-38.5 -40t-20 -57.5t-6.5 -66.5h248zM326 571l73 152l47 -18l-94 -145z" />
<glyph unicode="&#x1fe;" horiz-adv-x="485" d="M439 193q0 -43 -14 -79.5t-39.5 -63.5t-62 -42t-80.5 -15q-49 0 -85.5 15.5t-62.5 42.5l-32 -58q-6 4 -12.5 7t-11.5 7l37 68q-32 50 -32 122v309q0 40 13 76t38.5 62t62.5 41.5t85 15.5q45 0 80.5 -14.5t61.5 -40.5q8 14 15.5 29t15.5 29l26 -15q-9 -17 -18.5 -33.5 t-18.5 -33.5q34 -49 34 -116v-313zM394 504q0 37 -15 69l-261 -479q20 -28 51.5 -43.5t73.5 -15.5q34 0 61.5 12.5t47.5 33.5t31 49.5t11 60.5v313zM362 604q-20 25 -49.5 40t-69.5 15q-37 0 -66 -12.5t-48.5 -33.5t-29.5 -49t-10 -60v-309q0 -42 13 -72zM180 749l131 107 l35 -37l-147 -91z" />
<glyph unicode="&#x1ff;" horiz-adv-x="419" d="M211 499q38 0 66 -11.5t48 -31.5l29 45l24 -16l-34 -52q20 -28 27 -75.5t7 -112.5q0 -45 -4 -88.5t-15 -71.5q-19 -49 -58.5 -70t-94.5 -21q-41 0 -69 11.5t-47 32.5l-28 -43l-22 16l32 50q-18 29 -25 74.5t-7 108.5q0 49 3.5 88.5t13.5 68.5q18 50 58.5 74t95.5 24z M334 249q0 102 -17 141l-203 -314l7 -7q29 -37 88 -37q36 0 66.5 18t44.5 55q10 25 12.5 62.5t1.5 81.5zM210 459q-35 0 -63 -15t-44 -45q-12 -23 -15.5 -63t-4.5 -96q0 -91 16 -136l202 315q-32 40 -91 40zM186 571l73 152l47 -18l-94 -145z" />
<glyph unicode="&#x218;" horiz-adv-x="463" d="M429 181q0 -86 -50 -136.5t-149 -50.5q-77 0 -125.5 29.5t-74.5 80.5l39 23q22 -38 61.5 -64.5t100.5 -26.5q76 0 113 40t37 105q0 37 -10.5 62t-29.5 42t-46.5 28.5t-61.5 22.5q-49 15 -84.5 31t-58.5 37t-34 49t-11 67q0 40 12.5 73.5t36.5 57.5t59 37.5t80 13.5 q75 0 115.5 -22.5t66.5 -62.5l-40 -27q-20 34 -54 52t-89 18q-68 0 -104.5 -40t-36.5 -100q0 -32 11.5 -54t32 -38t50 -28t65.5 -24q45 -14 78.5 -30t56 -37.5t33.5 -52.5t11 -75zM194 -219l23 88h-15v61h56v-61q-9 -22 -18.5 -43.5t-18.5 -44.5h-27z" />
<glyph unicode="&#x219;" horiz-adv-x="391" d="M64 104q34 -72 131 -72q49 0 83 24t34 76q0 26 -8.5 42.5t-24 28t-37 18.5t-47.5 14q-35 9 -63.5 19.5t-49 25.5t-32 36t-11.5 51q0 61 41 96.5t114 35.5q117 0 151 -81l-37 -20q-15 32 -44 46.5t-71 14.5q-54 0 -81.5 -26t-27.5 -66q0 -23 9.5 -37.5t27 -25t41 -17.5 t50.5 -14q35 -8 62 -18.5t45.5 -27t28 -39.5t9.5 -57q0 -30 -10 -55t-30.5 -43.5t-52 -29t-73.5 -10.5q-60 0 -101 21t-64 69zM155 -219l23 88h-15v61h56v-61q-9 -22 -18.5 -43.5t-18.5 -44.5h-27z" />
<glyph unicode="&#x259;" horiz-adv-x="406" d="M47 412q17 42 59 65t90 23q53 0 87 -18t54 -52t27.5 -82t7.5 -108q0 -47 -7 -91t-26 -78.5t-52.5 -55.5t-85.5 -21q-49 0 -81 17t-51 46.5t-26.5 68t-7.5 81.5v47h293q0 48 -6.5 86.5t-21.5 65t-40.5 41t-63.5 14.5q-36 0 -67 -19.5t-44 -47.5zM80 214q0 -36 4.5 -68 t18 -57t36.5 -39.5t61 -14.5t62 15t38.5 40t20 58t6.5 69h-247v-3z" />
<glyph unicode="&#x2b9;" horiz-adv-x="190" d="M193 671l-123 -248l-32 8l94 255z" />
<glyph unicode="&#x2c6;" horiz-adv-x="433" d="M218 651l-118 -97l-21 18l124 123h34l118 -121l-20 -19z" />
<glyph unicode="&#x2c7;" horiz-adv-x="412" d="M325 696l20 -20l-118 -122h-34l-124 124l20 18l119 -97z" />
<glyph unicode="&#x2d8;" horiz-adv-x="468" d="M149 674q5 -31 30 -53t56 -22q32 0 57 21.5t30 53.5h37q-3 -19 -11 -38.5t-22.5 -36t-37 -27t-53.5 -10.5t-53 10.5t-37 27t-23 36t-10 38.5h37z" />
<glyph unicode="&#x2d9;" horiz-adv-x="409" d="M192 597v51h48v-51h-48z" />
<glyph unicode="&#x2da;" horiz-adv-x="409" d="M217 554q-35 0 -59 24.5t-24 57.5q0 18 6.5 33t17.5 26.5t26.5 18t32.5 6.5t32 -6.5t26 -18t17.5 -26.5t6.5 -33q0 -33 -24 -57.5t-58 -24.5zM217 693q-23 0 -40 -16.5t-17 -40.5q0 -23 17 -39t40 -16t39.5 16t16.5 39q0 24 -16.5 40.5t-39.5 16.5z" />
<glyph unicode="&#x2db;" horiz-adv-x="361" d="M147 -93q0 20 9.5 45t31.5 51l35 -1l1 -1q-17 -22 -27.5 -46t-10.5 -41q0 -27 13.5 -39.5t36.5 -12.5q11 0 25 3.5t29 11.5l13 -29q-14 -9 -34 -15t-40 -6q-38 0 -60 24t-22 56z" />
<glyph unicode="&#x2dc;" horiz-adv-x="422" d="M150 668q15 0 30.5 -6.5t30.5 -14t30 -13.5t29 -6q28 0 53 40l27 -16q-16 -33 -36.5 -48t-43.5 -15q-15 0 -30.5 6t-30.5 13.5t-30 14t-29 6.5q-15 0 -28.5 -10t-27.5 -27l-26 16q16 28 37.5 44t44.5 16z" />
<glyph unicode="&#x2dd;" horiz-adv-x="409" d="M119 571l73 152l47 -18l-94 -145zM213 571l74 152l46 -18l-94 -145z" />
<glyph unicode="&#x384;" horiz-adv-x="413" d="M189 571l72 152l47 -18l-94 -145z" />
<glyph unicode="&#x385;" horiz-adv-x="412" d="M281 596v51h48v-51h-48zM87 596v51h48v-51h-48zM160 571l72 152l48 -18l-94 -145z" />
<glyph unicode="&#x386;" horiz-adv-x="481" d="M422 0q-4 15 -10.5 39t-14 49t-14.5 49t-11 39h-264l-50 -176h-46l203 696h50l204 -696h-47zM288 467l-47 170h-3q-56 -201 -120 -420h243zM-15 565l72 152l47 -18l-94 -145z" />
<glyph unicode="&#x387;" horiz-adv-x="155" d="M49 310v61h56v-61h-56z" />
<glyph unicode="&#x388;" horiz-adv-x="442" d="M66 0v696h353v-42h-309v-279h267v-40h-267v-292h309v-43h-353zM-90 565l72 152l47 -18l-94 -145z" />
<glyph unicode="&#x389;" horiz-adv-x="519" d="M408 0v334h-298v-334h-44v696h44v-321h298v321h46v-696h-46zM-92 565l72 152l47 -18l-94 -145z" />
<glyph unicode="&#x38a;" horiz-adv-x="194" d="M74 0v696h45v-696h-45zM-90 565l72 152l47 -18l-94 -145z" />
<glyph unicode="&#x38c;" horiz-adv-x="485" d="M439 193q0 -43 -14 -79.5t-39.5 -63.5t-62 -42t-80.5 -15q-48 0 -85 15.5t-62.5 42.5t-38.5 64.5t-13 81.5v309q0 40 13 76t38.5 62t62.5 41.5t85 15.5q45 0 81 -14.5t61.5 -40.5t39.5 -62t14 -78v-313zM394 504q0 31 -10 59t-29.5 49.5t-47.5 34t-64 12.5 q-37 0 -66 -12.5t-48.5 -33.5t-29.5 -49t-10 -60v-309q0 -71 40.5 -115.5t113.5 -44.5q34 0 61.5 12.5t47.5 33.5t31 49.5t11 60.5v313zM-82 565l72 152l47 -18l-94 -145z" />
<glyph unicode="&#x38e;" horiz-adv-x="413" d="M206 341l60 145q5 12 18 41.5t27 63t27 63.5t18 42h46l-176 -406v-290h-43v290l-176 406h47l90 -211zM-125 565l72 152l47 -18l-94 -145z" />
<glyph unicode="&#x38f;" horiz-adv-x="484" d="M364 42q3 -1 6.5 -1h6.5h75v-41h-153v49q45 17 70 57.5t25 91.5v304q0 72 -42 114t-109 42q-72 0 -112.5 -43.5t-40.5 -112.5v-307q0 -52 24.5 -91t68.5 -56v-48h-152v41h89v2q-24 14 -38.5 33t-23 43t-11.5 53.5t-3 64.5v267q0 44 14.5 80t40.5 62t63 40.5t81 14.5 q42 0 77.5 -13.5t62 -39t41.5 -62t15 -82.5v-267q0 -65 -13.5 -113t-61.5 -82zM-88 565l72 152l47 -18l-94 -145z" />
<glyph unicode="&#x390;" horiz-adv-x="188" d="M148 -2q-5 -1 -8.5 -1h-7.5q-68 0 -68 80v414h44v-409q0 -26 8 -36t29 -11h4zM167 596v51h48v-51h-48zM-27 596v51h48v-51h-48zM46 571l72 152l48 -18l-94 -145z" />
<glyph unicode="&#x391;" horiz-adv-x="481" d="M422 0q-4 15 -10.5 39t-14 49t-14.5 49t-11 39h-264l-50 -176h-46l203 696h50l204 -696h-47zM288 467l-47 170h-3q-56 -201 -120 -420h243z" />
<glyph unicode="&#x392;" horiz-adv-x="497" d="M458 194q0 -49 -13.5 -85.5t-37.5 -60.5t-57 -36t-72 -12h-212v696h198q93 0 137 -48t44 -127q0 -24 -4.5 -47t-15 -44t-29.5 -38t-47 -28v-1q30 -8 51 -25t33.5 -40t18.5 -50t6 -54zM110 656v-274h156q68 0 101.5 37t33.5 101q0 62 -35 99t-109 37h-147zM110 342v-299 h158q40 0 67.5 12t44.5 33t24.5 49t7.5 60q0 64 -33.5 104.5t-103.5 40.5h-165z" />
<glyph unicode="&#x393;" horiz-adv-x="429" d="M112 654v-654h-46v696h350v-42h-304z" />
<glyph unicode="&#x394;" horiz-adv-x="481" d="M11 0l204 696h49l204 -696h-457zM238 636q-14 -45 -28.5 -97.5t-30.5 -109.5l-110 -389h341q-23 80 -51.5 180t-56.5 202q-5 18 -14.5 50.5t-19 66t-18 61t-10.5 36.5h-2z" />
<glyph unicode="&#x395;" horiz-adv-x="442" d="M66 0v696h353v-42h-309v-279h267v-40h-267v-292h309v-43h-353z" />
<glyph unicode="&#x396;" horiz-adv-x="396" d="M23 0v41l302 614h-285v41h332v-40l-301 -614h296v-42h-344z" />
<glyph unicode="&#x397;" horiz-adv-x="519" d="M408 0v334h-298v-334h-44v696h44v-321h298v321h46v-696h-46z" />
<glyph unicode="&#x398;" horiz-adv-x="485" d="M123 376h238v-40h-238v40zM439 193q0 -43 -14 -79.5t-39.5 -63.5t-62 -42t-80.5 -15q-48 0 -85 15.5t-62.5 42.5t-38.5 64.5t-13 81.5v309q0 40 13 76t38.5 62t62.5 41.5t85 15.5q45 0 81 -14.5t61.5 -40.5t39.5 -62t14 -78v-313zM394 504q0 31 -10 59t-29.5 49.5 t-47.5 34t-64 12.5q-37 0 -66 -12.5t-48.5 -33.5t-29.5 -49t-10 -60v-309q0 -71 40.5 -115.5t113.5 -44.5q34 0 61.5 12.5t47.5 33.5t31 49.5t11 60.5v313z" />
<glyph unicode="&#x399;" horiz-adv-x="194" d="M74 0v696h45v-696h-45z" />
<glyph unicode="&#x39a;" horiz-adv-x="501" d="M110 260q73 110 146 218t146 218h50l-180 -269l213 -427h-49l-192 387l-135 -198v-189h-45v696h45v-436h1v0z" />
<glyph unicode="&#x39b;" horiz-adv-x="481" d="M379 151q-7 27 -15 56t-18.5 66t-25 85.5t-34.5 113.5q-11 37 -22 76.5t-24 83.5h-2l-47 -166q-16 -53 -28.5 -94t-22 -73.5t-17 -58.5t-13.5 -48q-11 -38 -24 -89t-29 -103h-46l204 696h49l204 -696h-47z" />
<glyph unicode="&#x39c;" horiz-adv-x="637" d="M426 342l-89 -206h-35l-89 206l-102 244h-3v-586h-44v696h46q28 -66 56 -131.5t57 -131.5l96 -228h2l98 229l113 262h44v-696h-44v590h-1z" />
<glyph unicode="&#x39d;" horiz-adv-x="547" d="M110 0h-45v696h44l201 -365l126 -231h3v596h44v-696h-45q-50 92 -100 183.5t-101 184.5q-32 57 -63 114.5t-63 115.5h-1v-598z" />
<glyph unicode="&#x39e;" horiz-adv-x="449" d="M44 654v42h360v-42h-360zM86 334v41h276v-41h-276zM44 0v43h360v-43h-360z" />
<glyph unicode="&#x39f;" horiz-adv-x="485" d="M439 193q0 -43 -14 -79.5t-39.5 -63.5t-62 -42t-80.5 -15q-48 0 -85 15.5t-62.5 42.5t-38.5 64.5t-13 81.5v309q0 40 13 76t38.5 62t62.5 41.5t85 15.5q45 0 81 -14.5t61.5 -40.5t39.5 -62t14 -78v-313zM394 504q0 31 -10 59t-29.5 49.5t-47.5 34t-64 12.5 q-37 0 -66 -12.5t-48.5 -33.5t-29.5 -49t-10 -60v-309q0 -71 40.5 -115.5t113.5 -44.5q34 0 61.5 12.5t47.5 33.5t31 49.5t11 60.5v313z" />
<glyph unicode="&#x3a0;" horiz-adv-x="516" d="M406 0v656h-296v-656h-44v696h386v-696h-46z" />
<glyph unicode="&#x3a1;" horiz-adv-x="471" d="M454 497q0 -40 -10.5 -76t-33.5 -63.5t-59.5 -44t-88.5 -16.5h-151v-297h-45v696h192q95 0 145.5 -49.5t50.5 -149.5zM409 498q0 75 -38 116t-115 41h-145v-316h146q42 0 71 12t47 33.5t26 50.5t8 63z" />
<glyph unicode="&#x3a3;" horiz-adv-x="389" d="M26 0v40l152 320l-152 297v39h336v-41h-288l153 -295l-153 -319h297v-41h-345z" />
<glyph unicode="&#x3a4;" horiz-adv-x="399" d="M222 655v-655h-44v655h-172v41h386v-41h-170z" />
<glyph unicode="&#x3a5;" horiz-adv-x="413" d="M206 341l60 145q5 12 18 41.5t27 63t27 63.5t18 42h46l-176 -406v-290h-43v290l-176 406h47l90 -211z" />
<glyph unicode="&#x3a6;" horiz-adv-x="604" d="M279 617q-60 -2 -97 -22t-57.5 -54.5t-28 -81t-8.5 -101.5q1 -62 10.5 -109.5t31 -80t58 -50t91.5 -20.5v519zM324 98q54 3 90.5 22.5t59 53t32.5 80t10 103.5q0 58 -10 105.5t-32.5 81t-59 52.5t-90.5 21v-519zM323 0h-44v58q-14 -1 -27.5 2t-24.5 5q-55 10 -90 35 t-55.5 62.5t-28.5 86.5t-8 108q0 54 7.5 102t27.5 87t55 66t89 38q12 3 25.5 5t29.5 3v38h44v-38q15 0 28.5 -2.5t24.5 -4.5q54 -11 89.5 -38t56.5 -66t30 -87.5t9 -102.5q0 -56 -8.5 -103.5t-30 -85t-57 -64t-89.5 -38.5q-11 -4 -24.5 -5.5t-28.5 -2.5v-58z" />
<glyph unicode="&#x3a7;" horiz-adv-x="424" d="M365 0l-153 311l-154 -311h-49l179 356l-170 339h49l145 -296l144 296h49l-170 -339l180 -356h-50z" />
<glyph unicode="&#x3a8;" horiz-adv-x="595" d="M542 348q0 -45 -16.5 -80.5t-45.5 -60.5t-70 -39.5t-89 -15.5v-152h-45v152q-49 1 -89.5 15.5t-70 41t-45.5 63t-16 81.5v343h44v-339q0 -75 49 -117.5t128 -44.5v501h45v-501q38 1 70.5 11.5t56 30t36.5 48.5t13 66v345h45v-348v0z" />
<glyph unicode="&#x3a9;" horiz-adv-x="484" d="M364 42q3 -1 6.5 -1h6.5h75v-41h-153v49q45 17 70 57.5t25 91.5v304q0 72 -42 114t-109 42q-72 0 -112.5 -43.5t-40.5 -112.5v-307q0 -52 24.5 -91t68.5 -56v-48h-152v41h89v2q-24 14 -38.5 33t-23 43t-11.5 53.5t-3 64.5v267q0 44 14.5 80t40.5 62t63 40.5t81 14.5 q42 0 77.5 -13.5t62 -39t41.5 -62t15 -82.5v-267q0 -65 -13.5 -113t-61.5 -82z" />
<glyph unicode="&#x3aa;" horiz-adv-x="194" d="M74 0v696h45v-696h-45zM155 747v51h48v-51h-48zM-8 747v51h49v-51h-49z" />
<glyph unicode="&#x3ab;" horiz-adv-x="413" d="M206 341l60 145q5 12 18 41.5t27 63t27 63.5t18 42h46l-176 -406v-290h-43v290l-176 406h47l90 -211zM100 747v51h49v-51h-49zM263 747v51h48v-51h-48z" />
<glyph unicode="&#x3ac;" horiz-adv-x="431" d="M210 35q39 0 63 19.5t37.5 50t18 67.5t4.5 72q0 36 -3 74.5t-15 69.5t-36.5 51t-66.5 20t-66.5 -20.5t-36.5 -52.5t-15.5 -72.5t-3.5 -79.5q0 -38 4 -74t17 -64t36.5 -44.5t62.5 -16.5zM333 425v67h43v-492h-43v73q-1 0 -1 0.5t-1 0.5q-20 -35 -51 -57t-80 -22 q-50 0 -80.5 20t-47 53.5t-22 77.5t-5.5 91q0 45 4.5 91t21 84t48 62t84.5 24q38 0 71.5 -15.5t56.5 -57.5h2zM185 571l72 152l47 -18l-94 -145z" />
<glyph unicode="&#x3ad;" horiz-adv-x="375" d="M208 457q-47 0 -80 -22.5t-33 -71.5q0 -45 27.5 -65t72.5 -20h61v-39h-63q-19 0 -38 -6.5t-34 -19t-24 -32t-9 -46.5q0 -28 10.5 -47.5t28 -31.5t40.5 -17t47 -5q35 0 63.5 17.5t41.5 46.5l37 -20q-17 -42 -56.5 -62.5t-89.5 -20.5q-83 0 -124 36t-41 105q0 15 3.5 33 t13 34.5t25 30.5t39.5 22v1q-23 6 -37.5 18t-23 26.5t-11.5 30.5t-3 32q0 28 9.5 52.5t29 42.5t49.5 28.5t70 10.5q51 0 90 -22t55 -63l-35 -21q-13 30 -43 47.5t-68 17.5zM173 571l72 152l47 -18l-94 -145z" />
<glyph unicode="&#x3ae;" horiz-adv-x="433" d="M335 0v334q0 57 -29.5 89.5t-86.5 32.5q-28 0 -51 -10t-39 -28t-24.5 -42.5t-8.5 -52.5v-323h-43v493h43v-68h2q21 38 57 56t75 18q72 0 110.5 -41.5t38.5 -109.5v-348h-44zM164 571l72 152l47 -18l-94 -145z" />
<glyph unicode="&#x3af;" horiz-adv-x="188" d="M148 -2q-5 -1 -8.5 -1h-7.5q-68 0 -68 80v414h44v-409q0 -26 8 -36t29 -11h4zM68 571l72 152l47 -18l-94 -145z" />
<glyph unicode="&#x3b0;" horiz-adv-x="436" d="M216 -6q-60 0 -96.5 24t-53.5 67q-5 12 -8.5 31.5t-3.5 43.5v332h43v-321q0 -27 6 -52t19.5 -44.5t36.5 -31t58 -11.5q37 0 61 10.5t37.5 31t18.5 50t5 67.5v301h42v-268q0 -37 -1.5 -74.5t-9.5 -60.5q-14 -43 -51 -69t-103 -26zM293 596v51h48v-51h-48zM99 596v51h48 v-51h-48zM172 571l72 152l48 -18l-94 -145z" />
<glyph unicode="&#x3b1;" horiz-adv-x="431" d="M210 35q39 0 63 19.5t37.5 50t18 67.5t4.5 72q0 36 -3 74.5t-15 69.5t-36.5 51t-66.5 20t-66.5 -20.5t-36.5 -52.5t-15.5 -72.5t-3.5 -79.5q0 -38 4 -74t17 -64t36.5 -44.5t62.5 -16.5zM333 425v67h43v-492h-43v73q-1 0 -1 0.5t-1 0.5q-20 -35 -51 -57t-80 -22 q-50 0 -80.5 20t-47 53.5t-22 77.5t-5.5 91q0 45 4.5 91t21 84t48 62t84.5 24q38 0 71.5 -15.5t56.5 -57.5h2z" />
<glyph unicode="&#x3b2;" horiz-adv-x="428" d="M385 228q0 -49 -8 -92t-26.5 -74.5t-50 -49.5t-78.5 -18q-33 0 -68 14.5t-57 56.5l-1 -207h-43v649v33t1 32q2 69 43 110.5t113 41.5q75 0 113.5 -46.5t38.5 -119.5q0 -48 -17.5 -86.5t-55.5 -54.5v-2q53 -14 74.5 -57.5t21.5 -129.5zM170 393v38h47q28 0 47 10t31 27 t17.5 39.5t5.5 48.5q0 25 -6 48.5t-19 41.5t-33.5 28.5t-50.5 10.5q-35 0 -56.5 -13t-34.5 -33.5t-17.5 -44.5t-4.5 -46v-369q0 -24 6 -50t20 -47.5t36 -35t55 -13.5q40 0 65 16.5t38.5 44t18.5 63t5 72.5t-5.5 67.5t-18.5 52t-35 33t-55 11.5h-56z" />
<glyph unicode="&#x3b3;" horiz-adv-x="370" d="M212 -197h-43v206q-30 106 -61 207t-65 205q-7 20 -12 26.5t-20 6.5h-6l-4 38q13 4 28 4q16 0 26 -7t17.5 -19t12.5 -28t10 -34q25 -87 48.5 -165.5t46.5 -158.5h3q15 50 29.5 99t30.5 99l66 210h47q-40 -121 -77.5 -238t-76.5 -242v-209z" />
<glyph unicode="&#x3b4;" horiz-adv-x="412" d="M239 723q24 0 51.5 -4.5t55.5 -13.5l-12 -39q-23 8 -47.5 13t-46.5 5q-57 0 -86 -25t-29 -68q0 -41 31 -66.5t84 -48.5q35 -15 61 -32.5t43 -42.5q17 -24 24.5 -63.5t7.5 -102.5q0 -26 -0.5 -52t-5 -51t-14 -48.5t-27.5 -42.5q-23 -25 -55.5 -36t-68.5 -11 q-118 0 -151 90q-10 27 -13.5 67.5t-3.5 83.5q0 45 5.5 81.5t18.5 65.5q16 30 41.5 52t61.5 33v1q-40 23 -62.5 52.5t-22.5 68.5q0 59 40.5 96.5t119.5 37.5zM209 442q-35 -7 -63.5 -24.5t-43.5 -49.5q-11 -23 -16 -55.5t-5 -80.5q0 -53 4 -85t14 -54q12 -27 39 -44t69 -17 q45 0 74.5 21.5t41.5 63.5q6 20 8 48.5t2 64.5q0 47 -3.5 79.5t-17.5 58.5q-29 54 -103 74z" />
<glyph unicode="&#x3b5;" horiz-adv-x="375" d="M208 457q-47 0 -80 -22.5t-33 -71.5q0 -45 27.5 -65t72.5 -20h61v-39h-63q-19 0 -38 -6.5t-34 -19t-24 -32t-9 -46.5q0 -28 10.5 -47.5t28 -31.5t40.5 -17t47 -5q35 0 63.5 17.5t41.5 46.5l37 -20q-17 -42 -56.5 -62.5t-89.5 -20.5q-83 0 -124 36t-41 105q0 15 3.5 33 t13 34.5t25 30.5t39.5 22v1q-23 6 -37.5 18t-23 26.5t-11.5 30.5t-3 32q0 28 9.5 52.5t29 42.5t49.5 28.5t70 10.5q51 0 90 -22t55 -63l-35 -21q-13 30 -43 47.5t-68 17.5z" />
<glyph unicode="&#x3b6;" horiz-adv-x="337" d="M70 662v41h314v-40q-65 -56 -120.5 -116.5t-96 -120.5t-63.5 -116.5t-23 -104.5q0 -28 8 -48t22 -35.5t34.5 -27.5t46.5 -23q46 -20 77.5 -33t51 -24.5t28 -24.5t8.5 -31q0 -29 -19 -60.5t-52 -66.5l-32 24q21 29 37 56t16 42t-16 25t-38 20q-47 20 -87 37t-69 38.5 t-45 52.5t-16 79q0 39 16.5 90.5t52 110.5t90 124.5t131.5 131.5h-256z" />
<glyph unicode="&#x3b7;" horiz-adv-x="433" d="M335 0v334q0 57 -29.5 89.5t-86.5 32.5q-28 0 -51 -10t-39 -28t-24.5 -42.5t-8.5 -52.5v-323h-43v493h43v-68h2q21 38 57 56t75 18q72 0 110.5 -41.5t38.5 -109.5v-348h-44z" />
<glyph unicode="&#x3b8;" horiz-adv-x="415" d="M375 235q0 -48 -4 -86.5t-16 -67.5q-10 -26 -26 -42.5t-35.5 -26.5t-42 -14t-45.5 -4q-54 0 -86 19.5t-50 51.5q-16 27 -22.5 74.5t-6.5 104.5v227q0 60 8 108.5t25 73.5q19 34 52 53t84 19q55 0 88.5 -21.5t52.5 -56.5q14 -29 19 -75.5t5 -103.5v-233zM107 86 q14 -26 39 -40t63 -14q33 0 60.5 15t42.5 46q11 19 15.5 56t4.5 90v118h-248v-123q0 -106 23 -148zM332 466q0 53 -4.5 94t-13.5 62q-14 32 -41 47.5t-63 15.5q-32 0 -57.5 -12.5t-40.5 -40.5q-28 -44 -28 -166v-72h248v72z" />
<glyph unicode="&#x3b9;" horiz-adv-x="188" d="M148 -2q-5 -1 -8.5 -1h-7.5q-68 0 -68 80v414h44v-409q0 -26 8 -36t29 -11h4z" />
<glyph unicode="&#x3ba;" horiz-adv-x="411" d="M358 0q-38 69 -75.5 138t-75.5 138l-108 -143v-133h-42v492h42v-293h1l223 293h49l-137 -181l171 -311h-48v0z" />
<glyph unicode="&#x3bb;" horiz-adv-x="378" d="M59 720q15 4 31 4q29 0 47 -13.5t28 -47.5l170 -591q6 -20 14 -28t25 -8l1 -36q-5 -1 -11 -1.5t-11 -0.5q-21 0 -32.5 10.5t-20.5 34.5q-4 10 -7 21t-7 23q-14 46 -27 91.5t-26 91.5q-11 35 -20 69.5t-19 69.5h-2q-17 -50 -33.5 -99.5t-34.5 -99.5l-75 -210h-45l168 479 q-10 38 -20.5 75.5t-21.5 75.5q-8 28 -18.5 40t-34.5 12h-7t-8 -1z" />
<glyph unicode="&#x3bc;" horiz-adv-x="439" d="M102 37q0 -60 -0.5 -119.5t-0.5 -120.5h-43v694h43v-324q0 -59 29 -95t88 -36q33 0 56.5 13.5t38.5 36t22 52t7 61.5v292h42v-491h-42v66h-3q-21 -38 -57 -54.5t-74 -16.5q-72 0 -106 42z" />
<glyph unicode="&#x3bd;" horiz-adv-x="371" d="M361 492q-38 -125 -77 -246.5t-77 -245.5h-44q-38 124 -77 245.5t-77 246.5h46l76 -249q14 -45 27 -88.5t26 -88.5h3q13 45 26 89t27 89l74 248h47v0z" />
<glyph unicode="&#x3be;" horiz-adv-x="343" d="M48 548q0 38 10 70t31 55.5t53.5 36.5t76.5 13q42 0 79 -15t60 -50l-31 -26q-22 27 -49.5 39t-61.5 12q-54 0 -88 -32.5t-35 -101.5q0 -65 34 -99.5t108 -34.5h73v-38h-95q-68 0 -100 -48t-32 -126q0 -68 32 -102t88 -54q31 -12 58 -22.5t46.5 -22t31 -25.5t11.5 -32 q0 -17 -11.5 -43t-43.5 -73q-9 5 -17 9.5t-17 9.5q15 26 28 49t13 37t-9 24t-36 21q-34 14 -64.5 25t-56.5 23q-24 12 -42 27t-30.5 36t-18.5 48.5t-6 64.5q0 28 4 57.5t15.5 55t32 46.5t54.5 33v1q-31 8 -49.5 25t-28.5 38t-13.5 44.5t-3.5 44.5z" />
<glyph unicode="&#x3bf;" horiz-adv-x="419" d="M211 499q45 0 76 -15.5t51 -41.5q23 -27 31.5 -77t8.5 -120q0 -45 -4 -88.5t-15 -71.5q-19 -49 -58.5 -70t-94.5 -21q-42 0 -71 12.5t-48 35.5q-26 27 -36.5 77.5t-10.5 124.5q0 49 3.5 88.5t13.5 68.5q18 50 58.5 74t95.5 24zM210 459q-35 0 -63 -15t-44 -45 q-12 -23 -15.5 -63t-4.5 -96q0 -69 9 -109t29 -62q29 -37 88 -37q36 0 66.5 18t44.5 55q10 25 12.5 62.5t1.5 81.5q0 108 -19 146q-14 32 -41.5 48t-63.5 16z" />
<glyph unicode="&#x3c0;" horiz-adv-x="443" d="M341 0v455h-238v-455h-44v492h326v-492h-44z" />
<glyph unicode="&#x3c1;" horiz-adv-x="425" d="M47 242q0 49 4 89.5t13 66.5q18 51 56.5 75.5t93.5 24.5q49 0 87 -21t56 -59q14 -31 19 -75.5t5 -101.5q0 -49 -5 -92.5t-21 -75.5q-38 -79 -139 -79q-45 0 -74.5 19.5t-50.5 55.5v-270h-44v443zM213 459q-35 0 -61 -15t-42 -46q-12 -23 -15.5 -62.5t-4.5 -96.5 q0 -45 3.5 -78.5t12.5 -56.5q14 -34 41 -53t65 -19t67.5 18.5t43.5 55.5q8 23 11.5 53.5t3.5 67.5v19q0 109 -19 149q-14 32 -41.5 48t-64.5 16z" />
<glyph unicode="&#x3c2;" horiz-adv-x="367" d="M221 498q51 0 92 -22t56 -67l-38 -20q-14 34 -44 51t-68 17q-31 0 -55 -10.5t-40.5 -35t-25 -66t-8.5 -103.5q0 -53 10 -85t30 -53t50.5 -36t71.5 -35q43 -20 63 -36t20 -47q0 -25 -16 -53.5t-39 -59.5l-33 22q14 20 26.5 43t12.5 40q0 15 -15.5 29t-39.5 24 q-61 24 -97.5 45.5t-56 49t-25.5 65.5t-6 95q0 54 7 97t23 73q22 42 58 60t87 18z" />
<glyph unicode="&#x3c3;" horiz-adv-x="426" d="M61 400q17 47 56 69t89 23h202v-37h-100q6 -4 11 -8.5t10 -9.5q34 -32 41 -92q6 -44 6 -104q0 -37 -2.5 -67.5t-7.5 -57.5q-14 -65 -55.5 -93.5t-104.5 -28.5q-68 0 -103.5 28t-51.5 85q-6 26 -9 61t-3 75q0 51 5 89.5t17 67.5zM208 450q-35 0 -62.5 -15.5t-43.5 -47.5 q-11 -23 -15 -58.5t-5 -89.5q1 -35 2.5 -61.5t6 -48t13.5 -39t25 -33.5q30 -25 79 -25q36 0 66 19t43 54q11 27 13.5 62.5t2.5 77.5q0 51 -6 89.5t-20 64t-38.5 38.5t-60.5 13z" />
<glyph unicode="&#x3c4;" horiz-adv-x="266" d="M149 454v-336q0 -36 12 -57.5t53 -21.5h29v-39h-39q-50 0 -74.5 27.5t-24.5 80.5v346h-93v38h244v-38h-107z" />
<glyph unicode="&#x3c5;" horiz-adv-x="436" d="M216 -6q-60 0 -96.5 24t-53.5 67q-5 12 -8.5 31.5t-3.5 43.5v332h43v-321q0 -27 6 -52t19.5 -44.5t36.5 -31t58 -11.5q37 0 61 10.5t37.5 31t18.5 50t5 67.5v301h42v-268q0 -37 -1.5 -74.5t-9.5 -60.5q-14 -43 -51 -69t-103 -26z" />
<glyph unicode="&#x3c6;" horiz-adv-x="506" d="M274 32q48 2 85.5 20.5t52.5 61.5q7 20 8.5 51.5t1.5 73.5q0 48 -2 84t-7 52q-11 38 -45.5 59.5t-93.5 23.5v-426zM465 242q0 -30 -1 -62.5t-7 -60.5q-5 -24 -17 -46q-23 -40 -66 -58.5t-100 -20.5v-192h-44v192q-67 2 -111.5 25.5t-65.5 80.5q-8 22 -10 60.5t-2 81.5 q0 55 3 99.5t20 74.5q12 21 33.5 39t46.5 28q5 -9 8.5 -18t7.5 -19q-20 -10 -38 -26.5t-27 -42.5q-7 -19 -8.5 -41.5t-1.5 -52.5q0 -62 -1 -106t17 -76q16 -33 49.5 -50t79.5 -19v465h52q57 0 102 -23.5t62 -63.5q13 -30 16 -70.5t3 -97.5z" />
<glyph unicode="&#x3c7;" horiz-adv-x="367" d="M301 0l-118 220l-117 -220h-49l140 253l-132 239h49l109 -208l110 208h50l-134 -240l141 -252h-49z" />
<glyph unicode="&#x3c8;" horiz-adv-x="531" d="M477 163q0 -40 -14 -71t-39.5 -52t-60.5 -32.5t-76 -12.5v-198h-43v198q-42 1 -77 13t-60 33.5t-38.5 51t-13.5 65.5v333h43v-326q0 -56 38 -91.5t108 -37.5v466h43v-466q64 2 105.5 35.5t41.5 95.5v324h43v-328v0z" />
<glyph unicode="&#x3c9;" horiz-adv-x="637" d="M445 -5q-37 0 -73.5 17.5t-54.5 61.5h-1q-19 -42 -50.5 -61t-72.5 -19q-49 0 -79.5 18t-47.5 50.5t-23 78.5t-6 102q0 59 6.5 103.5t22 75.5t42 49t66.5 24q2 -10 3 -19.5t2 -20.5q-27 -5 -45.5 -18.5t-30 -39t-17 -64.5t-5.5 -94q0 -109 24.5 -157.5t86.5 -48.5 q33 0 53 13.5t31 34.5t14.5 47.5t3.5 52.5v166h44v-176q0 -26 5 -50.5t17 -43.5t33 -31t53 -12q56 0 82.5 47t26.5 155q0 56 -5 96t-16.5 66t-30 39.5t-45.5 17.5l6 40q42 -5 68.5 -25t41.5 -53t20 -78t5 -102q0 -56 -7.5 -101t-25.5 -76.5t-47.5 -48t-73.5 -16.5z" />
<glyph unicode="&#x3ca;" horiz-adv-x="188" d="M148 -2q-5 -1 -8.5 -1h-7.5q-68 0 -68 80v414h44v-409q0 -26 8 -36t29 -11h4zM148 597v51h48v-51h-48zM-20 597v51h49v-51h-49z" />
<glyph unicode="&#x3cb;" horiz-adv-x="436" d="M216 -6q-60 0 -96.5 24t-53.5 67q-5 12 -8.5 31.5t-3.5 43.5v332h43v-321q0 -27 6 -52t19.5 -44.5t36.5 -31t58 -11.5q37 0 61 10.5t37.5 31t18.5 50t5 67.5v301h42v-268q0 -37 -1.5 -74.5t-9.5 -60.5q-14 -43 -51 -69t-103 -26zM275 597v51h48v-51h-48zM107 597v51h49 v-51h-49z" />
<glyph unicode="&#x3cc;" horiz-adv-x="419" d="M211 499q45 0 76 -15.5t51 -41.5q23 -27 31.5 -77t8.5 -120q0 -45 -4 -88.5t-15 -71.5q-19 -49 -58.5 -70t-94.5 -21q-42 0 -71 12.5t-48 35.5q-26 27 -36.5 77.5t-10.5 124.5q0 49 3.5 88.5t13.5 68.5q18 50 58.5 74t95.5 24zM210 459q-35 0 -63 -15t-44 -45 q-12 -23 -15.5 -63t-4.5 -96q0 -69 9 -109t29 -62q29 -37 88 -37q36 0 66.5 18t44.5 55q10 25 12.5 62.5t1.5 81.5q0 108 -19 146q-14 32 -41.5 48t-63.5 16zM181 571l72 152l47 -18l-94 -145z" />
<glyph unicode="&#x3cd;" horiz-adv-x="436" d="M216 -6q-60 0 -96.5 24t-53.5 67q-5 12 -8.5 31.5t-3.5 43.5v332h43v-321q0 -27 6 -52t19.5 -44.5t36.5 -31t58 -11.5q37 0 61 10.5t37.5 31t18.5 50t5 67.5v301h42v-268q0 -37 -1.5 -74.5t-9.5 -60.5q-14 -43 -51 -69t-103 -26zM184 571l72 152l47 -18l-94 -145z" />
<glyph unicode="&#x3ce;" horiz-adv-x="637" d="M445 -5q-37 0 -73.5 17.5t-54.5 61.5h-1q-19 -42 -50.5 -61t-72.5 -19q-49 0 -79.5 18t-47.5 50.5t-23 78.5t-6 102q0 59 6.5 103.5t22 75.5t42 49t66.5 24q2 -10 3 -19.5t2 -20.5q-27 -5 -45.5 -18.5t-30 -39t-17 -64.5t-5.5 -94q0 -109 24.5 -157.5t86.5 -48.5 q33 0 53 13.5t31 34.5t14.5 47.5t3.5 52.5v166h44v-176q0 -26 5 -50.5t17 -43.5t33 -31t53 -12q56 0 82.5 47t26.5 155q0 56 -5 96t-16.5 66t-30 39.5t-45.5 17.5l6 40q42 -5 68.5 -25t41.5 -53t20 -78t5 -102q0 -56 -7.5 -101t-25.5 -76.5t-47.5 -48t-73.5 -16.5zM286 571 l72 152l47 -18l-94 -145z" />
<glyph unicode="&#x401;" horiz-adv-x="442" d="M66 0v696h353v-42h-309v-279h267v-40h-267v-292h309v-43h-353zM294 747v51h48v-51h-48zM131 747v51h49v-51h-49z" />
<glyph unicode="&#x402;" horiz-adv-x="582" d="M371 472q90 0 130.5 -58t40.5 -183q0 -60 -11 -106.5t-34.5 -78t-61.5 -47.5t-92 -14v36q44 0 73.5 14t47.5 41t25.5 65.5t7.5 86.5q0 46 -5.5 83t-20 63t-39.5 40.5t-64 14.5q-47 0 -85.5 -19t-66.5 -46v-364h-44v655h-166v40h430v-40h-220v-243h1q35 28 75.5 44 t78.5 16z" />
<glyph unicode="&#x403;" horiz-adv-x="428" d="M112 654v-654h-46v696h350v-42h-304zM172 749l131 108l35 -37l-148 -92z" />
<glyph unicode="&#x404;" horiz-adv-x="454" d="M431 123q-17 -65 -68.5 -97.5t-116.5 -32.5q-47 0 -84 15t-62 41.5t-38 63.5t-13 82v307q0 43 13 80t38 63.5t62 41.5t84 15q66 0 116 -31.5t68 -93.5l-42 -17q-13 48 -50 74t-91 26q-38 0 -66.5 -12t-47.5 -33.5t-29 -50.5t-10 -63v-128h232v-41h-232v-140q0 -33 10 -62 t29 -50t47.5 -33t66.5 -12q52 0 90 26t53 78z" />
<glyph unicode="&#x405;" horiz-adv-x="463" d="M429 181q0 -86 -50 -136.5t-149 -50.5q-77 0 -125.5 29.5t-74.5 80.5l39 23q22 -38 61.5 -64.5t100.5 -26.5q76 0 113 40t37 105q0 37 -10.5 62t-29.5 42t-46.5 28.5t-61.5 22.5q-49 15 -84.5 31t-58.5 37t-34 49t-11 67q0 40 12.5 73.5t36.5 57.5t59 37.5t80 13.5 q75 0 115.5 -22.5t66.5 -62.5l-40 -27q-20 34 -54 52t-89 18q-68 0 -104.5 -40t-36.5 -100q0 -32 11.5 -54t32 -38t50 -28t65.5 -24q45 -14 78.5 -30t56 -37.5t33.5 -52.5t11 -75z" />
<glyph unicode="&#x406;" horiz-adv-x="194" d="M74 0v696h45v-696h-45z" />
<glyph unicode="&#x407;" horiz-adv-x="194" d="M74 0v696h45v-696h-45zM158 776v51h48v-51h-48zM-10 776v51h49v-51h-49z" />
<glyph unicode="&#x408;" horiz-adv-x="385" d="M316 169q0 -45 -14 -77.5t-38.5 -54.5t-58 -32.5t-72.5 -10.5q-31 0 -64.5 10.5t-56.5 32.5l30 33q41 -34 89 -34q28 0 53.5 6.5t44.5 23t30 44t11 68.5v518h46v-527z" />
<glyph unicode="&#x409;" horiz-adv-x="780" d="M365 655h-205v-323q0 -85 -7.5 -143.5t-24 -97.5t-42.5 -63.5t-62 -42.5q-3 4 -9.5 18t-8.5 18q28 18 49 37t35 52t20.5 86.5t6.5 140.5v359h293v-314h152q52 0 88.5 -15t59.5 -40.5t33.5 -60t10.5 -72.5q0 -94 -50.5 -144t-147.5 -50h-191v655zM707 194 q0 64 -36.5 105.5t-113.5 41.5h-147v-299h147q76 0 113 40t37 112z" />
<glyph unicode="&#x40a;" horiz-adv-x="775" d="M363 0v339h-253v-339h-45v696h45v-315h253v315h46v-315h142q104 0 152.5 -51t48.5 -137q0 -94 -50 -143.5t-147 -49.5h-192zM409 42h146q76 0 113.5 39t37.5 112q0 64 -38 104.5t-118 40.5h-141v-296z" />
<glyph unicode="&#x40b;" horiz-adv-x="582" d="M222 0h-45v656h-166v40h438v-40h-227v-238l2 -1q39 31 77.5 42.5t75.5 11.5q83 0 122 -44.5t39 -113.5v-313h-44v294q0 30 -6.5 54.5t-21.5 42.5t-38.5 28t-57.5 10q-45 0 -84 -18t-64 -47v-364z" />
<glyph unicode="&#x40c;" horiz-adv-x="478" d="M65 0v696h44v-316h113q18 0 37 4.5t36.5 16.5t31.5 32.5t23 53.5l60 209h41l-53 -200q-14 -51 -37.5 -86t-60.5 -46q47 -11 69.5 -47.5t35.5 -88.5l59 -228h-47l-57 226q-9 35 -22 57t-29.5 34.5t-35 17t-39.5 4.5h-125v-339h-44zM201 749l131 107l35 -37l-147 -91z" />
<glyph unicode="&#x40e;" horiz-adv-x="439" d="M422 695q-46 -140 -91.5 -277.5t-92.5 -277.5q-15 -45 -30.5 -73t-32 -44.5t-35.5 -22.5t-41 -6h-30v41h26q28 0 51.5 20t40.5 71l13 41q-46 133 -92 264t-91 264h47l158 -465h3q15 46 35 107t40.5 125t40.5 125t35 108h46zM135 811q5 -31 30 -53t56 -22q32 0 57 21.5 t30 53.5h37q-3 -19 -11 -38.5t-22.5 -36t-37 -27t-53.5 -10.5t-53 10.5t-37 27t-23 36t-10 38.5h37z" />
<glyph unicode="&#x40f;" horiz-adv-x="513" d="M450 695v-695h-169v-151h-49v151h-168v695h46v-653h294v653h46z" />
<glyph unicode="&#x410;" horiz-adv-x="481" d="M422 0q-4 15 -10.5 39t-14 49t-14.5 49t-11 39h-264l-50 -176h-46l203 696h50l204 -696h-47zM288 467l-47 170h-3q-56 -201 -120 -420h243z" />
<glyph unicode="&#x411;" horiz-adv-x="465" d="M47 0v696h339v-41h-294v-272h150q52 0 89 -15t60 -40.5t34 -60t11 -73.5q0 -94 -50 -144t-148 -50h-191zM390 194q0 64 -37 105.5t-114 41.5h-147v-298h147q76 0 113.5 39t37.5 112z" />
<glyph unicode="&#x412;" horiz-adv-x="497" d="M458 194q0 -49 -13.5 -85.5t-37.5 -60.5t-57 -36t-72 -12h-212v696h198q93 0 137 -48t44 -127q0 -24 -4.5 -47t-15 -44t-29.5 -38t-47 -28v-1q30 -8 51 -25t33.5 -40t18.5 -50t6 -54zM110 656v-274h156q68 0 101.5 37t33.5 101q0 62 -35 99t-109 37h-147zM110 342v-299 h158q40 0 67.5 12t44.5 33t24.5 49t7.5 60q0 64 -33.5 104.5t-103.5 40.5h-165z" />
<glyph unicode="&#x413;" horiz-adv-x="429" d="M112 654v-654h-46v696h350v-42h-304z" />
<glyph unicode="&#x414;" horiz-adv-x="576" d="M56 -142h-44v180l36 3q21 17 36 41.5t26 63.5t17.5 96.5t9.5 141.5l11 312h353v-656h45v-182h-44v142h-446v-142zM190 655q-2 -72 -5 -143t-6 -143q-5 -121 -19.5 -201.5t-51.5 -128.5h347v616h-265z" />
<glyph unicode="&#x415;" horiz-adv-x="442" d="M66 0v696h353v-42h-309v-279h267v-40h-267v-292h309v-43h-353z" />
<glyph unicode="&#x416;" horiz-adv-x="745" d="M350 696h45v-316h92q18 0 37.5 4.5t36.5 16.5t31.5 32.5t23.5 53.5l59 208h42l-54 -199q-14 -51 -37.5 -86t-60.5 -46q24 -6 41 -18t29 -29.5t20.5 -40t15.5 -48.5l58 -228h-46l-58 226q-9 35 -22 57t-29 34.5t-35 17t-40 4.5h-104v-339h-45v339h-103q-21 0 -40 -4.5 t-35.5 -17t-29.5 -34.5t-22 -57l-57 -226h-47l59 228q13 52 35.5 88.5t69.5 47.5q-37 11 -60.5 46t-37.5 86l-54 199h42l59 -208q9 -33 23.5 -53.5t32 -32.5t36.5 -16.5t37 -4.5h92v316z" />
<glyph unicode="&#x417;" horiz-adv-x="461" d="M222 701q88 0 135 -44t47 -124q0 -18 -3.5 -42t-13.5 -47t-27 -42.5t-44 -29.5v-2q34 -11 53 -33t28.5 -47.5t12 -50.5t2.5 -41q0 -99 -53.5 -151.5t-149.5 -52.5q-36 0 -68 9t-57.5 26.5t-43.5 44.5t-24 63q11 4 21 7.5t21 6.5q12 -60 55 -89t97 -29q78 0 116.5 43.5 t40.5 120.5q0 40 -10 69t-26.5 47.5t-38.5 27.5t-46 9h-70v40h64q55 0 87 38t32 104q0 31 -10.5 55t-29.5 40t-44 24t-54 8q-56 0 -98.5 -29t-53.5 -82l-42 14q7 34 25.5 60t44.5 43.5t58 26.5t67 9z" />
<glyph unicode="&#x418;" horiz-adv-x="533" d="M431 0v606h-2l-133 -249l-191 -357h-44v696h44v-606q1 0 1.5 -0.5t1.5 -0.5q34 64 67 127.5t67 126.5l190 353h43v-696h-44z" />
<glyph unicode="&#x419;" horiz-adv-x="533" d="M431 0v606h-2l-133 -249l-191 -357h-44v696h44v-606q1 0 1.5 -0.5t1.5 -0.5q34 64 67 127.5t67 126.5l190 353h43v-696h-44zM177 857q5 -31 30 -53t56 -22q32 0 57 21.5t30 53.5h37q-3 -19 -11 -38.5t-22.5 -36t-37 -27t-53.5 -10.5t-53 10.5t-37 27t-23 36t-10 38.5h37z " />
<glyph unicode="&#x41a;" horiz-adv-x="478" d="M65 0v696h44v-316h113q18 0 37 4.5t36.5 16.5t31.5 32.5t23 53.5l60 209h41l-53 -200q-14 -51 -37.5 -86t-60.5 -46q47 -11 69.5 -47.5t35.5 -88.5l59 -228h-47l-57 226q-9 35 -22 57t-29.5 34.5t-35 17t-39.5 4.5h-125v-339h-44z" />
<glyph unicode="&#x41b;" horiz-adv-x="528" d="M415 654h-257v-322q0 -86 -7.5 -144.5t-24 -98t-43 -63.5t-64.5 -41q-5 9 -9 17.5t-8 17.5q29 18 50 38t35 53.5t21 86.5t7 138v360h345v-696h-45v654z" />
<glyph unicode="&#x41c;" horiz-adv-x="637" d="M426 342l-89 -206h-35l-89 206l-102 244h-3v-586h-44v696h46q28 -66 56 -131.5t57 -131.5l96 -228h2l98 229l113 262h44v-696h-44v590h-1z" />
<glyph unicode="&#x41d;" horiz-adv-x="519" d="M408 0v334h-298v-334h-44v696h44v-321h298v321h46v-696h-46z" />
<glyph unicode="&#x41e;" horiz-adv-x="485" d="M439 193q0 -43 -14 -79.5t-39.5 -63.5t-62 -42t-80.5 -15q-48 0 -85 15.5t-62.5 42.5t-38.5 64.5t-13 81.5v309q0 40 13 76t38.5 62t62.5 41.5t85 15.5q45 0 81 -14.5t61.5 -40.5t39.5 -62t14 -78v-313zM394 504q0 31 -10 59t-29.5 49.5t-47.5 34t-64 12.5 q-37 0 -66 -12.5t-48.5 -33.5t-29.5 -49t-10 -60v-309q0 -71 40.5 -115.5t113.5 -44.5q34 0 61.5 12.5t47.5 33.5t31 49.5t11 60.5v313z" />
<glyph unicode="&#x41f;" horiz-adv-x="516" d="M406 0v656h-296v-656h-44v696h386v-696h-46z" />
<glyph unicode="&#x420;" horiz-adv-x="471" d="M454 497q0 -40 -10.5 -76t-33.5 -63.5t-59.5 -44t-88.5 -16.5h-151v-297h-45v696h192q95 0 145.5 -49.5t50.5 -149.5zM409 498q0 75 -38 116t-115 41h-145v-316h146q42 0 71 12t47 33.5t26 50.5t8 63z" />
<glyph unicode="&#x421;" horiz-adv-x="457" d="M432 132q-7 -35 -24.5 -61t-42 -43t-55 -26t-63.5 -9q-45 0 -81.5 14.5t-62 40.5t-39.5 62.5t-14 81.5v313q0 43 14 79.5t39.5 62t62 40t81.5 14.5q67 0 117.5 -33.5t66.5 -98.5l-43 -15q-11 51 -48.5 78t-92.5 27q-72 0 -112.5 -43.5t-40.5 -110.5v-316 q0 -33 10.5 -61.5t30.5 -49.5t48.5 -32.5t63.5 -11.5q54 0 92 28t51 83z" />
<glyph unicode="&#x422;" horiz-adv-x="399" d="M222 655v-655h-44v655h-172v41h386v-41h-170z" />
<glyph unicode="&#x423;" horiz-adv-x="439" d="M422 695q-46 -140 -91.5 -277.5t-92.5 -277.5q-15 -45 -30.5 -73t-32 -44.5t-35.5 -22.5t-41 -6h-30v41h26q28 0 51.5 20t40.5 71l13 41q-46 133 -92 264t-91 264h47l158 -465h3q15 46 35 107t40.5 125t40.5 125t35 108h46v0z" />
<glyph unicode="&#x424;" horiz-adv-x="604" d="M279 617q-60 -2 -97 -22t-57.5 -54.5t-28 -81t-8.5 -101.5q1 -62 10.5 -109.5t31 -80t58 -50t91.5 -20.5v519zM324 98q54 3 90.5 22.5t59 53t32.5 80t10 103.5q0 58 -10 105.5t-32.5 81t-59 52.5t-90.5 21v-519zM323 0h-44v58q-14 -1 -27.5 2t-24.5 5q-55 10 -90 35 t-55.5 62.5t-28.5 86.5t-8 108q0 54 7.5 102t27.5 87t55 66t89 38q12 3 25.5 5t29.5 3v38h44v-38q15 0 28.5 -2.5t24.5 -4.5q54 -11 89.5 -38t56.5 -66t30 -87.5t9 -102.5q0 -56 -8.5 -103.5t-30 -85t-57 -64t-89.5 -38.5q-11 -4 -24.5 -5.5t-28.5 -2.5v-58z" />
<glyph unicode="&#x425;" horiz-adv-x="424" d="M365 0l-153 311l-154 -311h-49l179 356l-170 339h49l145 -296l144 296h49l-170 -339l180 -356h-50z" />
<glyph unicode="&#x426;" horiz-adv-x="519" d="M454 0h-388v696h44v-654h297v654h46v-655h44v-183h-43v142z" />
<glyph unicode="&#x427;" horiz-adv-x="486" d="M87 696v-214q0 -149 148 -149q27 0 67 9.5t76 31.5v322h45v-696h-45v333q-38 -20 -79.5 -29.5t-72.5 -9.5q-40 0 -73.5 9.5t-57.5 31t-37.5 56.5t-13.5 86v219h43z" />
<glyph unicode="&#x428;" horiz-adv-x="770" d="M707 696v-696h-644v696h46v-654h251v654h46v-654h255v654h46z" />
<glyph unicode="&#x429;" horiz-adv-x="776" d="M709 0h-646v696h45v-654h252v654h45v-654h256v654h46v-655h45v-183h-43v142z" />
<glyph unicode="&#x42a;" horiz-adv-x="610" d="M193 0v654h-184v42h228v-313h157q49 0 84.5 -15t58.5 -40.5t33.5 -60t10.5 -73.5q0 -97 -50.5 -145.5t-146.5 -48.5h-191zM237 42h148q75 0 112.5 39.5t37.5 112.5q0 72 -38 109.5t-118 37.5h-142v-299z" />
<glyph unicode="&#x42b;" horiz-adv-x="630" d="M67 0v696h45v-313h150q52 0 88.5 -15t59.5 -40.5t34 -60t11 -73.5q0 -94 -50 -144t-147 -50h-191zM519 0v696h45v-696h-45zM409 194q0 63 -37 105t-114 42h-146v-299h147q75 0 112.5 39.5t37.5 112.5z" />
<glyph unicode="&#x42c;" horiz-adv-x="471" d="M51 0v696h45v-313h149q52 0 89 -15t60.5 -40.5t34.5 -60t11 -73.5q0 -94 -50 -144t-148 -50h-191zM96 42h147q76 0 113 39.5t37 112.5q0 72 -40.5 109.5t-113.5 37.5h-143v-299z" />
<glyph unicode="&#x42d;" horiz-adv-x="458" d="M62 141q15 -54 51.5 -80.5t88.5 -26.5q41 0 70.5 13t48 36.5t27.5 55t9 67.5v128h-224v42h224v111q0 38 -9 70t-27.5 55t-47 36t-67.5 13q-53 0 -91 -27.5t-51 -75.5l-43 16q17 62 67.5 95t118.5 33q51 0 88 -16t60.5 -45t34.5 -68.5t11 -85.5v-281q0 -99 -49.5 -156 t-148.5 -57q-68 0 -117 33.5t-66 99.5z" />
<glyph unicode="&#x42e;" horiz-adv-x="627" d="M580 189q0 -48 -14 -84.5t-39 -61t-59.5 -37.5t-75.5 -13q-47 0 -82.5 14.5t-59.5 41t-36 63.5t-12 81v141h-93v-334h-46v696h46v-322h93v134q0 40 12 75.5t36 61.5t59.5 41t82.5 15q45 0 80 -14t59 -39.5t36.5 -61t12.5 -78.5v-319zM535 505q0 31 -9 59t-27 49t-45 33.5 t-62 12.5q-37 0 -64 -12t-45 -33t-27 -49t-9 -60v-312q0 -70 37 -114t109 -44q63 0 102.5 40t39.5 113v317z" />
<glyph unicode="&#x42f;" horiz-adv-x="506" d="M99 507q0 -75 42 -107.5t112 -32.5h143v289h-142q-72 0 -113.5 -38.5t-41.5 -110.5zM396 327h-146q-20 0 -39.5 -4.5t-36 -17t-29.5 -35t-22 -57.5l-51 -213h-46l52 218q11 45 29.5 76.5t56.5 46.5q-59 17 -84.5 60.5t-25.5 105.5q0 86 49 137.5t144 51.5h193v-696h-44 v327z" />
<glyph unicode="&#x430;" horiz-adv-x="409" d="M315 47q-23 -33 -61 -43.5t-77 -10.5q-69 0 -107.5 38t-38.5 101q0 30 9 57.5t28 47.5t48.5 32t70.5 12h131v76q0 47 -27 74t-84 27q-39 0 -69.5 -13t-48.5 -38q-5 3 -17 11.5t-17 11.5q24 32 60 50.5t92 18.5q33 0 61.5 -6.5t49 -23t32.5 -44t12 -69.5v-356h-44v47h-3z M318 242h-129q-50 0 -83 -25.5t-33 -81.5q0 -45 29.5 -73.5t86.5 -28.5q23 0 46 5t41.5 17t30 31t11.5 47v109z" />
<glyph unicode="&#x431;" horiz-adv-x="419" d="M217 438q-42 0 -69.5 -20.5t-42.5 -54.5q-12 -26 -16.5 -61t-5.5 -73q0 -47 4.5 -81.5t17.5 -58.5q28 -56 105 -56q64 0 97 47q14 20 21.5 56t7.5 97q0 45 -3.5 82.5t-12.5 60.5q-13 31 -37 46.5t-66 15.5zM223 479q54 0 87.5 -21.5t48.5 -60.5q14 -34 17.5 -76.5 t3.5 -85.5q0 -62 -9 -104t-30 -73q-23 -33 -57.5 -48.5t-76.5 -15.5q-51 0 -84 17t-52 49q-17 29 -24.5 74.5t-7.5 110.5q0 57 2 110t7 88q5 49 16.5 85.5t30 63t43 45t54.5 32.5q32 15 67 27t77 29q1 -2 3 -7t4 -10.5t4.5 -10.5t3.5 -6q-32 -14 -60 -23.5t-53 -19.5 t-46.5 -22t-38.5 -30q-37 -32 -50.5 -82.5t-18.5 -116.5q2 0 3 -1q23 42 60.5 62.5t75.5 20.5z" />
<glyph unicode="&#x432;" horiz-adv-x="410" d="M379 140q0 -43 -14 -70.5t-38 -43t-56 -21t-68 -5.5h-151v492h169q76 0 112.5 -35t36.5 -92q0 -32 -14 -61.5t-51 -45.5v-1q22 -7 36 -20t22.5 -29t12 -34t3.5 -34zM326 365q0 42 -28 65.5t-82 23.5h-121v-180h137q18 0 34.5 4t30 14t21.5 28t8 45zM336 141 q0 42 -25.5 69.5t-80.5 27.5h-135v-199h108q71 0 102 25.5t31 76.5z" />
<glyph unicode="&#x433;" horiz-adv-x="353" d="M95 453v-453h-44v492h294v-39h-250z" />
<glyph unicode="&#x434;" horiz-adv-x="482" d="M55 -129h-43v165l34 3q16 11 27 27.5t19 43.5t13 66.5t8 95.5l9 220h292v-453h38v-168h-43v129h-354v-129zM163 454l-9 -191q-4 -81 -16 -138.5t-37 -85.5h269v415h-207z" />
<glyph unicode="&#x435;" horiz-adv-x="408" d="M359 81q-17 -42 -56 -65t-87 -23q-55 0 -90 17.5t-55 51t-27.5 82t-7.5 110.5q0 46 7 90.5t26 78.5t52.5 55t86.5 21q49 0 81 -17t51 -46.5t26.5 -68t7.5 -81.5v-46h-294q0 -49 6 -87.5t21 -65.5t41 -41t66 -14q36 0 66 19t41 48zM329 279q0 36 -4.5 68t-18 57t-37 39.5 t-61.5 14.5t-62 -15t-38.5 -40t-20 -58t-6.5 -69h248v3z" />
<glyph unicode="&#x436;" horiz-adv-x="623" d="M290 269v223h43v-223h83q14 0 28 3t27 11t23.5 22t17.5 37l44 150h40l-40 -142q-11 -36 -26.5 -61t-43.5 -33q35 -8 50 -33.5t26 -62.5l44 -160h-43q-3 10 -9 31.5t-12 45.5t-12 45.5t-9 31.5q-7 24 -16.5 39.5t-21.5 24.5t-26.5 12t-32.5 3h-91v-233h-43v233h-92 q-35 0 -59 -15t-38 -64l-41 -154h-44q3 10 9 32.5t13 47.5t13.5 47.5t9.5 32.5q10 37 25 62.5t50 33.5q-28 8 -43.5 33t-25.5 61l-41 142h41q3 -9 9 -30.5t13 -44.5t12.5 -44.5t8.5 -30.5q7 -23 17.5 -37t23.5 -22t27 -11t28 -3h84z" />
<glyph unicode="&#x437;" horiz-adv-x="371" d="M258 258q44 -16 58.5 -48.5t14.5 -68.5t-12.5 -63.5t-34.5 -46t-52 -28t-65 -9.5q-26 0 -50 4.5t-45 14.5t-37 26t-25 38l35 19q12 -31 46.5 -47t74.5 -16q25 0 47 6.5t38.5 20t26 33.5t9.5 48q0 53 -28 76t-70 23h-58v36h60q37 0 64 22.5t27 68.5q0 45 -30 68t-78 23 q-39 0 -71.5 -15.5t-45.5 -46.5l-34 19q9 21 24.5 36.5t35.5 26t43.5 15.5t47.5 5q74 0 113 -33.5t39 -94.5q0 -14 -3 -30.5t-11 -31.5t-21 -28.5t-33 -21.5z" />
<glyph unicode="&#x438;" horiz-adv-x="459" d="M361 0v413h-1l-123 -191q-35 -57 -70.5 -111.5t-70.5 -110.5h-43v491h45v-417l265 417h42v-491h-44z" />
<glyph unicode="&#x439;" horiz-adv-x="459" d="M361 0v413h-1l-123 -191q-35 -57 -70.5 -111.5t-70.5 -110.5h-43v491h45v-417l265 417h42v-491h-44zM350 681q-3 -18 -11 -38t-23 -36.5t-38 -27t-55 -10.5q-30 0 -52.5 10.5t-38 27t-24 36.5t-11.5 38h38q7 -31 31.5 -53.5t57.5 -22.5q35 0 59.5 21.5t29.5 54.5h37z" />
<glyph unicode="&#x43a;" horiz-adv-x="400" d="M53 0v492h43v-223h93q14 0 28.5 3t27 11t23 22.5t17.5 37.5l44 149h40l-41 -142q-11 -36 -26.5 -60.5t-42.5 -32.5q34 -9 49.5 -34.5t25.5 -62.5l45 -160h-44l-42 154q-14 49 -37.5 64t-58.5 15h-101v-233h-43z" />
<glyph unicode="&#x43b;" horiz-adv-x="432" d="M5 19q26 15 43.5 32.5t28 45.5t15 70t4.5 107v218h280v-492h-44v454h-194v-205q0 -58 -6.5 -101.5t-20 -75t-36 -52.5t-53.5 -35z" />
<glyph unicode="&#x43c;" horiz-adv-x="526" d="M436 0v400q-3 -7 -15 -30.5t-28 -55.5t-34.5 -68t-34.5 -67.5t-27.5 -55t-14.5 -29.5h-33q-17 33 -33.5 66.5t-33.5 66.5q-20 38 -40 78.5t-46 92.5l-1 -1v-397h-44v492h44q25 -51 49.5 -100t50.5 -99l71 -142q4 9 17 34.5t30.5 60t37 73.5l37 74l31 62l18.5 37h43v-492 h-44z" />
<glyph unicode="&#x43d;" horiz-adv-x="426" d="M331 0v232h-235v-232h-45v492h45v-222h235v222h45v-492h-45z" />
<glyph unicode="&#x43e;" horiz-adv-x="419" d="M211 499q45 0 76 -15.5t51 -41.5q23 -27 31.5 -77t8.5 -120q0 -45 -4 -88.5t-15 -71.5q-19 -49 -58.5 -70t-94.5 -21q-42 0 -71 12.5t-48 35.5q-26 27 -36.5 77.5t-10.5 124.5q0 49 3.5 88.5t13.5 68.5q18 50 58.5 74t95.5 24zM210 459q-35 0 -63 -15t-44 -45 q-12 -23 -15.5 -63t-4.5 -96q0 -69 9 -109t29 -62q29 -37 88 -37q36 0 66.5 18t44.5 55q10 25 12.5 62.5t1.5 81.5q0 108 -19 146q-14 32 -41.5 48t-63.5 16z" />
<glyph unicode="&#x43f;" horiz-adv-x="443" d="M341 0v455h-238v-455h-44v492h326v-492h-44z" />
<glyph unicode="&#x440;" horiz-adv-x="421" d="M92 425q23 43 57 58.5t72 15.5q53 0 84.5 -21t47.5 -55.5t20.5 -80t4.5 -93.5t-5 -93.5t-22.5 -81.5t-49.5 -58t-86 -22q-45 0 -73.5 19t-49.5 50h-2v-266h-43v695h43v-66zM208 35q43 0 68 18.5t37.5 48.5t16 68.5t3.5 77.5q0 43 -3.5 81.5t-16.5 67t-37 45t-65 16.5 q-44 0 -68.5 -21t-36 -52.5t-14 -69.5t-2.5 -71q0 -34 3 -70.5t15 -67t35.5 -50.5t64.5 -21z" />
<glyph unicode="&#x441;" horiz-adv-x="372" d="M209 -6q-56 0 -90.5 20t-53 55t-25 81t-6.5 99q0 50 7.5 95t27.5 79.5t55 54.5t89 20q52 0 87.5 -22t52.5 -64q-10 -6 -19 -11t-19 -10q-11 30 -37.5 48.5t-64.5 18.5q-45 0 -71.5 -18t-41 -47.5t-19 -67t-4.5 -76.5q0 -38 4.5 -76.5t18.5 -69.5t40.5 -50.5t70.5 -19.5 q38 0 64.5 18t37.5 47q9 -5 18.5 -9.5t19.5 -9.5q-17 -42 -54 -63.5t-88 -21.5z" />
<glyph unicode="&#x442;" horiz-adv-x="329" d="M186 454v-454h-44v454h-139v38h322v-38h-139z" />
<glyph unicode="&#x443;" horiz-adv-x="366" d="M185 66q3 12 13 44.5t23.5 76t28 92t28 91.5t23 76t13.5 45h46q-47 -152 -93 -301.5t-94 -300.5q-14 -48 -39 -71t-68 -23h-20v38h16q32 0 48 21.5t27 58.5l27 87q-41 123 -79 245t-79 246h47l68 -217l62 -208h2z" />
<glyph unicode="&#x444;" horiz-adv-x="502" d="M270 31q47 2 80.5 19.5t47.5 50.5q12 21 16 59.5t4 75.5q0 50 -5 91t-18 66q-17 33 -50.5 49t-74.5 16v-427zM228 -6q-38 0 -68.5 8.5t-53.5 23.5q-38 27 -53 81.5t-15 136.5q0 48 3.5 86.5t15.5 67.5q20 51 65.5 75.5t105.5 25.5v208h42q0 -52 0.5 -104t0.5 -104 q63 -2 102.5 -24t58.5 -58q17 -32 23 -77t6 -97q0 -47 -6 -96t-28 -82q-23 -35 -62.5 -52.5t-93.5 -18.5q0 -48 -0.5 -96t-0.5 -96h-42v192zM227 31q0 107 0.5 213.5t0.5 213.5q-40 -1 -74 -16.5t-51 -45.5q-12 -23 -17 -63t-5 -94q0 -75 11.5 -116t40.5 -63q35 -27 94 -29z " />
<glyph unicode="&#x445;" horiz-adv-x="367" d="M301 0l-118 220l-117 -220h-49l140 253l-132 239h49l109 -208l110 208h50l-134 -240l141 -252h-49z" />
<glyph unicode="&#x446;" horiz-adv-x="441" d="M376 0h-324v492h44v-453h238v453h44v-453h40v-168h-42v129z" />
<glyph unicode="&#x447;" horiz-adv-x="400" d="M306 0v231q-35 -21 -72 -31t-67 -10q-67 0 -103 33.5t-36 104.5v164h44v-154q0 -53 23.5 -80.5t81.5 -27.5q29 0 64.5 11.5t64.5 32.5v218h44v-492h-44z" />
<glyph unicode="&#x448;" horiz-adv-x="661" d="M608 492v-492h-555v492h43v-452h211v452h44v-452h214v452h43z" />
<glyph unicode="&#x449;" horiz-adv-x="673" d="M564 492h43v-453h40v-165h-41v126h-554v492h43v-453h211v453h44v-453h214v453z" />
<glyph unicode="&#x44a;" horiz-adv-x="506" d="M202 39h126q53 0 82.5 27.5t29.5 76.5q0 43 -27 70.5t-89 27.5h-122v-202zM159 0v454h-152v38h195v-211h125q44 0 74 -11t48.5 -30t26.5 -43.5t8 -52.5q0 -66 -37 -105t-122 -39h-166z" />
<glyph unicode="&#x44b;" horiz-adv-x="523" d="M425 0v492h44v-492h-44zM95 39h116q61 0 91.5 28t30.5 76q0 43 -29.5 70.5t-91.5 27.5h-117v-202zM52 0v492h43v-211h120q44 0 75 -11t50.5 -30t28 -43.5t8.5 -52.5q0 -66 -40 -105t-125 -39h-160z" />
<glyph unicode="&#x44c;" horiz-adv-x="388" d="M86 40h117q61 0 91 27.5t30 75.5q0 43 -29.5 70.5t-91.5 27.5h-117v-201zM43 0v492h44v-211h120q44 0 74.5 -11t50 -30t28 -43.5t8.5 -52.5q0 -66 -40 -105t-125 -39h-160z" />
<glyph unicode="&#x44d;" horiz-adv-x="373" d="M54 98q11 -28 38 -46.5t64 -18.5q42 0 68 17t40.5 45t19.5 64t6 75h-188v36h188q-1 36 -6 70t-18.5 60t-38 42t-66.5 16q-36 0 -65 -18.5t-40 -48.5l-38 21q17 40 55 64t89 24q54 0 87.5 -20t52 -54.5t25.5 -79.5t7 -94q0 -52 -7.5 -99t-27 -82.5t-53.5 -56.5t-89 -21 q-51 0 -88 22t-54 64z" />
<glyph unicode="&#x44e;" horiz-adv-x="534" d="M329 498q38 0 67.5 -12.5t49.5 -33.5q17 -18 26 -43.5t13 -54t4.5 -57.5t0.5 -53q0 -49 -3 -89q-2 -25 -7 -45.5t-14 -37.5q-38 -78 -139 -78q-70 0 -108 33t-49 101q-2 24 -4 49.5t-2 53.5h-66v-231h-45v491h45v-222h66q0 25 1.5 47t3.5 42q9 66 51.5 103t108.5 37z M328 458q-34 0 -60.5 -14.5t-42.5 -42.5q-5 -9 -8.5 -21t-5.5 -30t-3.5 -44t-1.5 -64q0 -27 0.5 -53.5t4 -50.5t12.5 -45t27 -36q30 -25 78 -25q36 0 65.5 19t40.5 55q11 35 12 68.5t1 74.5t-2.5 79.5t-16.5 70.5q-28 59 -100 59z" />
<glyph unicode="&#x44f;" horiz-adv-x="420" d="M41 354q0 61 36.5 99.5t113.5 38.5h174v-492h-43v226h-124q-34 0 -57.5 -15t-35.5 -63l-36 -148h-44l38 151q7 30 20.5 54.5t41.5 34.5q-44 12 -64 42t-20 72zM84 353q0 -49 31.5 -69t84.5 -20h122v190h-128q-56 0 -83 -27.5t-27 -73.5z" />
<glyph unicode="&#x451;" horiz-adv-x="408" d="M359 81q-17 -42 -56 -65t-87 -23q-55 0 -90 17.5t-55 51t-27.5 82t-7.5 110.5q0 46 7 90.5t26 78.5t52.5 55t86.5 21q49 0 81 -17t51 -46.5t26.5 -68t7.5 -81.5v-46h-294q0 -49 6 -87.5t21 -65.5t41 -41t66 -14q36 0 66 19t41 48zM329 279q0 36 -4.5 68t-18 57t-37 39.5 t-61.5 14.5t-62 -15t-38.5 -40t-20 -58t-6.5 -69h248v3zM270 604v51h48v-51h-48zM102 604v51h49v-51h-49z" />
<glyph unicode="&#x452;" horiz-adv-x="446" d="M3 618h54v106h42v-106h210v-36h-210v-172h3q18 38 54 61t82 23q49 0 79.5 -17.5t48 -50t24 -79t6.5 -104.5q0 -56 -7.5 -103.5t-28.5 -82.5t-58 -53.5t-95 -15.5v38q46 -3 75 14t44.5 47.5t21 70t5.5 81.5q0 60 -6.5 101t-20.5 66t-37 35.5t-57 10.5q-42 0 -68 -20.5 t-40.5 -52t-19.5 -70t-5 -75.5v-234h-42v582h-54v36z" />
<glyph unicode="&#x453;" horiz-adv-x="349" d="M93 452v-452h-44v490h293v-38h-249zM152 570l72 153l48 -19l-94 -145z" />
<glyph unicode="&#x454;" horiz-adv-x="370" d="M208 -6q-56 0 -90 20t-53 55t-25.5 81t-6.5 99q0 50 7.5 95t27.5 79.5t55 54.5t89 20q52 0 87.5 -22t52.5 -64q-10 -6 -19 -11t-19 -10q-11 30 -37.5 48.5t-63.5 18.5q-42 0 -68 -16t-41 -42.5t-20.5 -60.5t-6.5 -70h189v-36h-189q0 -36 5 -72t19.5 -64.5t40.5 -46 t68 -17.5q38 0 64.5 18t37.5 47l38 -19q-17 -42 -53.5 -63.5t-88.5 -21.5z" />
<glyph unicode="&#x455;" horiz-adv-x="391" d="M64 104q34 -72 131 -72q49 0 83 24t34 76q0 26 -8.5 42.5t-24 28t-37 18.5t-47.5 14q-35 9 -63.5 19.5t-49 25.5t-32 36t-11.5 51q0 61 41 96.5t114 35.5q117 0 151 -81l-37 -20q-15 32 -44 46.5t-71 14.5q-54 0 -81.5 -26t-27.5 -66q0 -23 9.5 -37.5t27 -25t41 -17.5 t50.5 -14q35 -8 62 -18.5t45.5 -27t28 -39.5t9.5 -57q0 -30 -10 -55t-30.5 -43.5t-52 -29t-73.5 -10.5q-60 0 -101 21t-64 69z" />
<glyph unicode="&#x456;" horiz-adv-x="177" d="M65 628v49h47v-49h-47zM67 0v493h43v-493h-43z" />
<glyph unicode="&#x457;" horiz-adv-x="177" d="M149 597v51h48v-51h-48zM-19 597v51h49v-51h-49zM67 0v493h43v-493h-43z" />
<glyph unicode="&#x458;" horiz-adv-x="184" d="M117 -92q0 -50 -22.5 -81t-71.5 -31h-31v38h22q34 1 46 24t12 59v575h45v-584zM71 628v48h48v-48h-48z" />
<glyph unicode="&#x459;" horiz-adv-x="647" d="M344 283h119q44 0 74.5 -11.5t50 -30.5t28.5 -44t9 -53q0 -69 -40 -106.5t-125 -37.5h-161l1 454h-161v-204q0 -59 -6 -102t-20 -74.5t-36 -52.5t-53 -36l-18 35q25 15 43 32t28.5 43.5t15.5 66.5t5 101v229h246v-209zM581 143q0 42 -29.5 71t-91.5 29h-117v-203h117 q60 0 90.5 27.5t30.5 75.5z" />
<glyph unicode="&#x45a;" horiz-adv-x="651" d="M341 40h116q61 0 91.5 27.5t30.5 75.5q0 42 -29.5 70t-91.5 28h-117v-201zM297 0v241h-200v-241h-43v492h43v-210h200v210h44v-210h120q44 0 74.5 -11t50 -30t28.5 -44t9 -53q0 -68 -40 -106t-126 -38h-160z" />
<glyph unicode="&#x45b;" horiz-adv-x="438" d="M336 0v334q0 57 -27 89.5t-84 32.5q-28 0 -51.5 -10t-41 -28t-27 -42.5t-9.5 -52.5v-323h-42v582h-56v36h56v107h43v-107h207v-36h-207v-158h2q21 38 57 56.5t75 18.5q72 0 110.5 -41.5t38.5 -109.5v-348h-44z" />
<glyph unicode="&#x45c;" horiz-adv-x="400" d="M175 571l73 152l47 -18l-94 -145zM53 0v492h43v-223h93q14 0 28.5 3t27 11t23 22.5t17.5 37.5l44 149h40l-41 -142q-11 -36 -26.5 -60.5t-42.5 -32.5q34 -9 49.5 -34.5t25.5 -62.5l45 -160h-44l-42 154q-14 49 -37.5 64t-58.5 15h-101v-233h-43z" />
<glyph unicode="&#x45e;" horiz-adv-x="366" d="M185 66q3 12 13 44.5t23.5 76t28 92t28 91.5t23 76t13.5 45h46q-47 -152 -93 -301.5t-94 -300.5q-14 -48 -39 -71t-68 -23h-20v38h16q32 0 48 21.5t27 58.5l27 87q-41 123 -79 245t-79 246h47l68 -217l62 -208h2zM97 674q5 -31 30 -53t56 -22q32 0 57 21.5t30 53.5h37 q-3 -19 -11 -38.5t-22.5 -36t-37 -27t-53.5 -10.5t-53 10.5t-37 27t-23 36t-10 38.5h37z" />
<glyph unicode="&#x45f;" horiz-adv-x="433" d="M380 493v-493h-141v-133h-45v133h-140v493h43v-453h239v453h44z" />
<glyph unicode="&#x490;" horiz-adv-x="429" d="M416 654h-304v-654h-46v696h308v116h42v-158z" />
<glyph unicode="&#x491;" horiz-adv-x="354" d="M345 453h-249v-453h-44v492h251v107h42v-146z" />
<glyph unicode="&#x4d9;" horiz-adv-x="406" d="M47 412q17 42 59 65t90 23q53 0 87 -18t54 -52t27.5 -82t7.5 -108q0 -47 -7 -91t-26 -78.5t-52.5 -55.5t-85.5 -21q-49 0 -81 17t-51 46.5t-26.5 68t-7.5 81.5v47h293q0 48 -6.5 86.5t-21.5 65t-40.5 41t-63.5 14.5q-36 0 -67 -19.5t-44 -47.5zM80 214q0 -36 4.5 -68 t18 -57t36.5 -39.5t61 -14.5t62 15t38.5 40t20 58t6.5 69h-247v-3z" />
<glyph unicode="&#x1e80;" horiz-adv-x="695" d="M346 604q-11 -47 -21.5 -93t-21.5 -93l-96 -418h-47q-36 175 -71.5 348t-72.5 348h45q5 -27 15 -75.5t22 -107.5t24.5 -124t24.5 -124.5t21.5 -109t14.5 -78.5h3q15 68 29.5 130t31.5 135l82 354h39l96 -418l47 -201h2l39 201q6 29 13.5 65.5t15 76.5t15 80.5t14.5 77.5 t13 67.5t11 50.5h46l-144 -696h-47l-97 418q-11 47 -22 93t-22 93h-2zM387 746l-148 93l35 38l133 -108z" />
<glyph unicode="&#x1e81;" horiz-adv-x="614" d="M471 0h-44l-74 258q-2 7 -8.5 29.5t-14 49t-14.5 49t-9 29.5h-1l-45 -162l-73 -253h-44l-135 492h46q4 -17 13 -51.5t20.5 -77t23.5 -88.5t22.5 -87.5t19 -73t11.5 -44.5h3q11 39 21.5 77.5t21.5 76.5l8 28t13.5 48t16 58t16.5 58t13.5 47.5t7.5 28.5h44q19 -67 37 -133 t36 -133q11 -39 22 -78.5t22 -78.5h2l42 156q17 67 34 133.5t35 133.5h46zM317 560l-94 145l48 18l72 -152z" />
<glyph unicode="&#x1e82;" horiz-adv-x="695" d="M346 604q-11 -47 -21.5 -93t-21.5 -93l-96 -418h-47q-36 175 -71.5 348t-72.5 348h45q5 -27 15 -75.5t22 -107.5t24.5 -124t24.5 -124.5t21.5 -109t14.5 -78.5h3q15 68 29.5 130t31.5 135l82 354h39l96 -418l47 -201h2l39 201q6 29 13.5 65.5t15 76.5t15 80.5t14.5 77.5 t13 67.5t11 50.5h46l-144 -696h-47l-97 418q-11 47 -22 93t-22 93h-2zM299 749l131 107l35 -37l-147 -91z" />
<glyph unicode="&#x1e83;" horiz-adv-x="614" d="M471 0h-44l-74 258q-2 7 -8.5 29.5t-14 49t-14.5 49t-9 29.5h-1l-45 -162l-73 -253h-44l-135 492h46q4 -17 13 -51.5t20.5 -77t23.5 -88.5t22.5 -87.5t19 -73t11.5 -44.5h3q11 39 21.5 77.5t21.5 76.5l8 28t13.5 48t16 58t16.5 58t13.5 47.5t7.5 28.5h44q19 -67 37 -133 t36 -133q11 -39 22 -78.5t22 -78.5h2l42 156q17 67 34 133.5t35 133.5h46zM290 571l73 152l47 -18l-94 -145z" />
<glyph unicode="&#x1e84;" horiz-adv-x="695" d="M346 604q-11 -47 -21.5 -93t-21.5 -93l-96 -418h-47q-36 175 -71.5 348t-72.5 348h45q5 -27 15 -75.5t22 -107.5t24.5 -124t24.5 -124.5t21.5 -109t14.5 -78.5h3q15 68 29.5 130t31.5 135l82 354h39l96 -418l47 -201h2l39 201q6 29 13.5 65.5t15 76.5t15 80.5t14.5 77.5 t13 67.5t11 50.5h46l-144 -696h-47l-97 418q-11 47 -22 93t-22 93h-2zM240 747v51h49v-51h-49zM403 747v51h48v-51h-48z" />
<glyph unicode="&#x1e85;" horiz-adv-x="614" d="M471 0h-44l-74 258q-2 7 -8.5 29.5t-14 49t-14.5 49t-9 29.5h-1l-45 -162l-73 -253h-44l-135 492h46q4 -17 13 -51.5t20.5 -77t23.5 -88.5t22.5 -87.5t19 -73t11.5 -44.5h3q11 39 21.5 77.5t21.5 76.5l8 28t13.5 48t16 58t16.5 58t13.5 47.5t7.5 28.5h44q19 -67 37 -133 t36 -133q11 -39 22 -78.5t22 -78.5h2l42 156q17 67 34 133.5t35 133.5h46zM202 598v51h49v-51h-49zM370 598v51h48v-51h-48z" />
<glyph unicode="&#x1ef2;" horiz-adv-x="413" d="M206 341l60 145q5 12 18 41.5t27 63t27 63.5t18 42h46l-176 -406v-290h-43v290l-176 406h47l90 -211zM225 731l-148 93l35 38l133 -108z" />
<glyph unicode="&#x1ef3;" horiz-adv-x="366" d="M185 66q3 12 13 44.5t23.5 76t28 92t28 91.5t23 76t13.5 45h46q-47 -152 -93 -301.5t-94 -300.5q-14 -48 -39 -71t-68 -23h-20v38h16q32 0 48 21.5t27 58.5l27 87q-41 123 -79 245t-79 246h47l68 -217l62 -208h2zM184 560l-94 145l48 18l72 -152z" />
<glyph unicode="&#x2013;" horiz-adv-x="497" d="M20 242v41h457v-41h-457z" />
<glyph unicode="&#x2014;" horiz-adv-x="997" d="M20 242v41h957v-41h-957z" />
<glyph unicode="&#x2015;" horiz-adv-x="997" d="M20 242v43h957v-43h-957z" />
<glyph unicode="&#x2018;" horiz-adv-x="175" d="M95 710h27l-22 -96h14v-61h-57v62z" />
<glyph unicode="&#x2019;" horiz-adv-x="175" d="M57 553l22 97h-14v61h57v-62l-38 -96h-27z" />
<glyph unicode="&#x201a;" horiz-adv-x="155" d="M41 -97q6 24 11.5 48.5t11.5 47.5h-15v60h57v-57l-38 -99h-27z" />
<glyph unicode="&#x201c;" horiz-adv-x="242" d="M77 710h27l-23 -96h15v-61h-57v62zM172 710h28l-23 -96h14v-61h-56v62z" />
<glyph unicode="&#x201d;" horiz-adv-x="242" d="M163 554h-27l23 96h-15v61h57v-62zM68 554h-28l23 96h-14v61h56v-62z" />
<glyph unicode="&#x201e;" horiz-adv-x="279" d="M47 -97l23 96h-15v60h57v-57l-38 -99h-27zM159 -97l23 96h-15v60h57v-57l-38 -99h-27z" />
<glyph unicode="&#x2020;" horiz-adv-x="391" d="M217 413v-611h-45v611h-158v41h158v242h45v-242h158v-41h-158z" />
<glyph unicode="&#x2021;" horiz-adv-x="391" d="M172 413h-158v41h158v242h45v-242h158v-41h-158v-236h158v-41h-158v-334h-45v334h-158v41h158v236z" />
<glyph unicode="&#x2022;" horiz-adv-x="333" d="M254 268q0 -18 -7 -34t-18.5 -27.5t-27 -18.5t-33.5 -7q-35 0 -59.5 25.5t-24.5 61.5t24.5 61.5t59.5 25.5q18 0 33.5 -7t27 -18.5t18.5 -27.5t7 -34z" />
<glyph unicode="&#x2023;" horiz-adv-x="399" d="M367 277l-286 -157v303z" />
<glyph unicode="&#x2026;" horiz-adv-x="559" d="M51 0v61h56v-61h-56zM431 0v61h56v-61h-56zM240 0v61h56v-61h-56z" />
<glyph unicode="&#x2030;" horiz-adv-x="844" d="M247 371q0 -47 -31.5 -72t-73.5 -25q-44 0 -75.5 25t-31.5 72v231q0 47 31.5 71.5t75.5 24.5q43 0 74 -24.5t31 -71.5v-231zM210 601q0 29 -19 47t-49 18q-32 0 -51 -18t-19 -47v-228q0 -29 19 -47t51 -18q30 0 49 18t19 47v228zM129 -17h-35l368 731h36zM562 92 q0 -47 -31.5 -71.5t-73.5 -24.5q-21 0 -40.5 6.5t-34.5 18.5t-23.5 30t-8.5 41v233q0 23 8.5 41t23.5 30t34.5 18t40.5 6q42 0 73.5 -24t31.5 -71v-233zM525 324q0 29 -19 46t-49 17q-32 0 -51 -17t-19 -46v-231q0 -29 19 -46t51 -17q30 0 49 17t19 46v231zM812 92 q0 -47 -31.5 -71.5t-73.5 -24.5q-21 0 -40.5 6.5t-34.5 18.5t-23.5 30t-8.5 41v233q0 23 8.5 41t23.5 30t34.5 18t40.5 6q42 0 73.5 -24t31.5 -71v-233zM775 324q0 29 -19 46t-49 17q-32 0 -51 -17t-19 -46v-231q0 -29 19 -46t51 -17q30 0 49 17t19 46v231z" />
<glyph unicode="&#x2039;" horiz-adv-x="247" d="M162 46l-112 179l112 179h44l-110 -179l110 -179h-44z" />
<glyph unicode="&#x203a;" horiz-adv-x="243" d="M50 46l110 179l-110 179h44l113 -179l-112 -179h-45z" />
<glyph unicode="&#x2044;" horiz-adv-x="140" d="M-106 -17h-35l368 731h36z" />
<glyph unicode="&#x2070;" horiz-adv-x="262" d="M237 461q0 -47 -31.5 -72t-73.5 -25q-44 0 -75.5 25t-31.5 72v231q0 47 31.5 71.5t75.5 24.5q43 0 74 -24.5t31 -71.5v-231zM200 691q0 29 -19 47t-49 18q-32 0 -51 -18t-19 -47v-228q0 -29 19 -47t51 -18q30 0 49 18t19 47v228z" />
<glyph unicode="&#x2074;" horiz-adv-x="266" d="M215 436v-68h-37v68h-166v30l127 319h40l-127 -315h126v120h37v-120h38v-34h-38z" />
<glyph unicode="&#x2075;" horiz-adv-x="258" d="M61 454q5 -26 21.5 -42t45.5 -16q43 0 57 29t14 79q0 55 -14.5 80.5t-55.5 25.5q-19 0 -37.5 -9t-27.5 -24h-33v208h200v-32h-166v-135q14 13 34.5 18.5t37.5 5.5q52 0 75 -31t23 -106q0 -66 -23.5 -103.5t-83.5 -37.5q-44 0 -71.5 21t-32.5 63z" />
<glyph unicode="&#x2076;" horiz-adv-x="257" d="M130 364q-52 0 -79 26.5t-27 88.5q0 29 5 52.5t13 41.5l103 209h41l-92 -187q21 9 42 9q51 0 75 -30.5t24 -88.5q0 -63 -28.5 -92t-76.5 -29zM131 573q-38 0 -53.5 -25t-15.5 -66q0 -42 15 -64t53 -22q36 0 52 23.5t16 62.5q0 41 -15 66t-52 25z" />
<glyph unicode="&#x2077;" horiz-adv-x="240" d="M85 368h-37l141 384h-140v-57h-35v90h216v-29z" />
<glyph unicode="&#x2078;" horiz-adv-x="259" d="M238 483q0 -62 -31.5 -89.5t-77.5 -27.5q-23 0 -42.5 6.5t-34.5 20.5t-23.5 36.5t-8.5 54.5q0 43 14 67t37 34q-23 10 -35 32.5t-12 60.5q0 57 30 83.5t75 26.5t75 -26.5t30 -83.5q0 -37 -12.5 -59.5t-34.5 -33.5q23 -11 37 -34.5t14 -67.5zM129 571q-32 0 -52 -20.5 t-20 -64.5q0 -47 19 -67.5t53 -20.5q72 0 72 87q0 46 -20 66t-52 20zM129 756q-69 0 -69 -79q0 -39 18.5 -58.5t50.5 -19.5t50.5 20t18.5 58q0 79 -69 79z" />
<glyph unicode="&#x2079;" horiz-adv-x="252" d="M126 787q52 0 79 -26.5t27 -87.5q0 -29 -5.5 -53.5t-13.5 -41.5l-102 -209h-41l92 188q-21 -9 -42 -9q-99 0 -99 118q0 62 28.5 91.5t76.5 29.5zM125 579q38 0 53.5 24.5t15.5 66.5t-15 63.5t-53 21.5q-36 0 -52 -23t-16 -62q0 -41 15 -66t52 -25z" />
<glyph unicode="&#x207a;" horiz-adv-x="267" d="M149 527v-103h-32v103h-106v31h106v102h32v-102h106v-31h-106z" />
<glyph unicode="&#x207b;" horiz-adv-x="225" d="M30 520v33h169v-33h-169z" />
<glyph unicode="&#x207c;" horiz-adv-x="267" d="M11 476v31h244v-31h-244zM11 569v32h244v-32h-244z" />
<glyph unicode="&#x207d;" horiz-adv-x="156" d="M131 298q-40 48 -68 113.5t-28 136.5q0 69 26.5 135t68.5 116l20 -11q-35 -53 -55.5 -114.5t-20.5 -121.5q0 -66 20.5 -128t55.5 -113z" />
<glyph unicode="&#x207e;" horiz-adv-x="156" d="M21 311q34 51 55.5 113t21.5 127q0 60 -21 121.5t-56 114.5l20 11q42 -50 68.5 -115.5t26.5 -134.5q0 -71 -28 -136.5t-68 -113.5z" />
<glyph unicode="&#x207f;" horiz-adv-x="299" d="M227 278v218q0 35 -19.5 55.5t-56.5 20.5q-38 0 -59 -24.5t-21 -59.5v-210h-37v324h37v-40q16 23 39 34t49 11q51 0 78.5 -28t27.5 -73v-228h-38z" />
<glyph unicode="&#x2080;" horiz-adv-x="262" d="M237 2q0 -47 -31.5 -71.5t-73.5 -24.5q-21 0 -40.5 6.5t-34.5 18.5t-23.5 30t-8.5 41v233q0 23 8.5 41t23.5 30t34.5 18t40.5 6q42 0 73.5 -24t31.5 -71v-233zM200 234q0 29 -19 46t-49 17q-32 0 -51 -17t-19 -46v-231q0 -29 19 -46t51 -17q30 0 49 17t19 46v231z" />
<glyph unicode="&#x2081;" horiz-adv-x="209" d="M144 -90h-37v376l-68 -42v39l70 44h35v-417z" />
<glyph unicode="&#x2082;" horiz-adv-x="260" d="M20 -90v31l156 223q14 19 18 35t4 33q0 26 -16.5 45t-52.5 19q-26 0 -45.5 -16.5t-23.5 -47.5l-38 6q5 42 35 66.5t73 24.5q53 0 80 -27t27 -70q0 -45 -30 -87l-142 -201h168v-34h-213z" />
<glyph unicode="&#x2083;" horiz-adv-x="258" d="M126 330q58 0 82 -31t24 -77q0 -11 -1.5 -24t-6 -26t-14 -25t-24.5 -19q17 -8 27 -19.5t15 -25.5t6 -29t1 -30q0 -24 -6 -45.5t-19.5 -37.5t-35.5 -25.5t-53 -9.5q-38 0 -66 19.5t-35 66.5l38 4q3 -26 19 -41.5t46 -15.5q42 0 58 25t16 63q0 40 -17.5 61.5t-49.5 21.5 h-28v33h26q31 0 48.5 19t17.5 54q0 33 -14.5 56.5t-54.5 23.5q-26 0 -44 -15.5t-23 -41.5l-37 7q7 37 34 60.5t71 23.5z" />
<glyph unicode="&#x2084;" horiz-adv-x="266" d="M217 -23v-67h-37v67h-168v31l129 319h40l-129 -316h128v120h37v-120h38v-34h-38z" />
<glyph unicode="&#x2085;" horiz-adv-x="258" d="M61 -4q5 -26 21.5 -42t45.5 -16q43 0 57 29t14 79q0 55 -14.5 80.5t-55.5 25.5q-19 0 -37.5 -9t-27.5 -24h-33v208h200v-32h-166v-135q14 13 34.5 18.5t37.5 5.5q52 0 75 -31t23 -106q0 -66 -23.5 -103.5t-83.5 -37.5q-44 0 -71.5 21t-32.5 63z" />
<glyph unicode="&#x2086;" horiz-adv-x="257" d="M130 -94q-52 0 -79 26.5t-27 87.5q0 30 5 53.5t13 40.5l103 210h41l-92 -188q20 10 42 10q51 0 75 -30.5t24 -88.5q0 -63 -28.5 -92t-76.5 -29zM131 115q-38 0 -53.5 -25t-15.5 -66q0 -42 15 -64t53 -22q36 0 52 23.5t16 61.5q0 42 -15 66.5t-52 25.5z" />
<glyph unicode="&#x2087;" horiz-adv-x="240" d="M85 -90h-37l141 384h-140v-58h-35v91h216v-29z" />
<glyph unicode="&#x2088;" horiz-adv-x="259" d="M238 24q0 -62 -31.5 -89.5t-77.5 -27.5q-23 0 -42.5 6.5t-34.5 20.5t-23.5 36.5t-8.5 54.5q0 44 14 67.5t37 34.5q-23 10 -35 32t-12 61q0 56 30.5 82.5t74.5 26.5q45 0 75 -26t30 -84q0 -37 -12.5 -59t-34.5 -33q23 -11 37 -34.5t14 -68.5zM129 112q-32 0 -52 -20.5 t-20 -64.5q0 -47 19 -67.5t53 -20.5q72 0 72 87q0 47 -20 66.5t-52 19.5zM129 297q-69 0 -69 -79q0 -39 18.5 -58t50.5 -19t50.5 19.5t18.5 57.5q0 79 -69 79z" />
<glyph unicode="&#x2089;" horiz-adv-x="252" d="M126 329q52 0 79 -26.5t27 -87.5q0 -29 -5.5 -53.5t-13.5 -41.5l-102 -209h-41l92 188q-21 -9 -42 -9q-99 0 -99 118q0 62 28.5 91.5t76.5 29.5zM125 121q38 0 53.5 24.5t15.5 66.5t-15 63.5t-53 21.5q-36 0 -52 -23t-16 -62q0 -41 15 -66t52 -25z" />
<glyph unicode="&#x208a;" horiz-adv-x="267" d="M149 96v-103h-32v103h-106v31h106v102h32v-102h106v-31h-106z" />
<glyph unicode="&#x208b;" horiz-adv-x="225" d="M30 89v34h169v-34h-169z" />
<glyph unicode="&#x208c;" horiz-adv-x="267" d="M11 43v31h244v-31h-244zM11 136v32h244v-32h-244z" />
<glyph unicode="&#x208d;" horiz-adv-x="156" d="M131 -146q-40 48 -68 113.5t-28 136.5q0 69 26.5 134.5t68.5 115.5l20 -10q-35 -53 -55.5 -115t-20.5 -122q0 -65 20.5 -127t55.5 -113z" />
<glyph unicode="&#x208e;" horiz-adv-x="156" d="M21 -133q34 51 55.5 113t21.5 127q0 60 -21 121.5t-56 114.5l20 11q42 -50 68.5 -115.5t26.5 -134.5q0 -72 -28 -137.5t-68 -113.5z" />
<glyph unicode="&#x20ab;" horiz-adv-x="410" d="M201 607h97v80h40v-80h46v-32h-46v-456h-40v49q-17 -29 -45.5 -41t-57.5 -12q-38 0 -63 14t-39.5 39.5t-20 61.5t-5.5 80q0 39 4.5 75.5t19 64.5t40.5 44.5t69 16.5q40 0 63 -17t35 -37v118h-97v32zM203 153q24 0 40.5 7.5t27 21t16.5 31t8 37.5q3 33 3 68q0 26 -3 51.5 t-11 47.5q-9 25 -28 40.5t-52 15.5q-30 0 -49 -12.5t-29.5 -34.5t-14 -52.5t-3.5 -65.5q0 -36 4 -64.5t14.5 -48.5t29 -31t47.5 -11zM350 47v-38h-274v38h274z" />
<glyph unicode="&#x20ac;" horiz-adv-x="410" d="M96 388v-70h209v-32h-209v-100q0 -32 9 -60t26.5 -48.5t43 -32.5t57.5 -12q98 0 129 95l42 -13q-18 -63 -64.5 -92.5t-106.5 -29.5q-84 0 -132 53.5t-48 144.5v95h-38v32h38v70h-38v32h38v87q0 43 12.5 79t36 62t57 40t74.5 14q60 0 106.5 -30t63.5 -89l-42 -14 q-14 45 -48.5 69t-79.5 24q-33 0 -58.5 -12t-43 -33t-26 -49.5t-8.5 -60.5v-87h208v-32h-208z" />
<glyph unicode="&#x2103;" horiz-adv-x="704" d="M679 132q-7 -35 -24.5 -61t-42 -43t-55 -26t-63.5 -9q-45 0 -81.5 14.5t-62 40.5t-39.5 62.5t-14 81.5v313q0 43 14 79.5t39.5 62t62 40t81.5 14.5q67 0 117.5 -33.5t66.5 -98.5l-43 -15q-11 51 -48.5 78t-92.5 27q-72 0 -112.5 -43.5t-40.5 -110.5v-316 q0 -33 10.5 -61.5t30.5 -49.5t48.5 -32.5t63.5 -11.5q54 0 92 28t51 83zM240 590q0 -23 -8.5 -42.5t-23 -34t-34 -23t-42.5 -8.5q-22 0 -41.5 8.5t-34 23t-23 34t-8.5 42.5q0 22 8.5 42t23 34t34 22.5t41.5 8.5q23 0 42.5 -8.5t34 -22.5t23 -34t8.5 -42zM208 590 q0 32 -22 54.5t-54 22.5q-31 0 -53 -22.5t-22 -54.5t22 -54.5t53 -22.5q32 0 54 21.5t22 55.5z" />
<glyph unicode="&#x2105;" horiz-adv-x="610" d="M453 352q58 0 87 -34q19 -21 27 -57t8 -89q0 -38 -4.5 -68.5t-14.5 -50.5q-29 -59 -106 -59q-29 0 -48.5 6t-33.5 20q-23 21 -32 57.5t-9 93.5q0 35 3.5 63t11.5 49q14 35 42.5 52t68.5 17zM452 316q-23 0 -41 -9.5t-29 -27.5q-9 -17 -12.5 -44t-3.5 -66q0 -50 7 -80.5 t25 -44.5q19 -16 53 -16q26 0 45.5 12t28.5 35q8 20 10 45t2 54q0 37 -4 62t-11 39q-9 19 -27 30t-43 11zM504 713q-93 -183 -184.5 -365t-185.5 -365h-35q93 183 184 365t185 365h36zM162 344q-38 0 -62.5 13.5t-38.5 37.5t-19 56.5t-5 70.5t6 71t20.5 57t39 38t62.5 14 q79 0 104 -70q-9 -5 -19 -8.5t-18 -8.5q-6 23 -24.5 36.5t-42.5 13.5q-27 0 -44.5 -11.5t-27.5 -31t-13.5 -46t-3.5 -56.5q0 -25 3 -49.5t12.5 -44.5t26.5 -32.5t46 -12.5q25 0 42.5 13t24.5 35l35 -16q-26 -69 -104 -69z" />
<glyph unicode="&#x2109;" horiz-adv-x="668" d="M350 654v-280h265v-40h-265v-334h-46v696h353v-42h-307zM233 590q0 -23 -8.5 -42.5t-23 -34t-34 -23t-42.5 -8.5q-22 0 -41.5 8.5t-34 23t-23 34t-8.5 42.5q0 22 8.5 42t23 34t34 22.5t41.5 8.5q23 0 42.5 -8.5t34 -22.5t23 -34t8.5 -42zM201 590q0 32 -22 54.5t-54 22.5 q-31 0 -53 -22.5t-22 -54.5t22 -54.5t53 -22.5q32 0 54 21.5t22 55.5z" />
<glyph unicode="&#x2113;" horiz-adv-x="420" d="M383 122q-12 -28 -26.5 -52t-31.5 -42t-38 -28t-46 -10q-58 0 -95 42.5t-37 123.5v65q-12 -11 -28 -22.5t-27 -19.5q0 1 -1.5 5t-3.5 9t-3.5 9.5l-1.5 4.5l12 9t17.5 14t19.5 16.5t17 15.5v246q0 55 10.5 93t28 61t40 33t47.5 10q18 0 34.5 -7.5t29 -23.5t20.5 -39.5 t8 -55.5q0 -81 -48.5 -162.5t-132.5 -169.5v-67q0 -42 8 -71t21 -47t30 -26t36 -8q35 0 60 28t45 79zM147 296q78 83 111 154t33 128q0 18 -3 34t-10 29t-18 20.5t-27 7.5t-31.5 -9t-27.5 -27.5t-19.5 -48.5t-7.5 -72v-216z" />
<glyph unicode="&#x2116;" horiz-adv-x="755" d="M502 334h209v-33h-209v33zM396 0q-9 19 -31.5 66t-52 108.5t-62.5 129t-62 127t-50.5 104.5t-28.5 60h-1v-595h-45v696h44q45 -92 88 -183t88 -182l111 -231h3v596h44v-696h-45zM603 706q39 0 63.5 -15.5t37.5 -38.5q10 -17 13.5 -45t3.5 -68q0 -32 -3 -54.5t-9 -42.5 q-11 -35 -40.5 -52.5t-67.5 -17.5q-37 0 -60 12.5t-36 32.5q-14 23 -19 54.5t-5 66.5q0 39 5.5 69t21.5 52q16 21 38 34t57 13zM602 672q-20 0 -36.5 -7.5t-27.5 -23.5q-20 -28 -20 -105q0 -42 5.5 -64.5t14.5 -35.5q19 -30 63 -30q51 0 71 39q13 26 13 95q0 36 -4 58t-9 33 q-18 41 -70 41z" />
<glyph unicode="&#x2117;" horiz-adv-x="741" d="M403 538q58 0 89.5 -30t31.5 -91q0 -25 -6.5 -47.5t-20.5 -39.5t-36.5 -27t-55.5 -10h-87v-172h-37v417h122zM318 327h85q46 0 65 25.5t19 64.5q0 42 -21 65t-64 23h-84v-178zM375 -9q-74 0 -133 26.5t-101 73.5t-64.5 111t-22.5 139t23 139.5t65 111.5t101 74t132 27 t132.5 -27t102 -74t65.5 -111.5t23 -139.5t-23 -139t-65.5 -111t-102 -73.5t-132.5 -26.5zM375 659q-65 0 -117.5 -25t-89.5 -68t-56.5 -101t-19.5 -124q0 -68 20.5 -125.5t57.5 -100t89.5 -66.5t115.5 -24q65 0 117.5 24t90 66.5t58 100.5t20.5 125t-20.5 125.5t-58 101 t-90.5 67t-117 24.5z" />
<glyph unicode="&#x2122;" horiz-adv-x="706" d="M495 372h-28l-112 236h-1v-296h-35v383h35q11 -24 28 -61t35.5 -76.5t35.5 -76.5t29 -61q12 24 29 61t35.5 76.5t35.5 76.5t28 61h33v-383h-35v294zM171 661v-349h-36v349h-102v35h239v-35h-101z" />
<glyph unicode="&#x2126;" horiz-adv-x="484" d="M364 42q3 -1 6.5 -1h6.5h75v-41h-153v49q45 17 70 57.5t25 91.5v304q0 72 -42 114t-109 42q-72 0 -112.5 -43.5t-40.5 -112.5v-307q0 -52 24.5 -91t68.5 -56v-48h-152v41h89v2q-24 14 -38.5 33t-23 43t-11.5 53.5t-3 64.5v267q0 44 14.5 80t40.5 62t63 40.5t81 14.5 q42 0 77.5 -13.5t62 -39t41.5 -62t15 -82.5v-267q0 -65 -13.5 -113t-61.5 -82z" />
<glyph unicode="&#x212b;" horiz-adv-x="481" d="M422 0q-4 15 -10.5 39t-14 49t-14.5 49t-11 39h-264l-50 -176h-46l203 696h50l204 -696h-47zM288 467l-47 170h-3q-56 -201 -120 -420h243zM238 710q-35 0 -59 24.5t-24 57.5q0 18 6.5 33t17.5 26.5t26.5 18t32.5 6.5t32 -6.5t26 -18t17.5 -26.5t6.5 -33q0 -33 -24 -57.5 t-58 -24.5zM238 849q-23 0 -40 -16.5t-17 -40.5q0 -23 17 -39t40 -16t39.5 16t16.5 39q0 24 -16.5 40.5t-39.5 16.5z" />
<glyph unicode="&#x212e;" horiz-adv-x="803" d="M188 308v-189q16 -27 40.5 -48t53.5 -35t61.5 -21t64.5 -7q64 0 121.5 27.5t100.5 75.5h45q-48 -58 -119 -90t-149 -32q-70 0 -132 25.5t-108 70t-72.5 103.5t-26.5 126t26.5 126t72.5 103t108 70t132 26q72 0 133.5 -24.5t106.5 -68.5t71 -105t29 -133h-559zM628 509 q-16 26 -40.5 47t-53.5 36t-61.5 23t-64.5 8q-57 0 -115.5 -31t-104.5 -84v-180h440v181z" />
<glyph unicode="&#x2153;" horiz-adv-x="600" d="M457 420q58 0 82 -31t24 -77q0 -11 -1.5 -24t-6 -26t-14 -25t-24.5 -19q17 -8 27 -19.5t15 -25.5t6 -29t1 -30q0 -24 -6 -45.5t-19.5 -37.5t-35.5 -25.5t-53 -9.5q-38 0 -66 19.5t-35 66.5l38 4q3 -26 19 -41.5t46 -15.5q42 0 58 25t16 63q0 40 -17.5 61.5t-49.5 21.5 h-28v33h26q31 0 48.5 19t17.5 54q0 33 -14.5 56.5t-54.5 23.5q-26 0 -44 -15.5t-23 -41.5l-37 7q7 37 34 60.5t71 23.5zM110 -17h-35l368 731h36zM173 278h-37v376l-68 -42v40l70 43h35v-417z" />
<glyph unicode="&#x2154;" horiz-adv-x="600" d="M466 420q58 0 82 -31t24 -77q0 -11 -1.5 -24t-6 -26t-14 -25t-24.5 -19q17 -8 27 -19.5t15 -25.5t6 -29t1 -30q0 -24 -6 -45.5t-19.5 -37.5t-35.5 -25.5t-53 -9.5q-38 0 -66 19.5t-35 66.5l38 4q3 -26 19 -41.5t46 -15.5q42 0 58 25t16 63q0 40 -17.5 61.5t-49.5 21.5 h-28v33h26q31 0 48.5 19t17.5 54q0 33 -14.5 56.5t-54.5 23.5q-26 0 -44 -15.5t-23 -41.5l-37 7q7 37 34 60.5t71 23.5zM28 278v32l156 223q14 18 18 34t4 33q0 26 -16.5 45t-52.5 19q-26 0 -45.5 -16.5t-23.5 -47.5l-38 6q5 42 35 66.5t73 24.5q53 0 80 -26.5t27 -69.5 q0 -46 -30 -88l-142 -200h168v-35h-213zM148 -17h-35l368 731h36z" />
<glyph unicode="&#x2155;" horiz-adv-x="600" d="M382 86q5 -26 21.5 -42t45.5 -16q43 0 57 29t14 79q0 55 -14.5 80.5t-55.5 25.5q-19 0 -37.5 -9t-27.5 -24h-33v208h200v-32h-166v-135q14 13 34.5 18.5t37.5 5.5q52 0 75 -31t23 -106q0 -66 -23.5 -103.5t-83.5 -37.5q-44 0 -71.5 21t-32.5 63zM99 -17h-35l368 731h36z M170 278h-37v376l-68 -42v40l70 43h35v-417z" />
<glyph unicode="&#x2156;" horiz-adv-x="600" d="M408 86q5 -26 21.5 -42t45.5 -16q43 0 57 29t14 79q0 55 -14.5 80.5t-55.5 25.5q-19 0 -37.5 -9t-27.5 -24h-33v208h200v-32h-166v-135q14 13 34.5 18.5t37.5 5.5q52 0 75 -31t23 -106q0 -66 -23.5 -103.5t-83.5 -37.5q-44 0 -71.5 21t-32.5 63zM24 278v32l156 223 q14 18 18 34t4 33q0 26 -16.5 45t-52.5 19q-26 0 -45.5 -16.5t-23.5 -47.5l-38 6q5 42 35 66.5t73 24.5q53 0 80 -26.5t27 -69.5q0 -46 -30 -88l-142 -200h168v-35h-213zM143 -17h-35l368 731h36z" />
<glyph unicode="&#x2157;" horiz-adv-x="600" d="M401 86q5 -26 21.5 -42t45.5 -16q43 0 57 29t14 79q0 55 -14.5 80.5t-55.5 25.5q-19 0 -37.5 -9t-27.5 -24h-33v208h200v-32h-166v-135q14 13 34.5 18.5t37.5 5.5q52 0 75 -31t23 -106q0 -66 -23.5 -103.5t-83.5 -37.5q-44 0 -71.5 21t-32.5 63zM130 698q58 0 82 -31 t24 -76q0 -11 -1.5 -24.5t-6 -26.5t-14 -25t-24.5 -19q17 -8 27 -19.5t15 -25.5t6 -29t1 -30q0 -24 -6 -45.5t-19.5 -37.5t-35.5 -25.5t-53 -9.5q-38 0 -66 19.5t-35 66.5l38 4q3 -26 19 -41.5t46 -15.5q42 0 58 25t16 64q0 40 -17.5 61.5t-49.5 21.5h-28v33h26 q31 0 48.5 19t17.5 54q0 33 -14.5 56t-54.5 23q-26 0 -44 -15t-23 -41l-37 6q7 37 34 60.5t71 23.5zM123 -17h-35l368 731h36z" />
<glyph unicode="&#x2158;" horiz-adv-x="600" d="M406 86q5 -26 21.5 -42t45.5 -16q43 0 57 29t14 79q0 55 -14.5 80.5t-55.5 25.5q-19 0 -37.5 -9t-27.5 -24h-33v208h200v-32h-166v-135q14 13 34.5 18.5t37.5 5.5q52 0 75 -31t23 -106q0 -66 -23.5 -103.5t-83.5 -37.5q-44 0 -71.5 21t-32.5 63zM226 346v-68h-37v68h-166 v30l127 319h40l-127 -315h126v120h37v-120h38v-34h-38zM139 -17h-35l368 731h36z" />
<glyph unicode="&#x2159;" horiz-adv-x="600" d="M441 -4q-52 0 -79 26.5t-27 87.5q0 30 5 53.5t13 40.5l103 210h41l-92 -188q20 10 42 10q51 0 75 -30.5t24 -88.5q0 -63 -28.5 -92t-76.5 -29zM123 -17h-35l368 731h36zM442 205q-38 0 -53.5 -25t-15.5 -66q0 -42 15 -64t53 -22q36 0 52 23.5t16 61.5q0 42 -15 66.5 t-52 25.5zM175 278h-37v376l-68 -42v40l70 43h35v-417z" />
<glyph unicode="&#x215a;" horiz-adv-x="600" d="M459 -4q-52 0 -79 26.5t-27 87.5q0 30 5 53.5t13 40.5l103 210h41l-92 -188q20 10 42 10q51 0 75 -30.5t24 -88.5q0 -63 -28.5 -92t-76.5 -29zM73 364q5 -26 21.5 -42t45.5 -16q43 0 57 29t14 79q0 55 -14.5 80.5t-55.5 25.5q-19 0 -37.5 -9t-27.5 -24h-33v208h200v-32 h-166v-135q14 13 34.5 18.5t37.5 5.5q52 0 75 -31t23 -106q0 -66 -23.5 -103.5t-83.5 -37.5q-44 0 -71.5 21t-32.5 63zM152 -17h-35l368 731h36zM460 205q-38 0 -53.5 -25t-15.5 -66q0 -42 15 -64t53 -22q36 0 52 23.5t16 61.5q0 42 -15 66.5t-52 25.5z" />
<glyph unicode="&#x215b;" horiz-adv-x="600" d="M558 114q0 -62 -31.5 -89.5t-77.5 -27.5q-23 0 -42.5 6.5t-34.5 20.5t-23.5 36.5t-8.5 54.5q0 44 14 67.5t37 34.5q-23 10 -35 32t-12 61q0 56 30.5 82.5t74.5 26.5q45 0 75 -26t30 -84q0 -37 -12.5 -59t-34.5 -33q23 -11 37 -34.5t14 -68.5zM110 -17h-35l368 731h36z M449 202q-32 0 -52 -20.5t-20 -64.5q0 -47 19 -67.5t53 -20.5q72 0 72 87q0 47 -20 66.5t-52 19.5zM172 278h-37v376l-68 -42v40l70 43h35v-417zM449 387q-69 0 -69 -79q0 -39 18.5 -58t50.5 -19t50.5 19.5t18.5 57.5q0 79 -69 79z" />
<glyph unicode="&#x215c;" horiz-adv-x="600" d="M581 114q0 -62 -31.5 -89.5t-77.5 -27.5q-23 0 -42.5 6.5t-34.5 20.5t-23.5 36.5t-8.5 54.5q0 44 14 67.5t37 34.5q-23 10 -35 32t-12 61q0 56 30.5 82.5t74.5 26.5q45 0 75 -26t30 -84q0 -37 -12.5 -59t-34.5 -33q23 -11 37 -34.5t14 -68.5zM143 698q58 0 82 -31t24 -76 q0 -11 -1.5 -24.5t-6 -26.5t-14 -25t-24.5 -19q17 -8 27 -19.5t15 -25.5t6 -29t1 -30q0 -24 -6 -45.5t-19.5 -37.5t-35.5 -25.5t-53 -9.5q-38 0 -66 19.5t-35 66.5l38 4q3 -26 19 -41.5t46 -15.5q42 0 58 25t16 64q0 40 -17.5 61.5t-49.5 21.5h-28v33h26q31 0 48.5 19 t17.5 54q0 33 -14.5 56t-54.5 23q-26 0 -44 -15t-23 -41l-37 6q7 37 34 60.5t71 23.5zM141 -17h-35l368 731h36zM472 202q-32 0 -52 -20.5t-20 -64.5q0 -47 19 -67.5t53 -20.5q72 0 72 87q0 47 -20 66.5t-52 19.5zM472 387q-69 0 -69 -79q0 -39 18.5 -58t50.5 -19t50.5 19.5 t18.5 57.5q0 79 -69 79z" />
<glyph unicode="&#x215d;" horiz-adv-x="600" d="M576 114q0 -62 -31.5 -89.5t-77.5 -27.5q-23 0 -42.5 6.5t-34.5 20.5t-23.5 36.5t-8.5 54.5q0 44 14 67.5t37 34.5q-23 10 -35 32t-12 61q0 56 30.5 82.5t74.5 26.5q45 0 75 -26t30 -84q0 -37 -12.5 -59t-34.5 -33q23 -11 37 -34.5t14 -68.5zM75 364q5 -26 21.5 -42 t45.5 -16q43 0 57 29t14 79q0 55 -14.5 80.5t-55.5 25.5q-19 0 -37.5 -9t-27.5 -24h-33v208h200v-32h-166v-135q14 13 34.5 18.5t37.5 5.5q52 0 75 -31t23 -106q0 -66 -23.5 -103.5t-83.5 -37.5q-44 0 -71.5 21t-32.5 63zM142 -17h-35l368 731h36zM467 202q-32 0 -52 -20.5 t-20 -64.5q0 -47 19 -67.5t53 -20.5q72 0 72 87q0 47 -20 66.5t-52 19.5zM467 387q-69 0 -69 -79q0 -39 18.5 -58t50.5 -19t50.5 19.5t18.5 57.5q0 79 -69 79z" />
<glyph unicode="&#x215e;" horiz-adv-x="600" d="M106 -17h-35l368 731h36zM123 278h-37l141 384h-140v-57h-35v90h216v-29zM566 114q0 -62 -31.5 -89.5t-77.5 -27.5q-23 0 -42.5 6.5t-34.5 20.5t-23.5 36.5t-8.5 54.5q0 44 14 67.5t37 34.5q-23 10 -35 32t-12 61q0 56 30.5 82.5t74.5 26.5q45 0 75 -26t30 -84 q0 -37 -12.5 -59t-34.5 -33q23 -11 37 -34.5t14 -68.5zM457 202q-32 0 -52 -20.5t-20 -64.5q0 -47 19 -67.5t53 -20.5q72 0 72 87q0 47 -20 66.5t-52 19.5zM457 387q-69 0 -69 -79q0 -39 18.5 -58t50.5 -19t50.5 19.5t18.5 57.5q0 79 -69 79z" />
<glyph unicode="&#x215f;" horiz-adv-x="362" d="M116 -17h-35l368 731h36zM173 278h-37v376l-68 -42v40l70 43h35v-417z" />
<glyph unicode="&#x2190;" horiz-adv-x="811" d="M756 340v-40h-620l166 -162l-30 -29l-212 212l212 211l30 -29l-166 -163h620z" />
<glyph unicode="&#x2191;" horiz-adv-x="485" d="M261 2h-39v618l-162 -165l-30 30l212 212l212 -212l-29 -30l-164 165v-618z" />
<glyph unicode="&#x2192;" horiz-adv-x="811" d="M680 340l-166 163l31 29l212 -211l-212 -212l-31 29l166 162h-619v40h619z" />
<glyph unicode="&#x2193;" horiz-adv-x="485" d="M261 79l164 166l29 -30l-212 -212l-212 212l30 30l162 -166v619h39v-619z" />
<glyph unicode="&#x2196;" horiz-adv-x="840" d="M192 598l565 -559l-28 -28l-564 561v-232h-40v299h300v-41h-233z" />
<glyph unicode="&#x2198;" horiz-adv-x="840" d="M689 54l-564 559l28 28l563 -561v231h40v-298h-300v41h233z" />
<glyph unicode="&#x21a9;" horiz-adv-x="840" d="M129 340h513q32 0 54.5 9.5t36 26.5t19.5 40t6 49v83q0 52 -27 81t-89 29h-64v39h69q42 0 71.5 -11.5t47.5 -32t26 -48.5t8 -61v-79q0 -75 -40.5 -120t-125.5 -45h-505l164 -162l-30 -29l-210 211l210 212l30 -29z" />
<glyph unicode="&#x21aa;" horiz-adv-x="836" d="M561 503l30 29l210 -212l-210 -211l-30 29l165 162h-506q-85 0 -125.5 45t-40.5 120v79q0 33 8 61t26 48.5t47.5 32t71.5 11.5h69v-39h-64q-62 0 -89 -29t-27 -81v-83q0 -26 6 -49t19.5 -40t36 -26.5t54.5 -9.5h514z" />
<glyph unicode="&#x21b3;" horiz-adv-x="840" d="M171 340h560l-164 163l28 29l210 -212l-209 -211l-29 29l164 162h-602v392h42v-352z" />
<glyph unicode="&#x21b5;" horiz-adv-x="840" d="M754 692h42v-392h-602l164 -162l-29 -29l-209 211l209 212l29 -29l-164 -163h560v352z" />
<glyph unicode="&#x21de;" horiz-adv-x="485" d="M271 364h114v-41h-114v-104h114v-41h-114v-178h-42v178h-114v41h114v104h-114v41h114v251l-162 -162l-28 30l211 210l211 -210l-28 -30l-163 162z" />
<glyph unicode="&#x21df;" horiz-adv-x="485" d="M270 78l163 163l28 -30l-211 -210l-211 210l28 30l162 -163v252h-114v41h114v104h-114v41h114v178h42v-178h114v-41h-114v-104h114v-41h-114z" />
<glyph unicode="&#x21e0;" horiz-adv-x="807" d="M306 339v-39h-177l167 -162l-31 -30l-212 213q53 53 106 105t106 106l31 -29l-167 -164h177zM360 339h98v-40h-98v40zM514 339h98v-40h-98v40zM668 339h78v-40h-78v40z" />
<glyph unicode="&#x21e1;" horiz-adv-x="475" d="M256 386v-97h-40v97h40zM256 233v-98h-40v98h40zM256 79v-79h-40v79h40zM256 441h-39v176l-162 -166l-30 31l213 212l211 -212l-29 -31l-164 166v-176z" />
<glyph unicode="&#x21e2;" horiz-adv-x="807" d="M440 300h-98v40h98v-40zM286 300h-98v40h98v-40zM132 300h-78v40h78v-40zM671 340l-167 163l31 29l212 -211l-212 -212l-31 29l167 162h-177v40h177z" />
<glyph unicode="&#x21e3;" horiz-adv-x="475" d="M256 76q41 42 81.5 83t81.5 83l29 -30q-53 -54 -105 -106.5t-106 -105.5q-107 105 -212 212l29 30q41 -42 81.5 -83t81.5 -83v177h39v-177zM216 460v99h40v-99h-40zM216 307v98h40v-98h-40zM216 615v78h40v-78h-40z" />
<glyph unicode="&#x21e4;" horiz-adv-x="784" d="M78 109v423h41v-423h-41zM748 340v-40h-518l166 -162l-31 -29l-212 212l212 211l31 -29l-166 -163h518z" />
<glyph unicode="&#x21e5;" horiz-adv-x="784" d="M708 109v423h41v-423h-41zM596 340l-166 163l31 29l212 -211l-212 -212l-31 29l166 162h-517v40h517z" />
<glyph unicode="&#x21e7;" horiz-adv-x="786" d="M34 325l357 371l356 -371h-176v-325h-360v325h-177zM391 644l-278 -288h132v-322h293v322h131z" />
<glyph unicode="&#x21ea;" horiz-adv-x="796" d="M214 -21h360v-172h-360v172zM248 -54v-105h292v105h-292zM37 325l357 371l356 -371h-176v-263h-361v263h-176zM394 644l-279 -288h133v-260h292v260h132z" />
<glyph unicode="&#x2202;" horiz-adv-x="431" d="M76 213q0 -47 10 -81.5t26.5 -57.5t38.5 -34t47 -11q35 0 61.5 23.5t45 61t28.5 85t12 94.5q-38 58 -74 80.5t-68 22.5q-31 0 -54.5 -16.5t-39.5 -42.5t-24.5 -58.5t-8.5 -65.5zM37 211q0 52 14 93t36.5 69.5t51.5 44t59 15.5q31 0 70 -17.5t78 -70.5q1 79 -12.5 141 t-39.5 105t-61.5 65.5t-77.5 22.5q-9 0 -21.5 -1.5t-24.5 -4.5l-1 35q14 4 27 5t24 1q61 0 104 -31t70.5 -82t40 -116t12.5 -134q0 -86 -14 -153.5t-39 -113.5t-60 -70t-76 -24q-34 0 -63.5 14t-51 41.5t-33.5 69t-12 96.5z" />
<glyph unicode="&#x2207;" horiz-adv-x="481" d="M468 696l-204 -696h-49l-204 696h457zM240 59q3 8 10.5 34t16 56.5t17 60t12.5 44.5q3 13 12 45t21 73t25 87t24.5 86t20 70t11.5 40h-341l110 -389q16 -57 30.5 -109.5t28.5 -97.5h2z" />
<glyph unicode="&#x220f;" horiz-adv-x="516" d="M406 -87v742h-296v-742h-44v783h385v-783h-45z" />
<glyph unicode="&#x2211;" horiz-adv-x="389" d="M25 -88v40l153 354l-153 352v38h337v-40h-289l153 -350l-153 -353h297v-41h-345z" />
<glyph unicode="&#x2212;" horiz-adv-x="410" d="M20 268v37h367v-37h-367z" />
<glyph unicode="&#x221a;" horiz-adv-x="460" d="M272 -86h-40l-135 434l-66 -27l-12 34l103 42l127 -412q3 15 10.5 55t18 95.5t23.5 122t26.5 135t26 135t23 122t18 95.5t10.5 55h40z" />
<glyph unicode="&#x221e;" horiz-adv-x="620" d="M309 289q10 15 20 25q29 32 64.5 55t71.5 23q25 0 47 -9t38.5 -26t26 -40.5t9.5 -53.5t-10 -54t-26.5 -41.5t-39.5 -26.5t-48 -9q-44 0 -81 29t-73 75q-37 -47 -73 -75.5t-83 -28.5q-25 0 -47.5 9t-39 26t-26 41t-9.5 55q0 28 10 52t27 41t39.5 26.5t47.5 9.5q21 0 42 -8 t41.5 -22.5t38.5 -33t33 -39.5zM464 358q-18 0 -36.5 -8t-36 -21.5t-33 -30.5t-28.5 -35q13 -18 28.5 -35t32.5 -31t34.5 -22.5t35.5 -8.5q38 0 65 27.5t27 69.5q0 20 -7 37.5t-19.5 30t-28.5 20t-34 7.5zM154 358q-18 0 -34.5 -7.5t-29 -20.5t-20 -30.5t-7.5 -36.5 q0 -21 7.5 -39t20 -30.5t29 -20t35.5 -7.5q17 0 35 8.5t35.5 22t33 30.5t27.5 35q-12 17 -27 34t-32.5 31t-36 22.5t-36.5 8.5z" />
<glyph unicode="&#x2227;" horiz-adv-x="421" d="M390 0h-38l-146 453q-3 -11 -14 -46t-26 -81.5t-31.5 -99t-31.5 -99.5t-26 -81.5t-14 -45.5h-38l163 511h36z" />
<glyph unicode="&#x2228;" horiz-adv-x="421" d="M390 511l-166 -511h-36l-163 511h38l143 -453q3 11 14.5 46t26.5 81.5t32 99t32.5 99t26.5 81.5t14 46h38z" />
<glyph unicode="&#x2229;" horiz-adv-x="421" d="M390 0h-37v301q0 31 -8 62t-25.5 56t-45.5 41t-68 16q-39 0 -66.5 -15t-45 -40t-25.5 -56t-8 -64v-301h-35v301q0 40 10 78t32 68t55.5 48t81.5 18t82.5 -16.5t57.5 -45.5t34 -67.5t11 -82.5v-301z" />
<glyph unicode="&#x222a;" horiz-adv-x="421" d="M390 212q0 -44 -11 -82t-34 -67t-57.5 -45.5t-82.5 -16.5t-81.5 18t-55.5 47.5t-32 67.5t-10 78v302h35v-302q0 -32 8 -63.5t25.5 -56t45 -39.5t66.5 -15q40 0 68 16t45.5 41t25.5 56t8 61v302h37v-302z" />
<glyph unicode="&#x222b;" horiz-adv-x="289" d="M248 770q9 0 22 -1t24 -5l-7 -32q-18 3 -32 3q-22 0 -38.5 -9.5t-27.5 -32t-17 -59t-8 -90.5q0 -7 -0.5 -32t-1 -60t-1 -74.5t-1 -74.5t-1 -61t-0.5 -33q-2 -60 -4 -110t-7 -90q-11 -88 -39 -127t-83 -39q-8 0 -19.5 1t-22.5 5l8 32q8 -2 17.5 -3t14.5 -1q22 1 38 11.5 t26.5 33t17 58t9.5 85.5q2 39 3.5 74t3 71.5t2 77t0.5 90.5v76t0.5 58.5t1.5 45t2 35.5q6 92 35.5 134.5t84.5 42.5z" />
<glyph unicode="&#x2248;" horiz-adv-x="410" d="M389 372q-16 -30 -43 -45t-58 -15q-24 0 -48 7.5t-47.5 16t-45.5 16t-42 7.5t-35.5 -10t-30.5 -27l-24 22q17 24 41.5 38t49.5 14q24 0 46.5 -7.5t45 -16.5t45.5 -16.5t47 -7.5q45 0 76 44zM389 226q-16 -30 -43 -45t-58 -15q-24 0 -48 7.5t-47.5 16t-45.5 16t-42 7.5 t-35.5 -10t-30.5 -27l-24 22q17 24 41.5 38t49.5 14q24 0 46.5 -7.5t45 -16.5t45.5 -16.5t47 -7.5q45 0 76 44z" />
<glyph unicode="&#x2260;" horiz-adv-x="410" d="M30 68l75 113h-84v38h109l81 123h-190v37h215l88 133h40l-88 -133h112v-37h-137l-81 -123h218v-38h-243l-76 -115z" />
<glyph unicode="&#x2264;" horiz-adv-x="410" d="M387 107l-366 162v35l366 163v-43l-319 -137q8 -3 32.5 -13.5t57 -25t69.5 -30.5t70 -30.5t57.5 -25t32.5 -13.5v-42zM22 21v38h364v-38h-364z" />
<glyph unicode="&#x2265;" horiz-adv-x="410" d="M22 149q8 3 32.5 13.5t57.5 25t70 30.5t70 30.5t57.5 25t32.5 13.5l-320 137v43l366 -163v-35l-366 -162v42zM22 21v38h365v-38h-365z" />
<glyph unicode="&#x2303;" horiz-adv-x="795" d="M108 413l289 289l287 -285l-31 -32l-256 253l-257 -256z" />
<glyph unicode="&#x2318;" horiz-adv-x="824" d="M278 480v92q0 19 -7 35.5t-19.5 29t-29 19.5t-35.5 7q-39 0 -66 -26t-27 -65t26 -65.5t67 -26.5h91zM542 480h92q19 0 35.5 7t29 19.5t19.5 29.5t7 36q0 38 -26.5 64.5t-64.5 26.5t-65 -26t-27 -65v-92zM278 217h-91q-41 0 -67 -27t-26 -65q0 -39 26 -66t67 -27 q19 0 35.5 7t29 20t19.5 29.5t7 36.5v92zM542 217v-92q0 -20 7 -36.5t19.5 -29.5t29.5 -20t36 -7t35.5 7t29 20t19.5 29.5t7 36.5q0 19 -7 35.5t-19.5 29t-29 20t-35.5 7.5h-92zM501 256v185h-183v-185h183zM542 256h92q33 0 58 -10.5t41 -28.5t24 -42t8 -50q0 -27 -8 -51 t-24 -42t-41 -28.5t-58 -10.5q-32 0 -56.5 10.5t-41.5 28.5t-26 42t-9 51v92h-183v-92q0 -26 -8 -50t-24.5 -42t-41 -29t-57.5 -11q-31 0 -55.5 10t-42 28t-26.5 42t-9 52q0 27 9 50.5t26 41.5t41.5 28.5t56.5 10.5h91v185h-91q-27 0 -51 10.5t-42 28.5t-29 41.5t-11 50.5 t10 51t27.5 42t42 28.5t53.5 10.5q33 0 57.5 -10.5t41 -28.5t24.5 -42t8 -51v-92h183v92q0 27 10 51t27.5 42t42 28.5t53.5 10.5q32 0 56.5 -10.5t41 -28.5t25 -42t8.5 -51q0 -26 -10.5 -49.5t-28 -41.5t-41.5 -29t-51 -11h-92v-185z" />
<glyph unicode="&#x2324;" horiz-adv-x="795" d="M135 323l281 298l280 -297l-31 -32l-249 266l-249 -266zM703 696v-44h-574v44h574z" />
<glyph unicode="&#x2325;" horiz-adv-x="1188" d="M42 664h227l388 -621h468v-43h-499l-389 620h-195v44zM522 664h603v-44h-603v44z" />
<glyph unicode="&#x2326;" horiz-adv-x="1127" d="M745 0h-662v695h662l339 -348zM1025 347l-304 307h-598v-614h598zM499 321l-162 -164l-27 28l162 162l-162 163l27 28l162 -163l162 163l27 -28l-161 -163l161 -162l-27 -28z" />
<glyph unicode="&#x232b;" horiz-adv-x="1127" d="M84 347l339 348h661v-695h-662zM446 40h598v614h-598l-304 -307zM506 157l-27 28l162 162l-162 163l27 28l163 -163l162 163l27 -28l-163 -163l163 -162l-27 -28l-162 164z" />
<glyph unicode="&#x235f;" horiz-adv-x="804" d="M752 346q0 -73 -28 -137.5t-76 -112.5t-112.5 -75.5t-137.5 -27.5t-137 27.5t-112 75.5t-75.5 112.5t-27.5 138.5q0 73 27.5 137.5t75.5 112.5t112.5 75.5t138.5 27.5q73 0 137.5 -28t112.5 -76t75.5 -112.5t27.5 -137.5h-1zM693 346q0 61 -23 115t-63 94t-94 63t-115 23 t-115 -23t-94 -63t-63 -94t-23 -115t23 -114.5t63 -93.5t94 -63t115 -23t115 23t94 63t63 93.5t23 114.5zM521 301l26 -169l-157 76l-141 -76l21 165l-118 117l163 32l75 148l80 -146l164 -34z" />
<glyph unicode="&#x23cf;" horiz-adv-x="854" d="M768 227v-136h-702v136h702zM768 314h-702l351 351z" />
<glyph unicode="&#x25a0;" horiz-adv-x="875" d="M756 40h-633v633h633v-633z" />
<glyph unicode="&#x25a1;" horiz-adv-x="841" d="M122 37h606v617h-606v-617zM80 0v693h687v-693h-687z" />
<glyph unicode="&#x25b2;" horiz-adv-x="820" d="M781 176h-702l351 351z" />
<glyph unicode="&#x25b6;" horiz-adv-x="595" d="M138 701l351 -350l-351 -351v701z" />
<glyph unicode="&#x25bc;" horiz-adv-x="820" d="M430 176l-351 351h702z" />
<glyph unicode="&#x25c0;" horiz-adv-x="595" d="M452 0l-351 351l351 350v-701z" />
<glyph unicode="&#x25ca;" horiz-adv-x="337" d="M144 6l-60 138t-59 138q29 69 59 138l60 138h39q30 -69 61 -138t61 -138q-30 -69 -60.5 -138t-61.5 -138h-39zM163 51h1l103 230q-26 58 -52 115.5t-52 115.5h-1l-99 -231z" />
<glyph unicode="&#x25cf;" horiz-adv-x="843" d="M744 357q0 -64 -25 -121.5t-68.5 -101t-101 -69t-121.5 -25.5q-65 0 -122.5 25t-101 68.5t-68.5 101t-25 122.5q0 66 26 123.5t69.5 100t101 67.5t120.5 25t120 -25t100.5 -68.5t69.5 -101t26 -121.5z" />
<glyph unicode="&#x25fc;" horiz-adv-x="490" d="M0 490h490v-490h-490v490z" />
<glyph unicode="&#x2602;" horiz-adv-x="780" d="M405 695q55 0 112.5 -27.5t104.5 -73.5t77 -106t30 -124q-16 18 -40 28.5t-50 10.5q-23 0 -45 -9.5t-41 -29.5h-2q-23 39 -75 39q-28 0 -62 -14v-304q0 -42 -25.5 -67.5t-73.5 -25.5q-42 0 -69.5 23.5t-27.5 74.5v13h47v-13q0 -28 13.5 -41t34.5 -13q16 0 26 5t15.5 13 t7.5 18t2 20v296q-14 7 -27 9.5t-25 2.5q-26 0 -46.5 -10t-38.5 -27q-17 20 -40 29.5t-47 9.5q-25 0 -48.5 -9.5t-40.5 -29.5l-1 1q0 64 30.5 123.5t77.5 106t105 74.5t113 28v31h29v-32zM730 363q-1 0 -1 1z" />
<glyph unicode="&#x2605;" horiz-adv-x="814" d="M605 254l39 -258l-239 117l-214 -117l32 251l-181 180l249 48l114 226l123 -223l250 -51z" />
<glyph unicode="&#x2606;" horiz-adv-x="838" d="M608 257l39 -259l-240 117l-218 -119l33 255l-183 182l254 49l113 225l124 -223l254 -51zM727 415l-213 43l-107 193l-98 -196l-212 -40l153 -153l-27 -216l184 99l206 -99l-35 221z" />
<glyph unicode="&#x2610;" horiz-adv-x="841" d="M122 37h606v617h-606v-617zM80 0v693h687v-693h-687z" />
<glyph unicode="&#x2611;" horiz-adv-x="850" d="M697 589q4 -4 6 -5q-27 -21 -57 -54.5t-60.5 -74.5t-60 -87t-56.5 -90.5t-49.5 -85t-37.5 -71.5q-47 -9 -69 -20q-8 30 -21.5 70.5t-28.5 79t-31.5 70t-30.5 43.5q17 11 36.5 16t31.5 5q9 0 21.5 -17.5t25 -45.5t23 -63t15.5 -69q30 49 70.5 107t86.5 113.5t94 102.5 t92 76zM123 36h606v617h-606v-617zM82 0v693h687v-693h-687z" />
<glyph unicode="&#x2612;" horiz-adv-x="850" d="M617 579l33 -33l-195 -195l198 -198l-35 -33l-197 198l-197 -200l-32 34l196 197l-196 197l33 33l197 -198zM124 37h606v617h-606v-617zM82 0v693h687v-693h-687z" />
<glyph unicode="&#x2622;" horiz-adv-x="837" d="M418 432q16 0 30.5 -7t25 -18t16.5 -25.5t6 -30.5t-6 -30t-16.5 -24.5t-25 -17t-30.5 -6.5q-31 0 -55.5 22t-24.5 56t23.5 57.5t56.5 23.5zM569 89q-79 -41 -154 -41q-81 0 -148 42l98 170q30 -14 54 -14q20 0 50 14zM364 442q-23 -14 -36 -37.5t-16 -53.5h-197 q0 86 35.5 149t114.5 114zM569 615q72 -40 112 -108t40 -156h-197q-6 62 -55 93zM416 684q-68 0 -128 -26.5t-105 -72t-71 -106t-26 -128.5q0 -70 26.5 -130.5t72 -105.5t106.5 -70.5t129 -25.5q66 0 125.5 26.5t105 71.5t72 103.5t26.5 122.5q0 79 -28.5 142t-75 107 t-106.5 68t-123 24zM418 -17q-77 0 -144 28.5t-117 78t-78.5 117t-28.5 144.5q0 67 26 132t74 117t115.5 84t150.5 32q78 0 146 -28t118 -76.5t78.5 -114t28.5 -141.5q0 -77 -28.5 -145t-78 -118.5t-117 -80t-145.5 -29.5z" />
<glyph unicode="&#x2623;" horiz-adv-x="856" d="M553 462q-13 -27 -37 -43q-44 30 -86 30q-41 0 -89 -30q-14 8 -22 18.5t-15 24.5q32 21 62 32t62 11q64 0 125 -43zM502 120q-7 12 -11.5 25t-6.5 27q88 44 88 124v12t-1 14q11 7 27 8.5t27 1.5q4 -16 4 -37q0 -54 -33.5 -101t-93.5 -74zM351 120q-28 12 -51 30 t-39.5 41.5t-25.5 50t-9 54.5q0 21 4 38h12q22 -2 42 -12v-30q0 -76 88 -120q-2 -14 -7.5 -27.5t-13.5 -24.5zM272 531q0 -68 38 -107.5t111 -48.5v-22q-23 -5 -32.5 -18.5t-9.5 -27.5q0 -5 1 -9.5t3 -9.5l-19 -10q-60 72 -133 72q-29 0 -56.5 -12t-48.5 -32.5t-34 -47.5 t-13 -57q0 -22 6 -56l-11 -5q-8 25 -13.5 50.5t-5.5 50.5q0 29 8 57t26.5 52.5t48 45t73.5 34.5q0 63 11.5 109.5t35 78t59.5 51t86 28.5l5 -15q-136 -39 -136 -151zM583 533q0 109 -118 148l5 16q91 -20 134 -77t43 -155v-16t-1 -17q78 -31 116 -83.5t38 -119.5 q0 -45 -18 -96l-13 4q8 43 8 65q0 30 -12.5 56.5t-33.5 46t-49.5 30.5t-60.5 11q-40 0 -71.5 -19t-55.5 -52l-23 13q3 10 3 20q0 16 -9 27.5t-30 17.5v22q72 9 110 49.5t38 108.5zM428 53q-42 -32 -81 -42.5t-74 -10.5q-26 0 -49 4t-43.5 14t-40 27t-39.5 43l11 8 q68 -60 117 -60q33 0 62 12.5t50.5 33.5t34 49.5t12.5 60.5q0 12 -2.5 30t-15.5 41l22 13q7 -11 17.5 -14.5t20.5 -3.5q18 0 33 17l23 -12q-17 -41 -17 -72t12 -58.5t33 -48.5t48 -33t57 -12q66 0 122 54l12 -8q-19 -26 -38 -42.5t-39.5 -26t-43.5 -13t-50 -3.5 q-38 0 -77.5 10.5t-76.5 42.5z" />
<glyph unicode="&#x262e;" horiz-adv-x="834" d="M410 713q78 0 145.5 -28t117.5 -76.5t78.5 -113.5t28.5 -139q0 -77 -29 -144t-79.5 -116.5t-118.5 -78t-145 -28.5q-73 0 -138.5 29t-115 78.5t-78.5 116t-29 140.5q0 75 28.5 141t78 114.5t115.5 76.5t141 28zM675 204q18 32 28.5 69t10.5 83q0 58 -19 108t-54.5 88.5 t-86 64.5t-113.5 35v-239zM384 413v239q-60 -8 -110 -33t-86 -64.5t-56 -91.5t-20 -112q0 -27 2.5 -47t7.5 -36t12.5 -31.5t18.5 -33.5zM441 338v-289q59 7 107 34t93 75zM384 338l-197 -180q23 -22 45 -40t45 -32.5t49 -24t58 -14.5v291z" />
<glyph unicode="&#x262f;" horiz-adv-x="828" d="M525 174q-21 0 -34.5 15.5t-13.5 33.5q0 23 15.5 37.5t32.5 14.5q22 0 36.5 -16t14.5 -36q0 -22 -15.5 -35.5t-35.5 -13.5zM253 488q0 -20 13 -35t36 -15q22 0 36.5 15t14.5 35q0 18 -14 33.5t-38 15.5q-17 0 -32.5 -13.5t-15.5 -35.5zM50 356q0 82 31.5 148.5t82.5 114 t116 73.5t133 26q82 0 149.5 -29.5t115.5 -79.5t74 -116.5t26 -140.5q0 -82 -29.5 -148.5t-79.5 -114t-115.5 -73t-138.5 -25.5q-81 0 -148.5 30.5t-115.5 81t-74.5 116.5t-26.5 137zM249 649q21 6 42 6q41 0 74.5 -15.5t57 -39t36.5 -51t13 -52.5q0 -51 -19.5 -94.5 t-67.5 -91.5q-21 -21 -29 -51.5t-8 -51.5q0 -74 45.5 -115.5t128.5 -41.5q43 0 85 23.5t75 64.5t53.5 96t20.5 118q0 66 -24.5 128.5t-69.5 110.5t-108 77.5t-141 29.5q-45 0 -87.5 -11.5t-81.5 -34.5z" />
<glyph unicode="&#x2672;" horiz-adv-x="919" d="M668 448l-211 21l60 38l-46 81l-124 -185l-169 98l103 166q11 18 27 28t42 10h243q20 0 27.5 -2.5t14.5 -13.5l53 -87l64 38zM50 421h211l85 -183l-60 35l-31 -28q-16 -15 -16 -29q0 -25 31 -25h192v-211h-185q-32 0 -45 10.5t-23 28.5l-113 208q-7 12 -9.5 25t-2.5 27 q0 26 7 50t25 43zM593 372l172 102l95 -176q9 -18 9 -30q0 -11 -3.5 -20.5t-8.5 -18.5l-108 -194q-9 -16 -15.5 -26.5t-13 -17t-15 -9t-21.5 -2.5h-84v-77l-111 175l110 169v-70h109zM199 504l144 -83l120 181q-19 37 -47.5 61t-71.5 24q-29 0 -48 -28zM311 275l-61 131 h-158l47 -32q-19 -18 -29.5 -42.5t-10.5 -50.5q0 -29 9.5 -46.5t25 -27t34.5 -13t37 -3.5h28q-11 8 -11 24q0 20 19 39l42 38zM448 178h-237q-17 0 -28.5 1t-20 2.5t-16 4t-15.5 5.5l88 -163q9 -16 19.5 -25.5t33.5 -9.5h176v185zM686 582l-59 93q-6 10 -13 13.5t-19 3.5 h-204q31 -7 51.5 -33t38.5 -58l56 -100l-37 -23l159 -15l67 145zM611 368l115 -191q19 2 41 10t41 20.5t31.5 28.5t12.5 34q0 7 -2 13t-4 11l-89 159zM587 206l-81 -128l81 -130v45h96q9 0 20.5 5t20.5 21l103 188q-32 -30 -67.5 -37.5t-88.5 -7.5h-84v44z" />
<glyph unicode="&#x2673;" horiz-adv-x="869" d="M536 0v-59h-16l-74 95l78 98l13 -2v-59h128q36 0 52.5 12t16.5 32q0 19 -16 46l-100 170l67 39l111 -194q23 -39 23 -73q0 -48 -40.5 -76.5t-102.5 -28.5h-140zM393 73v-73h-213q-60 0 -95 28.5t-35 75.5q0 36 24 78l73 131l-46 25l7 13l118 22l42 -112l-8 -15l-47 29 l-64 -116q-13 -24 -13 -43q0 -18 13.5 -30.5t45.5 -12.5h198zM624 400l-121 21l-6 12l49 27l-71 120q-8 14 -19.5 22t-25.5 8t-27 -10t-21 -25l-99 -174l-64 37l106 185q22 38 49.5 54.5t57.5 16.5q31 0 59.5 -18t46.5 -50l73 -129l51 29l6 -14zM452 120h-55v228l-36 -25v57 l42 30h49v-290z" />
<glyph unicode="&#x2674;" horiz-adv-x="869" d="M329 124v46l107 134q14 15 14 33q0 11 -8 20t-23 9q-14 0 -23.5 -11.5t-12.5 -31.5l-52 6q6 42 31 64.5t57 22.5q36 0 60 -20t24 -58q0 -14 -5 -29.5t-16 -29.5l-83 -104h99v-51h-169zM536 0v-59h-16l-74 95l78 98l13 -2v-59h128q36 0 52.5 12t16.5 32q0 19 -16 46 l-100 170l67 39l111 -194q23 -39 23 -73q0 -48 -40.5 -76.5t-102.5 -28.5h-140zM393 73v-73h-213q-60 0 -95 28.5t-35 75.5q0 36 24 78l73 131l-46 25l7 13l118 22l42 -112l-8 -15l-47 29l-64 -116q-13 -24 -13 -43q0 -18 13.5 -30.5t45.5 -12.5h198zM624 400l-121 21l-6 12 l49 27l-71 120q-8 14 -19.5 22t-25.5 8t-27 -10t-21 -25l-99 -174l-64 37l106 185q22 38 49.5 54.5t57.5 16.5q31 0 59.5 -18t46.5 -50l73 -129l51 29l6 -14z" />
<glyph unicode="&#x2675;" horiz-adv-x="869" d="M536 0v-59h-16l-74 95l78 98l13 -2v-59h128q36 0 52.5 12t16.5 32q0 19 -16 46l-100 170l67 39l111 -194q23 -39 23 -73q0 -48 -40.5 -76.5t-102.5 -28.5h-140zM393 73v-73h-213q-60 0 -95 28.5t-35 75.5q0 36 24 78l73 131l-46 25l7 13l118 22l42 -112l-8 -15l-47 29 l-64 -116q-13 -24 -13 -43q0 -18 13.5 -30.5t45.5 -12.5h198zM624 400l-121 21l-6 12l49 27l-71 120q-8 14 -19.5 22t-25.5 8t-27 -10t-21 -25l-99 -174l-64 37l106 185q22 38 49.5 54.5t57.5 16.5q31 0 59.5 -18t46.5 -50l73 -129l51 29l6 -14zM505 214q0 -42 -24.5 -67.5 t-66.5 -25.5q-14 0 -27.5 3.5t-25 12.5t-20 24t-12.5 37l51 7q4 -19 13.5 -27t21.5 -8q18 0 28.5 12.5t10.5 30.5q0 19 -10.5 28.5t-26.5 9.5h-29v48h26q16 0 26.5 9.5t10.5 23.5t-10 24t-24 10q-11 0 -20 -9.5t-14 -26.5l-52 6q7 35 31 57.5t55 22.5q45 0 65.5 -25 t20.5 -58q0 -15 -5 -29t-22 -27q17 -14 23 -30t6 -33z" />
<glyph unicode="&#x2676;" horiz-adv-x="869" d="M536 0v-59h-16l-74 95l78 98l13 -2v-59h128q36 0 52.5 12t16.5 32q0 19 -16 46l-100 170l67 39l111 -194q23 -39 23 -73q0 -48 -40.5 -76.5t-102.5 -28.5h-140zM393 73v-73h-213q-60 0 -95 28.5t-35 75.5q0 36 24 78l73 131l-46 25l7 13l118 22l42 -112l-8 -15l-47 29 l-64 -116q-13 -24 -13 -43q0 -18 13.5 -30.5t45.5 -12.5h198zM624 400l-121 21l-6 12l49 27l-71 120q-8 14 -19.5 22t-25.5 8t-27 -10t-21 -25l-99 -174l-64 37l106 185q22 38 49.5 54.5t57.5 16.5q31 0 59.5 -18t46.5 -50l73 -129l51 29l6 -14zM477 167v-41h-51v41h-117v43 l96 206h56l-93 -200h58v70h51v-70h22v-49h-22z" />
<glyph unicode="&#x2677;" horiz-adv-x="869" d="M536 0v-59h-16l-74 95l78 98l13 -2v-59h128q36 0 52.5 12t16.5 32q0 19 -16 46l-100 170l67 39l111 -194q23 -39 23 -73q0 -48 -40.5 -76.5t-102.5 -28.5h-140zM393 73v-73h-213q-60 0 -95 28.5t-35 75.5q0 36 24 78l73 131l-46 25l7 13l118 22l42 -112l-8 -15l-47 29 l-64 -116q-13 -24 -13 -43q0 -18 13.5 -30.5t45.5 -12.5h198zM624 400l-121 21l-6 12l49 27l-71 120q-8 14 -19.5 22t-25.5 8t-27 -10t-21 -25l-99 -174l-64 37l106 185q22 38 49.5 54.5t57.5 16.5q31 0 59.5 -18t46.5 -50l73 -129l51 29l6 -14zM510 215q0 -41 -22 -69 t-67 -28q-31 0 -54.5 16t-32.5 60l51 10q8 -38 36 -38q13 0 20.5 5.5t11.5 14t5.5 18.5t1.5 19q0 19 -6.5 34.5t-28.5 15.5q-10 0 -18 -7t-15 -18h-47v162h151v-50h-102v-47q10 5 19.5 7t19.5 2q38 0 57.5 -25t19.5 -64v-18z" />
<glyph unicode="&#x2678;" horiz-adv-x="869" d="M536 0v-59h-16l-74 95l78 98l13 -2v-59h128q36 0 52.5 12t16.5 32q0 19 -16 46l-100 170l67 39l111 -194q23 -39 23 -73q0 -48 -40.5 -76.5t-102.5 -28.5h-140zM393 73v-73h-213q-60 0 -95 28.5t-35 75.5q0 36 24 78l73 131l-46 25l7 13l118 22l42 -112l-8 -15l-47 29 l-64 -116q-13 -24 -13 -43q0 -18 13.5 -30.5t45.5 -12.5h198zM624 400l-121 21l-6 12l49 27l-71 120q-8 14 -19.5 22t-25.5 8t-27 -10t-21 -25l-99 -174l-64 37l106 185q22 38 49.5 54.5t57.5 16.5q31 0 59.5 -18t46.5 -50l73 -129l51 29l6 -14zM514 211q0 -24 -7.5 -42 t-20 -29t-28.5 -16.5t-33 -5.5q-38 0 -62 22.5t-24 67.5q0 14 3.5 30t12.5 33q17 33 36.5 69t36.5 70h56l-55 -113h6q35 0 57 -25.5t22 -60.5zM460 209q0 20 -10 30t-24 10t-24.5 -10t-10.5 -30t9.5 -31t25.5 -11q14 0 24 11t10 31z" />
<glyph unicode="&#x2679;" horiz-adv-x="869" d="M536 0v-59h-16l-74 95l78 98l13 -2v-59h128q36 0 52.5 12t16.5 32q0 19 -16 46l-100 170l67 39l111 -194q23 -39 23 -73q0 -48 -40.5 -76.5t-102.5 -28.5h-140zM393 73v-73h-213q-60 0 -95 28.5t-35 75.5q0 36 24 78l73 131l-46 25l7 13l118 22l42 -112l-8 -15l-47 29 l-64 -116q-13 -24 -13 -43q0 -18 13.5 -30.5t45.5 -12.5h198zM624 400l-121 21l-6 12l49 27l-71 120q-8 14 -19.5 22t-25.5 8t-27 -10t-21 -25l-99 -174l-64 37l106 185q22 38 49.5 54.5t57.5 16.5q31 0 59.5 -18t46.5 -50l73 -129l51 29l6 -14zM412 115h-56l95 239h-61v-41 h-52v92h172v-44z" />
<glyph unicode="&#x267a;" horiz-adv-x="869" d="M536 0v-59h-16l-74 95l78 98l13 -2v-59h128q36 0 52.5 12t16.5 32q0 19 -16 46l-100 170l67 39l111 -194q23 -39 23 -73q0 -48 -40.5 -76.5t-102.5 -28.5h-140zM393 73v-73h-213q-60 0 -95 28.5t-35 75.5q0 36 24 78l73 131l-46 25l7 13l118 22l42 -112l-8 -15l-47 29 l-64 -116q-13 -24 -13 -43q0 -18 13.5 -30.5t45.5 -12.5h198zM624 400l-121 21l-6 12l49 27l-71 120q-8 14 -19.5 22t-25.5 8t-27 -10t-21 -25l-99 -174l-64 37l106 185q22 38 49.5 54.5t57.5 16.5q31 0 59.5 -18t46.5 -50l73 -129l51 29l6 -14z" />
<glyph unicode="&#x267b;" horiz-adv-x="889" d="M730 616l-82 -144h-167l52 33l-74 133q-12 21 -27.5 34.5t-29.5 21.5h181q28 0 37.5 -6t15.5 -17l46 -82zM321 695q36 0 63.5 -19t42.5 -39l-121 -220l-147 87l83 146q13 17 33 31t46 14zM738 495l86 -148q15 -25 15 -52q0 -24 -11 -44t-28 -34.5t-39 -22.5t-43 -8h-8 l-123 222zM303 290l-46 27l-72 -131q-17 -27 -25 -47.5t-8 -33.5l-88 152q-14 24 -14 39q0 8 5 23l50 86l-41 20h161zM469 80l86 137v-60h149q16 0 44 7.5t51 22.5l-100 -152q-15 -23 -32 -29t-31 -6h-81v-58zM448 0h-189q-11 0 -25.5 4.5t-27.5 14t-22 25.5t-9 40 q0 18 6.5 35.5t17.5 37.5h249v-157z" />
<glyph unicode="&#x267c;" horiz-adv-x="836" d="M786 352q0 -76 -29 -143t-79 -117t-117 -79t-143 -29t-143 29t-117 79t-79 117t-29 143t29 143t79 117t117 79t143 29t143 -29t117 -79t79 -117t29 -143zM593 538l-34 61q-5 9 -12 13t-27 4h-137q11 -5 22.5 -15t20.5 -26l55 -100l-39 -25h125l62 108zM323 617 q-20 0 -35.5 -9.5t-23.5 -24.5l-62 -109l111 -65l90 165q-12 15 -32.5 29t-47.5 14zM522 403l92 -166h6q16 0 32 6t29 16.5t21 25.5t8 33q0 9 -2 19t-9 20l-64 111zM251 415h-120l30 -14l-38 -64q-5 -8 -5 -19q0 -13 10 -30l69 -111q0 20 23 60l55 97l34 -19zM498 54v43h61 q9 0 22.5 5t24.5 22l75 113q-17 -10 -38.5 -16.5t-32.5 -6.5h-112v46l-64 -102zM418 214h-186q-18 -27 -18 -53q0 -18 6.5 -30.5t16.5 -20t20.5 -10.5t18.5 -3h142v117z" />
<glyph unicode="&#x267d;" horiz-adv-x="836" d="M786 353q0 -76 -29 -143t-79 -117t-117 -79t-143 -29t-143 29t-117 79t-79 117t-29 143t29 143t79 117t117 79t143 29t143 -29t117 -79t79 -117t29 -143zM767 353q0 72 -27.5 135.5t-74.5 111t-111 75t-136 27.5t-135.5 -27.5t-111 -75t-75 -111t-27.5 -135.5t27.5 -136 t75 -111t111 -74.5t135.5 -27.5t136 27.5t111 74.5t74.5 111t27.5 136zM631 558l-62 -108h-125l39 25l-55 100q-9 16 -20.5 26t-22.5 15h137q20 0 27 -4t12 -13l34 -61zM325 617q27 0 47.5 -14t32.5 -29l-90 -165l-111 65l62 109q8 15 23.5 24.5t35.5 9.5zM637 468l64 -111 q7 -10 9 -20t2 -19q0 -18 -8 -33t-21 -25.5t-29 -16.5t-32 -6h-6l-92 166zM311 315l-34 19l-55 -97q-23 -40 -23 -60l-69 111q-10 17 -10 30q0 11 5 19l38 64l-30 14h120zM436 158l64 102v-46h112q11 0 32.5 6.5t38.5 16.5l-75 -113q-11 -17 -24.5 -22t-22.5 -5h-61v-43z M420 97h-142q-8 0 -18.5 3t-20.5 10.5t-16.5 20t-6.5 30.5q0 26 18 53h186v-117z" />
<glyph unicode="&#x2693;" horiz-adv-x="698" d="M381 68q33 3 70 14.5t81 52.5l-40 35l142 41l-21 -152l-38 41q-54 -55 -111 -79t-115 -29q-58 5 -115 29t-110 79l-38 -41l-22 152l142 -41l-40 -35q22 -21 42 -33.5t39 -19.5t36.5 -10t34.5 -4v397h-128v48h128v12q-27 8 -44 32t-17 53q0 38 26.5 64t63.5 26q18 0 34 -7 t28 -19t19 -28.5t7 -35.5q0 -29 -15.5 -50.5t-40.5 -31.5v-15h130v-48h-130v-397h2z" />
<glyph unicode="&#x26a0;" horiz-adv-x="884" d="M437 525q24 0 36 -13.5t12 -32.5l-29 -281q-2 -8 -8.5 -13t-11.5 -5q-6 0 -12.5 5t-7.5 13l-23 281q0 16 12 31t32 15zM437 75q-6 0 -14 2t-14.5 6.5t-11.5 13t-5 21.5q0 4 2 11t7.5 14t14 11.5t21.5 4.5q17 0 29.5 -11.5t12.5 -31.5q0 -19 -12.5 -30t-29.5 -11zM391 669 q11 19 24 27.5t27 8.5q13 0 25.5 -8.5t22.5 -25.5l331 -588q10 -17 10 -37t-12.5 -33t-40.5 -13h-675q-29 0 -41.5 13.5t-12.5 32.5q0 18 11 37zM125 90q-5 -8 -8.5 -14t-3.5 -11t6 -7t23 -2h597q17 0 23 2t6 7t-4 11.5t-9 14.5l-297 526q-9 17 -19 17q-5 0 -10 -5t-9 -12z " />
<glyph unicode="&#x2706;" horiz-adv-x="432" d="M268 501q-26 0 -36 -38t-10 -125q0 -12 2 -36t7 -48.5t14 -43.5t23 -21v-201q-9 0 -24 6t-33 21t-37 41t-34.5 66t-25 95.5t-9.5 130.5q0 113 20.5 183t48 109t54.5 53.5t40 15.5v-208zM281 -12v201h60q8 0 14 -4.5t6 -15.5v-160q0 -8 -4.5 -14.5t-15.5 -6.5h-60z M281 501v208h60q8 0 14 -6t6 -14v-163q0 -25 -20 -25h-60z" />
<glyph unicode="&#x2708;" horiz-adv-x="890" d="M566 246l-208 -351h-96l115 351h-191l-61 -80h-75l38 127l-41 126h75l64 -84h192l-112 359h95l207 -359h247q25 0 38 -14.5t13 -31.5q0 -16 -12.5 -29.5t-37.5 -13.5h-250z" />
<glyph unicode="&#x2709;" horiz-adv-x="1070" d="M353 330l-229 228v-454zM712 337l227 -227v456zM169 64h726l-222 224l-143 -144l-137 136zM162 610l368 -371l366 371h-734zM1005 671v-671h-941v671h941z" />
<glyph unicode="&#x2713;" horiz-adv-x="764" d="M756 656q-35 -27 -75.5 -72.5t-82 -102.5t-82.5 -121.5t-78 -127t-67.5 -120t-50.5 -100.5q-36 -8 -62 -16t-39 -16q-7 29 -17.5 66.5t-23.5 77.5t-28 79t-30 71.5t-29.5 54t-26.5 27.5q23 20 52 28.5t49 8.5q13 0 31 -23.5t35.5 -61t31.5 -83.5t19 -91q37 65 91 142.5 t115.5 152.5t126.5 139.5t126 104.5z" />
<glyph unicode="&#x2716;" horiz-adv-x="742" d="M717 172l-173 -174l-173 175l-173 -175l-173 174l175 172l-175 172l173 174l173 -174l173 174l173 -174l-174 -172z" />
<glyph unicode="&#x271a;" horiz-adv-x="748" d="M264 666h230v-218h218v-230h-213v-218h-231v218h-217v230h213v218z" />
<glyph unicode="&#x272a;" horiz-adv-x="796" d="M752 346q0 -74 -28 -138.5t-76 -112.5t-112.5 -75.5t-138.5 -27.5t-138.5 27.5t-112.5 75.5t-76 112.5t-28 138.5q0 73 28 138t76 113t112.5 76t138.5 28t138.5 -28t112.5 -76t76 -113t28 -138zM484 468l-96 177l-91 -179l-196 -39l141 -140l-24 -199l170 92l189 -92 l-32 204l137 135z" />
<glyph unicode="&#x2794;" horiz-adv-x="719" d="M333 74l241 241h-547v64h547l-239 238h95l266 -271l-269 -272h-94z" />
<glyph unicode="&#xe000;" horiz-adv-x="410" d="M362 147q0 -38 -13 -66.5t-34.5 -47.5t-50 -29t-59.5 -10t-59.5 10t-50 29t-34.5 47.5t-13 66.5v401q0 37 13 66t34.5 48t50 29t59.5 10t59.5 -10t50 -29t34.5 -48t13 -66v-401zM319 546q0 53 -31.5 84t-82.5 31t-82.5 -31t-31.5 -84v-396q0 -53 31.5 -84.5t82.5 -31.5 t82.5 31.5t31.5 84.5v396z" />
<glyph unicode="&#xe001;" horiz-adv-x="370" d="M231 0h-43v648l-104 -72v49l103 71h44v-696z" />
<glyph unicode="&#xe002;" horiz-adv-x="410" d="M205 660q-43 0 -73.5 -27.5t-41.5 -79.5l-44 8q12 63 53.5 101t107.5 38q78 0 119.5 -43.5t41.5 -112.5q0 -40 -14 -75t-35 -70l-227 -358h263v-41h-313v42l242 383q16 25 26.5 56.5t10.5 60.5q0 23 -6.5 44t-20.5 37.5t-36 26.5t-53 10z" />
<glyph unicode="&#xe003;" horiz-adv-x="410" d="M76 130q8 -41 32 -68.5t76 -27.5q35 0 58 11t37 31t20 48.5t6 63.5q0 81 -24.5 118t-85.5 37h-35v39h28q57 0 85 31t28 102q0 30 -5.5 57t-18.5 46.5t-35.5 31t-55.5 11.5q-26 0 -44.5 -8.5t-31 -22t-19.5 -31t-11 -35.5l-43 9q11 56 47 92t103 36q46 0 76.5 -14.5 t48.5 -39t25.5 -58t7.5 -72.5q0 -20 -3 -43.5t-12.5 -45t-26.5 -38.5t-44 -26q32 -7 50 -25.5t27 -42.5t11 -51.5t2 -52.5q0 -42 -8 -78t-27 -63t-51 -42t-81 -15q-25 0 -49 6.5t-44.5 21.5t-35 39t-19.5 58z" />
<glyph unicode="&#xe004;" horiz-adv-x="410" d="M328 116v-115h-43v115h-261v43l198 537h46l-199 -539h216v205h43v-205h58v-41h-58z" />
<glyph unicode="&#xe005;" horiz-adv-x="410" d="M213 452q44 0 72.5 -15t45.5 -43.5t23.5 -70t6.5 -94.5q0 -58 -7.5 -102t-25.5 -73.5t-49 -44.5t-79 -15q-127 0 -151 127l42 10q8 -42 33 -70t78 -28q37 0 60 13t35.5 38t16.5 61t4 82q0 94 -23.5 140t-90.5 46q-30 0 -60.5 -15.5t-44.5 -40.5h-40v339h294v-40h-254 l1 -249q24 24 54 34.5t59 10.5z" />
<glyph unicode="&#xe006;" horiz-adv-x="410" d="M213 389q149 0 149 -196q0 -97 -41.5 -148t-116.5 -51q-76 0 -116 45.5t-40 141.5q0 30 2 53.5t6 42.5t9.5 35t12.5 31l155 353h46q-37 -84 -73 -165.5t-73 -163.5h1q35 22 79 22zM205 351q-32 0 -54 -12t-35.5 -34t-19.5 -52.5t-6 -66.5q0 -76 27 -114.5t87 -38.5 q115 0 115 157q0 76 -26.5 118.5t-87.5 42.5z" />
<glyph unicode="&#xe007;" horiz-adv-x="378" d="M124 0h-45l221 656h-235v-99h-40v139h320v-40z" />
<glyph unicode="&#xe008;" horiz-adv-x="410" d="M367 187q0 -52 -12.5 -88.5t-34.5 -60t-51.5 -34t-63.5 -10.5t-63.5 10t-51.5 33t-35 60.5t-13 91.5q0 78 25.5 118t63.5 54q-40 18 -61.5 55t-21.5 106q0 48 12 82t33.5 55.5t50 32t61.5 10.5t62 -10t50 -32t33 -56.5t12 -82.5q0 -68 -23 -105.5t-60 -54.5 q39 -15 63.5 -54t24.5 -120zM205 662q-56 0 -85.5 -35.5t-29.5 -107.5t31 -105.5t84 -33.5q52 0 83 34t31 106q0 142 -114 142zM205 343q-26 0 -48 -8.5t-38 -26.5t-25 -47t-9 -70q0 -84 32.5 -121t87.5 -37q119 0 119 157q0 42 -9 71.5t-24.5 47.5t-37.5 26t-48 8z" />
<glyph unicode="&#xe009;" horiz-adv-x="410" d="M196 306q-73 0 -111 49.5t-38 146.5q0 6 0.5 12t1.5 11q4 88 46 132.5t111 44.5q76 0 116 -46t40 -142q0 -60 -8.5 -95.5t-22.5 -66.5q-15 -35 -36 -82t-42.5 -96.5t-42 -95.5t-34.5 -78h-46l146 328h-1q-35 -22 -79 -22zM206 344q61 0 87 44t26 120t-27 115t-87 39 q-57 0 -86 -39.5t-29 -116.5q0 -79 26.5 -120.5t89.5 -41.5z" />
</font>
</defs>
</svg>
